<svg width="100" height="100" viewBox="0 0 100 100" fill="none" xmlns="http://www.w3.org/2000/svg">
    <path d="M74.5457 52.5454C72.5457 49.4241 69.9094 46.7575 66.8791 44.6666C68.2275 44.0151 69.1518 42.6514 69.1518 41.0605V37.3181C69.1518 36.2423 68.7427 35.2423 67.9851 34.4848C67.2275 33.7272 66.2275 33.3181 65.1669 33.3181H61.6366C63.3033 29.8029 65.3336 25.606 67.3185 21.4999C69.4851 17.0151 71.7276 12.3787 73.47 8.71202C74.0306 7.54536 73.9397 6.19687 73.2579 5.10596C72.9201 4.57176 72.4525 4.13181 71.8988 3.82712C71.3451 3.52244 70.7232 3.36295 70.0912 3.36354H60.6063C59.8958 3.36772 59.2007 3.57169 58.6005 3.95214C58.0004 4.3326 57.5194 4.87419 57.2124 5.51506C55.5003 9.16657 53.1215 14.106 50.576 19.3484C48.1215 14.2726 45.6518 9.15142 43.9397 5.4999C43.3336 4.19687 42.0003 3.34839 40.5457 3.34839H31.076C29.7882 3.34839 28.6063 3.9999 27.9094 5.09081C27.2124 6.18172 27.1366 7.53021 27.6972 8.69687C29.4397 12.3635 31.6821 16.9999 33.8488 21.4848C35.8488 25.606 37.8791 29.8181 39.5457 33.3332H35.3639C34.3043 33.3372 33.2892 33.7599 32.5399 34.5092C31.7906 35.2585 31.3679 36.2736 31.3639 37.3332V41.0908C31.3639 42.1514 31.7882 43.1666 32.5457 43.9241C32.9245 44.3029 33.3791 44.606 33.8639 44.8029C28.2124 48.6666 23.9245 54.3484 21.9851 61.0302C18.97 71.3938 22.1215 81.606 30.6215 89.0757C36.2124 93.9848 43.5609 96.6363 50.8185 96.6363C53.7882 96.6363 56.7427 96.1969 59.5609 95.2726C69.273 92.1211 76.7579 83.5454 78.6215 73.4545C79.9548 66.2878 78.47 58.6666 74.5457 52.5454ZM59.1518 6.42415C59.4094 5.86354 59.9851 5.4999 60.6063 5.4999H70.076C70.6366 5.4999 71.1366 5.77263 71.4397 6.24233C71.7427 6.71202 71.773 7.28778 71.5306 7.78778C69.7882 11.4544 67.5609 16.0757 65.3942 20.5605C63.2276 25.0454 61.0154 29.6211 59.2579 33.3181H57.4548C57.2579 32.5454 57.1366 31.6969 57.0003 31.1666C56.6669 29.909 56.3942 28.6211 56.1669 27.3484C55.3488 22.8938 55.5912 18.6363 55.4548 14.1817C56.8488 11.2878 58.1215 8.62112 59.1518 6.42415ZM35.7882 20.5757C33.6215 16.0908 31.3791 11.4696 29.6518 7.80293C29.4094 7.28778 29.4397 6.72718 29.7427 6.25748C30.0457 5.78778 30.5306 5.51506 31.1063 5.51506H40.576C41.1972 5.51506 41.773 5.87869 42.0306 6.4393C43.8791 10.3938 46.6215 16.0605 49.273 21.5302C49.3942 21.7878 49.5154 22.0302 49.6366 22.2878V22.3029C50.1215 23.3181 50.6215 24.3484 51.1215 25.3787C51.8336 26.8635 52.5457 28.3181 53.2124 29.7272C53.2427 29.7878 53.273 29.8635 53.3033 29.9241C53.3942 30.106 53.47 30.2726 53.5609 30.4544C54.0457 31.4544 54.5003 32.4241 54.9397 33.3484L41.9245 33.3635C40.1669 29.6514 37.9548 25.0605 35.7882 20.5757ZM33.5306 37.3484C33.5306 36.3181 34.3639 35.4847 35.3942 35.4847L65.1518 35.4544C65.3968 35.4534 65.6396 35.501 65.8662 35.5943C66.0927 35.6876 66.2986 35.8248 66.4718 35.9981C66.6451 36.1713 66.7823 36.3772 66.8756 36.6037C66.9689 36.8303 67.0164 37.0731 67.0154 37.3181V39.606C67.0154 40.6363 66.1821 41.4696 65.1518 41.4696L35.3791 41.4999C35.134 41.5009 34.8913 41.4534 34.6647 41.3601C34.4381 41.2668 34.2323 41.1295 34.059 40.9563C33.8858 40.783 33.7485 40.5772 33.6552 40.3506C33.5619 40.1241 33.5144 39.8813 33.5154 39.6363V37.3484H33.5306ZM76.5457 73.0605C74.8185 82.409 67.9094 90.3332 58.9245 93.2423C49.9245 96.1666 39.3791 93.8938 32.0609 87.4696C24.2124 80.5757 21.3033 71.1666 24.0609 61.6363C26.1215 54.5302 31.0306 48.6363 37.4548 45.106L63.5154 45.0757C67.2124 47.1666 70.4548 50.106 72.7579 53.712C76.3791 59.3635 77.7579 66.4241 76.5457 73.0605Z"
          fill="currentColor"/>
    <path d="M68.4397 56.4089C64.0155 49.4998 55.3791 45.5301 47.4397 46.7725C38.6518 48.1513 31.4094 54.424 28.9852 62.7574C28.364 64.8937 28.1215 67.0301 28.1973 69.1362C28.1821 69.3634 28.167 69.6058 28.167 69.8331C28.167 75.5907 30.7124 81.1058 35.47 85.2725C39.667 88.9543 45.167 90.9392 50.6215 90.9392C52.8488 90.9392 55.0609 90.6058 57.1821 89.924C64.4852 87.5604 70.1064 81.121 71.5003 73.5301C71.773 72.0301 71.8791 70.5149 71.8488 68.9998C72.0155 64.6058 70.8185 60.1361 68.4397 56.4089ZM47.7731 48.8786C54.8943 47.7725 62.6518 51.3331 66.6367 57.5604C69.2882 61.6968 70.3034 66.8634 69.4094 71.7119C68.1518 78.5452 63.0912 84.3331 56.5306 86.4543C49.9549 88.5907 42.2427 86.924 36.8791 82.2271C31.1518 77.1968 29.0155 70.318 31.0306 63.3483C33.2276 55.818 39.8034 50.1361 47.7731 48.8786Z"
          fill="currentColor"/>
    <path d="M48.0765 58.5606L46.3341 63.9091H40.7129C39.8189 63.9091 39.0613 64.4545 38.7886 65.303C38.5159 66.1515 38.8038 67.0455 39.531 67.5758L44.0765 70.8788L42.3341 76.2273C42.0613 77.0758 42.3492 77.9697 43.0765 78.5C43.4401 78.7576 43.8492 78.8939 44.2735 78.8939C44.6826 78.8939 45.1068 78.7576 45.4704 78.5L50.0159 75.197L54.5613 78.5C55.2886 79.0303 56.228 79.0303 56.9401 78.5C57.6674 77.9697 57.9553 77.0909 57.6826 76.2273L55.9401 70.8788L60.4856 67.5758C61.2129 67.0455 61.5007 66.1667 61.228 65.303C60.9553 64.4545 60.1977 63.9091 59.3038 63.9091H53.6826L51.9401 58.5606C51.6674 57.7121 50.9098 57.1667 50.0159 57.1667C49.1219 57.1667 48.3644 57.7121 48.0765 58.5606ZM51.6674 64.6515C51.9401 65.4849 52.7129 66.0455 53.5916 66.0455H58.9553L54.6068 69.197C53.8947 69.7121 53.5916 70.6212 53.8644 71.4697L55.531 76.5758L51.1826 73.4242C50.8189 73.1667 50.4098 73.0303 49.9856 73.0303C49.5613 73.0303 49.1523 73.1667 48.7886 73.4242L44.4401 76.5758L46.1068 71.4697C46.3795 70.6364 46.0765 69.7273 45.3644 69.197L41.0159 66.0455H46.3795C47.2583 66.0455 48.031 65.4849 48.3038 64.6515L49.9704 59.5455L51.6674 64.6515ZM37.8038 60.3333C38.0765 60.3333 38.3341 60.2121 38.5159 59.9849C39.7908 58.3541 41.3933 57.0087 43.2201 56.0352C45.0468 55.0618 47.0574 54.4821 49.1219 54.3333C49.6068 54.303 49.9856 53.8788 49.9553 53.3939C49.925 52.9091 49.5007 52.5303 49.0159 52.5606C44.3947 52.8636 39.9401 55.2273 37.1068 58.8939C36.8038 59.2879 36.8795 59.8485 37.2735 60.1364C37.425 60.2727 37.6068 60.3333 37.8038 60.3333ZM53.3947 54.2121L53.8038 54.3182C53.8795 54.3333 53.9553 54.3485 54.0159 54.3485C54.4098 54.3485 54.7735 54.0758 54.8795 53.6818C54.908 53.5684 54.9137 53.4504 54.8963 53.3348C54.8789 53.2191 54.8387 53.1081 54.7782 53.008C54.7176 52.908 54.6378 52.821 54.5433 52.752C54.4489 52.683 54.3417 52.6334 54.228 52.6061L53.8189 52.5C53.7055 52.4715 53.5875 52.4658 53.4719 52.4832C53.3562 52.5006 53.2452 52.5408 53.1451 52.6014C53.0451 52.662 52.9581 52.7418 52.8891 52.8362C52.8201 52.9306 52.7705 53.0378 52.7432 53.1515C52.6219 53.6061 52.9098 54.0909 53.3947 54.2121Z"
          fill="currentColor"/>
</svg>
