<svg width="193" height="60" viewBox="0 0 193 60" fill="none" xmlns="http://www.w3.org/2000/svg">
<path d="M53.982 9.68174L41.4547 9.64538L42.0729 9.27265C42.5002 9.00901 42.7183 8.51811 42.6274 8.0272C42.6093 7.91811 42.5729 7.8181 42.5183 7.7181C42.5638 7.55447 42.5729 7.37265 42.5365 7.19083C42.4365 6.69992 42.0638 6.31811 41.5638 6.23629L21.7365 2.69083C20.8183 2.5272 19.8638 2.70901 19.0638 3.19083L2.65471 13.1817C2.21834 13.4454 2.00016 13.9363 2.09107 14.4363C2.10925 14.5454 2.14562 14.6454 2.20016 14.7363C2.15904 14.8971 2.15144 15.0647 2.17783 15.2286C2.20421 15.3926 2.26402 15.5493 2.35354 15.6891C2.44306 15.8289 2.56038 15.9489 2.6982 16.0414C2.83603 16.134 2.99141 16.1972 3.15471 16.2272L4.88198 16.5363C4.91834 17.7181 4.91834 18.4545 4.92743 19.1545C4.92743 19.9908 4.92743 20.8545 5.00016 22.4545C4.0638 22.7636 3.30925 23.5272 2.97289 24.4181C2.54562 25.5454 2.74562 26.9272 4.04562 27.7454C3.98198 30.3181 3.13653 32.8908 1.61834 34.9817C1.40925 35.2636 1.33653 35.6181 1.40925 35.9636C1.48198 36.309 1.70925 36.609 2.00925 36.7908C2.43653 37.0363 2.90016 37.3272 3.33653 37.609C3.81834 37.9181 4.32743 38.2454 4.81834 38.5272C5.00925 38.6363 5.20925 38.6817 5.41834 38.6817C5.85471 38.6817 6.27289 38.4545 6.50925 38.0545C8.40925 34.809 8.87289 30.8999 7.82743 27.4999C8.17289 27.209 8.45471 26.8454 8.63653 26.4272C8.94562 25.709 8.92743 24.8636 8.60016 24.0908C8.27289 23.3454 7.68198 22.7636 6.97289 22.4999C6.74562 22.4181 6.52743 22.3636 6.30925 22.3272C6.24562 20.7908 6.24562 19.9545 6.24562 19.1454C6.24562 18.4817 6.24562 17.809 6.20925 16.7636L8.23653 17.1272L10.2274 27.9181C10.3183 28.409 10.4729 28.8817 10.682 29.3181C10.6729 29.2908 10.6547 29.2636 10.6456 29.2363V45.7272C10.6456 48.2999 12.7365 50.3908 15.3093 50.3999L30.2002 50.4363C29.6638 51.9545 28.8638 53.409 27.8274 54.6726C27.4183 55.1726 27.3274 55.8454 27.6002 56.4272C27.8729 56.9999 28.4365 57.3636 29.082 57.3636H39.9911C40.6274 57.3636 41.2002 57.009 41.4729 56.4272C41.7456 55.8454 41.6638 55.1636 41.2456 54.6726C40.2208 53.4165 39.4211 51.9925 38.882 50.4636L53.9638 50.4999H53.9729C55.2183 50.4999 56.382 50.0181 57.2729 49.1363C58.1638 48.2545 58.6456 47.0817 58.6456 45.8272V14.3545C58.6365 11.7908 56.5456 9.69083 53.982 9.68174ZM5.39107 37.3454C4.94562 37.0908 4.48198 36.7908 4.02743 36.4999C3.59107 36.2181 3.14562 35.9363 2.70925 35.6817C4.2638 33.509 5.1638 30.8817 5.31834 28.2272C5.45471 28.2454 5.59107 28.2545 5.72743 28.2545C6.02743 28.2545 6.33653 28.209 6.62743 28.1272C7.4638 31.0999 7.03653 34.4908 5.39107 37.3454ZM6.50016 23.7272C6.87289 23.8636 7.19107 24.1908 7.37289 24.609C7.5638 25.0454 7.58198 25.5272 7.40925 25.909C7.0638 26.7181 5.98198 27.1636 5.14562 26.8363C3.7638 26.2999 4.05471 25.1999 4.17289 24.8727C4.43653 24.1908 5.08198 23.609 5.87289 23.609C6.08198 23.6181 6.29107 23.6545 6.50016 23.7272ZM20.6638 10.6908C20.6547 10.6636 20.6456 10.6454 20.6365 10.6181C20.6456 10.5454 20.6638 10.4908 20.682 10.4272C20.8365 9.91811 21.3729 9.33629 22.1638 9.27265C23.082 9.19992 24.1365 9.6181 24.4729 10.1908C24.5729 10.3636 24.6729 10.6454 24.3729 11.0908C24.0365 11.5817 23.3183 11.9272 22.5456 11.9727C21.9365 11.9999 21.3547 11.8454 20.9911 11.5363C20.8093 11.3908 20.7183 11.2181 20.6729 11.0636C20.697 10.9401 20.6939 10.8129 20.6638 10.6908ZM22.382 13.2817H22.6093C23.7911 13.2181 24.8911 12.6636 25.4547 11.8272C25.9729 11.0636 26.0274 10.2545 25.6002 9.53629C25.0093 8.5181 23.482 7.84538 22.0456 7.97265C20.8365 8.08174 19.782 8.90901 19.4274 10.0454C19.3911 10.1636 19.3638 10.2727 19.3456 10.3908C17.0729 11.0363 14.782 11.7636 12.5638 12.4817C10.3547 13.1908 8.08198 13.9272 5.82743 14.5545L3.59107 14.1545L19.7547 4.31811C20.282 3.99992 20.9093 3.88174 21.5183 3.99083L41.0547 7.47265L24.882 17.309C24.3547 17.6272 23.7365 17.7454 23.1183 17.6363L8.70925 15.0726C10.1365 14.6363 11.5638 14.1817 12.9547 13.7272C15.1002 13.0363 17.3093 12.3272 19.4911 11.6999C19.6365 12.0181 19.8456 12.309 20.1365 12.5454C20.7093 13.0181 21.5183 13.2817 22.382 13.2817ZM10.6547 22.9817C10.645 22.9317 10.6298 22.8829 10.6093 22.8363L9.60016 17.3817L22.9729 19.7726C23.2002 19.809 23.4274 19.8363 23.6547 19.8363C24.3547 19.8363 25.0456 19.6454 25.6547 19.2727L36.6093 12.609L37.3911 16.9272C37.6729 18.4908 37.082 20.1181 35.8547 21.1636C33.8365 22.8817 31.2911 24.2726 28.4911 25.1908C25.2365 26.2545 21.4638 26.7817 16.982 26.7908H16.9547C15.8638 26.7908 14.882 26.6999 14.0365 26.5181C12.3093 26.1454 10.9911 24.7636 10.6547 22.9817ZM11.3093 26.5817C12.0002 27.1726 12.8274 27.5999 13.7547 27.7908C14.682 27.9908 15.7638 28.0908 16.9456 28.0908H16.982C21.6093 28.0817 25.5093 27.5363 28.9002 26.4272C31.9002 25.4363 34.5274 23.9999 36.7093 22.1454C37.2547 21.6817 37.7093 21.1181 38.0456 20.509L38.2456 21.6181C38.5274 23.1817 37.9365 24.809 36.7093 25.8545C34.6911 27.5727 32.1456 28.9636 29.3456 29.8817C26.082 30.9545 22.3183 31.4727 17.8365 31.4817C16.7365 31.4817 15.7365 31.3908 14.882 31.209C13.1638 30.8454 11.8456 29.4545 11.5183 27.6726L11.3093 26.5817ZM39.5274 21.3908L38.4093 15.2181L53.0638 15.2545V37.609H16.2093V32.7272C16.7093 32.7636 17.2365 32.7908 17.7911 32.7908H17.8274C22.4547 32.7817 26.3547 32.2363 29.7456 31.1272C32.7456 30.1454 35.3729 28.6999 37.5547 26.8454C38.3312 26.1876 38.9218 25.338 39.2679 24.381C39.614 23.424 39.7035 22.3931 39.5274 21.3908ZM40.2183 55.4999C40.3456 55.6545 40.2911 55.809 40.2638 55.8636C40.2397 55.92 40.1989 55.9676 40.1469 56.0002C40.0949 56.0327 40.0342 56.0484 39.9729 56.0454H29.0638C28.882 56.0454 28.8002 55.9272 28.7638 55.8636C28.7365 55.8042 28.7271 55.7382 28.7368 55.6736C28.7465 55.609 28.7748 55.5486 28.8183 55.4999C30.0456 54.009 30.9729 52.2636 31.5547 50.4454L37.4911 50.4636C38.0729 52.2817 39.0002 54.009 40.2183 55.4999ZM57.3183 44.9363C57.3183 45.8363 56.9729 46.6817 56.3274 47.3181C55.6911 47.9545 54.8365 48.2817 53.9456 48.2999L15.2911 48.1908C14.4021 48.1884 13.5503 47.8342 12.9217 47.2057C12.2931 46.5771 11.9389 45.7252 11.9365 44.8363V43.3454H57.3093V44.9363H57.3183ZM57.3274 42.0272H11.9456V31.0999C12.759 31.8733 13.7904 32.3779 14.9002 32.5454V38.2636C14.9002 38.6272 15.1911 38.9181 15.5547 38.9181H53.7183C54.0729 38.9181 54.3729 38.6272 54.3729 38.2636V14.5999C54.3729 14.2454 54.082 13.9454 53.7183 13.9454L38.1729 13.8999L37.8093 11.8636L39.3093 10.9454L53.9729 10.9817C55.8183 10.9817 57.3183 12.4908 57.3183 14.3363V42.0272H57.3274Z" fill="#FFF8EF"/>
<path d="M34.7909 46.8818C35.2091 46.8182 35.5727 46.5182 35.7272 46.1273C35.8818 45.7364 35.8182 45.2727 35.5727 44.9273C35.3272 44.5818 34.9091 44.3727 34.4909 44.3727C34.2091 44.3727 33.9272 44.4546 33.7272 44.6455C33.3 45.0455 33.3727 46.0636 33.7363 46.4818C34 46.7818 34.4091 46.9364 34.7909 46.8818ZM27.7545 7.61819L33.3454 8.95456C33.3909 8.96365 33.4272 8.97274 33.4727 8.97274C33.7181 8.97274 33.9454 8.80001 34 8.55456C34.0173 8.48529 34.0206 8.41328 34.0098 8.34271C33.999 8.27214 33.9743 8.20443 33.937 8.14351C33.8998 8.0826 33.8508 8.0297 33.793 7.98789C33.7351 7.94609 33.6695 7.91621 33.6 7.90001L28.0091 6.56365C27.9398 6.54635 27.8678 6.543 27.7972 6.5538C27.7266 6.56461 27.6589 6.58934 27.598 6.62657C27.5371 6.6638 27.4842 6.71277 27.4424 6.77064C27.4006 6.82851 27.3707 6.89412 27.3545 6.96365C27.2818 7.25456 27.4636 7.54546 27.7545 7.61819ZM34.9272 9.56365L35.1727 9.69092C35.3031 9.75473 35.4534 9.76476 35.5911 9.71885C35.7288 9.67293 35.843 9.57476 35.9091 9.44547C36.0454 9.17274 35.9363 8.84546 35.6636 8.7091L35.4091 8.58183C35.3447 8.54926 35.2744 8.52977 35.2025 8.52449C35.1305 8.51921 35.0582 8.52824 34.9897 8.55106C34.9212 8.57389 34.858 8.61005 34.8036 8.65746C34.7492 8.70487 34.7047 8.76259 34.6727 8.82728C34.5454 9.10001 34.6545 9.42728 34.9272 9.56365ZM13.8272 24.0455C14.4363 24.4 15.1272 24.5636 15.7182 24.6727C17.0364 24.919 18.3784 25.0135 19.7182 24.9546C20.0182 24.9455 20.2545 24.6818 20.2363 24.3818C20.2286 24.2374 20.164 24.1018 20.0567 24.0047C19.9494 23.9077 19.8081 23.857 19.6636 23.8636C18.4091 23.9182 17.1454 23.8273 15.9182 23.5909C15.3909 23.4909 14.8454 23.3636 14.3727 23.0909C13.9272 22.8273 13.6091 22.4546 13.5181 22.0636C13.4454 21.7727 13.1454 21.5909 12.8545 21.6636C12.5636 21.7364 12.3818 22.0364 12.4545 22.3273C12.6272 23.0091 13.1272 23.6364 13.8272 24.0455ZM22.3272 24.7818H22.7C23 24.7818 23.2454 24.5364 23.2454 24.2364C23.2454 23.9364 23 23.6909 22.7 23.6909H22.3272C22.0272 23.6909 21.7818 23.9364 21.7818 24.2364C21.7818 24.5364 22.0272 24.7818 22.3272 24.7818Z" fill="#FFF8EF"/>
<path d="M79.5595 12.804C79.5595 13.244 79.4475 13.628 79.2235 13.956C78.9995 14.284 78.6955 14.54 78.3115 14.724C77.9355 14.908 77.5195 15 77.0635 15H73.0195V6.47998H77.2555C77.6555 6.47998 77.9995 6.58798 78.2875 6.80398C78.5835 7.01198 78.8075 7.28398 78.9595 7.61998C79.1195 7.94798 79.1995 8.29198 79.1995 8.65198C79.1995 9.06798 79.0915 9.45998 78.8755 9.82798C78.6675 10.188 78.3675 10.456 77.9755 10.632C78.4635 10.776 78.8475 11.044 79.1275 11.436C79.4155 11.82 79.5595 12.276 79.5595 12.804ZM78.4675 12.612C78.4675 12.348 78.4075 12.104 78.2875 11.88C78.1755 11.656 78.0195 11.476 77.8195 11.34C77.6275 11.204 77.4035 11.136 77.1475 11.136H74.0995V14.064H77.0635C77.3275 14.064 77.5635 13.996 77.7715 13.86C77.9875 13.724 78.1555 13.548 78.2755 13.332C78.4035 13.108 78.4675 12.868 78.4675 12.612ZM74.0995 7.41598V10.26H76.8115C77.0675 10.26 77.2915 10.196 77.4835 10.068C77.6835 9.93998 77.8395 9.76798 77.9515 9.55198C78.0715 9.33598 78.1315 9.09998 78.1315 8.84398C78.1315 8.57198 78.0755 8.33198 77.9635 8.12398C77.8595 7.90798 77.7115 7.73598 77.5195 7.60798C77.3355 7.47998 77.1235 7.41598 76.8835 7.41598H74.0995ZM80.8903 15V8.74798H81.9463V13.584L85.4503 8.73598H86.4103V15H85.3543V10.26L81.8983 15H80.8903ZM91.4696 15.12C90.9576 15.12 90.5016 14.992 90.1016 14.736C89.7016 14.48 89.3856 14.156 89.1536 13.764V17.556H88.0976V8.73598H89.0336V9.91198C89.2816 9.52798 89.6056 9.21998 90.0056 8.98798C90.4056 8.74798 90.8416 8.62798 91.3136 8.62798C91.7456 8.62798 92.1416 8.71598 92.5016 8.89198C92.8616 9.06798 93.1736 9.30798 93.4376 9.61198C93.7016 9.91598 93.9056 10.264 94.0496 10.656C94.2016 11.04 94.2776 11.444 94.2776 11.868C94.2776 12.46 94.1576 13.004 93.9176 13.5C93.6856 13.996 93.3576 14.392 92.9336 14.688C92.5096 14.976 92.0216 15.12 91.4696 15.12ZM91.1456 14.208C91.4576 14.208 91.7376 14.144 91.9856 14.016C92.2416 13.88 92.4576 13.704 92.6336 13.488C92.8176 13.264 92.9576 13.012 93.0536 12.732C93.1496 12.452 93.1976 12.164 93.1976 11.868C93.1976 11.556 93.1416 11.26 93.0296 10.98C92.9256 10.7 92.7736 10.452 92.5736 10.236C92.3816 10.02 92.1536 9.85198 91.8896 9.73198C91.6336 9.60398 91.3536 9.53998 91.0496 9.53998C90.8576 9.53998 90.6576 9.57598 90.4496 9.64798C90.2496 9.71998 90.0576 9.82398 89.8736 9.95998C89.6896 10.088 89.5336 10.236 89.4056 10.404C89.2776 10.572 89.1936 10.752 89.1536 10.944V12.732C89.2736 13.004 89.4336 13.252 89.6336 13.476C89.8336 13.7 90.0656 13.88 90.3296 14.016C90.5936 14.144 90.8656 14.208 91.1456 14.208ZM97.0982 15V9.67198H94.9382V8.73598H100.315V9.67198H98.1542V15H97.0982ZM102.155 17.628C102.019 17.628 101.879 17.608 101.735 17.568C101.599 17.528 101.459 17.468 101.315 17.388L101.675 16.668C101.747 16.708 101.815 16.736 101.879 16.752C101.951 16.776 102.019 16.788 102.083 16.788C102.275 16.788 102.455 16.696 102.623 16.512C102.799 16.336 102.963 16.064 103.115 15.696L103.415 14.94L100.667 8.73598H101.783L103.895 13.932L105.803 8.73598H106.847L103.919 16.02C103.775 16.38 103.611 16.676 103.427 16.908C103.243 17.148 103.043 17.328 102.827 17.448C102.611 17.568 102.387 17.628 102.155 17.628ZM107.258 13.188C107.258 12.788 107.37 12.444 107.594 12.156C107.826 11.86 108.142 11.632 108.542 11.472C108.942 11.312 109.406 11.232 109.934 11.232C110.214 11.232 110.51 11.256 110.822 11.304C111.134 11.344 111.41 11.408 111.65 11.496V11.04C111.65 10.56 111.506 10.184 111.218 9.91198C110.93 9.63198 110.522 9.49198 109.994 9.49198C109.65 9.49198 109.318 9.55598 108.998 9.68398C108.686 9.80398 108.354 9.97998 108.002 10.212L107.618 9.46798C108.026 9.18798 108.434 8.97998 108.842 8.84398C109.25 8.69998 109.674 8.62798 110.114 8.62798C110.914 8.62798 111.546 8.85198 112.01 9.29998C112.474 9.73998 112.706 10.356 112.706 11.148V13.8C112.706 13.928 112.73 14.024 112.778 14.088C112.834 14.144 112.922 14.176 113.042 14.184V15C112.938 15.016 112.846 15.028 112.766 15.036C112.694 15.044 112.634 15.048 112.586 15.048C112.338 15.048 112.15 14.98 112.022 14.844C111.902 14.708 111.834 14.564 111.818 14.412L111.794 14.016C111.522 14.368 111.166 14.64 110.726 14.832C110.286 15.024 109.85 15.12 109.418 15.12C109.002 15.12 108.63 15.036 108.302 14.868C107.974 14.692 107.718 14.46 107.534 14.172C107.35 13.876 107.258 13.548 107.258 13.188ZM111.338 13.632C111.434 13.52 111.51 13.408 111.566 13.296C111.622 13.176 111.65 13.076 111.65 12.996V12.216C111.402 12.12 111.142 12.048 110.87 12C110.598 11.944 110.33 11.916 110.066 11.916C109.53 11.916 109.094 12.024 108.758 12.24C108.43 12.448 108.266 12.736 108.266 13.104C108.266 13.304 108.318 13.5 108.422 13.692C108.534 13.876 108.694 14.028 108.902 14.148C109.118 14.268 109.382 14.328 109.694 14.328C110.022 14.328 110.334 14.264 110.63 14.136C110.926 14 111.162 13.832 111.338 13.632ZM113.843 15.048V14.1C114.051 14.1 114.235 14.048 114.395 13.944C114.563 13.832 114.711 13.648 114.839 13.392C114.967 13.128 115.067 12.768 115.139 12.312C115.219 11.848 115.271 11.26 115.295 10.548L115.367 8.73598H119.627V15H118.571V9.67198H116.303L116.279 10.644C116.247 11.5 116.175 12.212 116.063 12.78C115.951 13.348 115.795 13.796 115.595 14.124C115.395 14.452 115.147 14.688 114.851 14.832C114.563 14.976 114.227 15.048 113.843 15.048ZM121.32 15V8.73598H122.376V10.872H123.936C124.672 10.872 125.228 11.06 125.604 11.436C125.988 11.804 126.18 12.288 126.18 12.888C126.18 13.288 126.096 13.648 125.928 13.968C125.768 14.288 125.528 14.54 125.208 14.724C124.888 14.908 124.488 15 124.008 15H121.32ZM122.376 14.172H123.864C124.16 14.172 124.396 14.116 124.572 14.004C124.756 13.884 124.892 13.728 124.98 13.536C125.068 13.344 125.112 13.136 125.112 12.912C125.112 12.696 125.072 12.496 124.992 12.312C124.912 12.128 124.78 11.98 124.596 11.868C124.412 11.756 124.16 11.7 123.84 11.7H122.376V14.172ZM127.32 15V8.73598H128.376V11.328H131.64V8.73598H132.696V15H131.64V12.264H128.376V15H127.32ZM134.387 15V8.73598H135.443V10.872H136.715C137.451 10.872 138.007 11.06 138.383 11.436C138.767 11.804 138.959 12.288 138.959 12.888C138.959 13.288 138.875 13.648 138.707 13.968C138.547 14.288 138.307 14.54 137.987 14.724C137.667 14.908 137.267 15 136.787 15H134.387ZM135.443 14.172H136.643C136.939 14.172 137.175 14.116 137.351 14.004C137.535 13.884 137.671 13.728 137.759 13.536C137.847 13.344 137.891 13.136 137.891 12.912C137.891 12.696 137.851 12.496 137.771 12.312C137.691 12.128 137.559 11.98 137.375 11.868C137.191 11.756 136.939 11.7 136.619 11.7H135.443V14.172ZM140.039 15V8.74798H141.095V15H140.039ZM142.789 15V8.74798H143.845V13.584L147.349 8.73598H148.309V15H147.253V10.26L143.797 15H142.789ZM145.561 8.02798C144.985 8.02798 144.549 7.89198 144.253 7.61998C143.957 7.33998 143.809 6.99598 143.809 6.58798H144.553C144.553 6.81198 144.629 6.99998 144.781 7.15198C144.941 7.29598 145.201 7.36798 145.561 7.36798C145.913 7.36798 146.161 7.29998 146.305 7.16398C146.449 7.01998 146.537 6.82798 146.569 6.58798H147.313C147.313 6.99598 147.165 7.33998 146.869 7.61998C146.573 7.89198 146.137 8.02798 145.561 8.02798ZM153.02 15V8.73598H154.112L156.44 12.84L158.78 8.73598H159.848V15H158.84V10.26L156.776 13.884H156.104L154.028 10.26V15H153.02ZM162.331 17.628C162.195 17.628 162.055 17.608 161.911 17.568C161.775 17.528 161.635 17.468 161.491 17.388L161.851 16.668C161.923 16.708 161.991 16.736 162.055 16.752C162.127 16.776 162.195 16.788 162.259 16.788C162.451 16.788 162.631 16.696 162.799 16.512C162.975 16.336 163.139 16.064 163.291 15.696L163.591 14.94L160.843 8.73598H161.959L164.071 13.932L165.979 8.73598H167.023L164.095 16.02C163.951 16.38 163.787 16.676 163.603 16.908C163.419 17.148 163.219 17.328 163.003 17.448C162.787 17.568 162.563 17.628 162.331 17.628ZM170.046 15.084C169.438 15.084 168.922 14.972 168.498 14.748C168.082 14.516 167.762 14.196 167.538 13.788L168.402 13.404C168.546 13.66 168.75 13.86 169.014 14.004C169.286 14.148 169.614 14.22 169.998 14.22C170.454 14.22 170.814 14.12 171.078 13.92C171.342 13.72 171.474 13.452 171.474 13.116C171.474 12.812 171.366 12.568 171.15 12.384C170.942 12.192 170.646 12.092 170.262 12.084H169.626V11.388H170.298C170.466 11.388 170.614 11.348 170.742 11.268C170.878 11.18 170.982 11.064 171.054 10.92C171.134 10.776 171.174 10.616 171.174 10.44C171.174 10.16 171.074 9.93598 170.874 9.76798C170.674 9.59198 170.374 9.50398 169.974 9.50398C169.646 9.50398 169.37 9.56798 169.146 9.69598C168.93 9.82398 168.754 10.016 168.618 10.272L167.814 9.83998C168.014 9.46398 168.302 9.17198 168.678 8.96398C169.062 8.74798 169.51 8.63998 170.022 8.63998C170.43 8.63998 170.79 8.70798 171.102 8.84398C171.422 8.97198 171.67 9.15998 171.846 9.40798C172.03 9.65598 172.122 9.95598 172.122 10.308C172.122 10.604 172.05 10.88 171.906 11.136C171.77 11.384 171.566 11.572 171.294 11.7C171.67 11.812 171.958 12.008 172.158 12.288C172.358 12.56 172.458 12.884 172.458 13.26C172.458 13.644 172.354 13.972 172.146 14.244C171.938 14.516 171.654 14.724 171.294 14.868C170.934 15.012 170.518 15.084 170.046 15.084ZM176.499 15.12C176.027 15.12 175.595 15.036 175.203 14.868C174.819 14.692 174.483 14.456 174.195 14.16C173.915 13.856 173.695 13.508 173.535 13.116C173.383 12.724 173.307 12.308 173.307 11.868C173.307 11.276 173.443 10.736 173.715 10.248C173.987 9.75998 174.363 9.36798 174.843 9.07198C175.331 8.77598 175.887 8.62798 176.511 8.62798C177.143 8.62798 177.691 8.77998 178.155 9.08398C178.627 9.37998 178.991 9.77198 179.247 10.26C179.511 10.74 179.643 11.26 179.643 11.82C179.643 11.9 179.639 11.98 179.631 12.06C179.631 12.132 179.627 12.188 179.619 12.228H174.423C174.455 12.636 174.567 13 174.759 13.32C174.959 13.632 175.215 13.88 175.527 14.064C175.839 14.24 176.175 14.328 176.535 14.328C176.919 14.328 177.279 14.232 177.615 14.04C177.959 13.848 178.195 13.596 178.323 13.284L179.235 13.536C179.099 13.84 178.895 14.112 178.623 14.352C178.359 14.592 178.043 14.78 177.675 14.916C177.315 15.052 176.923 15.12 176.499 15.12ZM174.387 11.496H178.659C178.627 11.088 178.511 10.728 178.311 10.416C178.111 10.104 177.855 9.85998 177.543 9.68398C177.231 9.50798 176.887 9.41998 176.511 9.41998C176.143 9.41998 175.803 9.50798 175.491 9.68398C175.179 9.85998 174.923 10.104 174.723 10.416C174.531 10.728 174.419 11.088 174.387 11.496ZM180.805 15V8.74798H181.861V13.584L185.365 8.73598H186.325V15H185.269V10.26L181.813 15H180.805ZM183.577 8.02798C183.001 8.02798 182.565 7.89198 182.269 7.61998C181.973 7.33998 181.825 6.99598 181.825 6.58798H182.569C182.569 6.81198 182.645 6.99998 182.797 7.15198C182.957 7.29598 183.217 7.36798 183.577 7.36798C183.929 7.36798 184.177 7.29998 184.321 7.16398C184.465 7.01998 184.553 6.82798 184.585 6.58798H185.329C185.329 6.99598 185.181 7.33998 184.885 7.61998C184.589 7.89198 184.153 8.02798 183.577 8.02798Z" fill="#FFF8EF"/>
<path d="M87.2001 48.0001V38.4961C86.7948 38.6668 86.3148 38.8481 85.7601 39.0401C85.2054 39.2321 84.5654 39.3921 83.8401 39.5201C83.1361 39.6268 82.3574 39.6801 81.5041 39.6801C78.9868 39.6801 77.1201 39.1254 75.9041 38.0161C74.6881 36.8854 74.0801 35.0934 74.0801 32.6401V25.2801H76.8641V32.3201C76.8641 33.9628 77.2588 35.1681 78.0481 35.9361C78.8588 36.6828 80.1708 37.0561 81.9841 37.0561C82.9228 37.0561 83.8721 36.9494 84.8321 36.7361C85.8134 36.5228 86.6028 36.2561 87.2001 35.9361V25.2801H90.0161V48.0001H87.2001ZM111.854 27.8401H104.014V48.0001H101.134V27.8401H93.2941V25.2801H111.854V27.8401ZM123.655 48.1601C122.055 48.1601 120.604 47.8401 119.303 47.2001C118.001 46.5601 116.871 45.6961 115.911 44.6081C114.972 43.4988 114.247 42.2614 113.735 40.8961C113.223 39.5094 112.967 38.0908 112.967 36.6401C112.967 35.1254 113.233 33.6854 113.767 32.3201C114.321 30.9334 115.079 29.7068 116.039 28.6401C117.02 27.5521 118.161 26.6988 119.463 26.0801C120.764 25.4401 122.183 25.1201 123.719 25.1201C125.319 25.1201 126.769 25.4508 128.071 26.1121C129.372 26.7734 130.492 27.6588 131.431 28.7681C132.369 29.8774 133.095 31.1148 133.607 32.4801C134.119 33.8454 134.375 35.2428 134.375 36.6721C134.375 38.1868 134.108 39.6374 133.575 41.0241C133.041 42.3894 132.284 43.6161 131.303 44.7041C130.343 45.7708 129.212 46.6134 127.911 47.2321C126.609 47.8508 125.191 48.1601 123.655 48.1601ZM115.879 36.6401C115.879 37.7921 116.06 38.9121 116.423 40.0001C116.807 41.0668 117.34 42.0161 118.023 42.8481C118.705 43.6801 119.527 44.3414 120.487 44.8321C121.447 45.3228 122.513 45.5681 123.687 45.5681C124.903 45.5681 125.991 45.3121 126.951 44.8001C127.911 44.2881 128.721 43.6054 129.383 42.7521C130.065 41.8988 130.577 40.9388 130.919 39.8721C131.281 38.8054 131.463 37.7281 131.463 36.6401C131.463 35.4881 131.271 34.3788 130.887 33.3121C130.524 32.2454 129.991 31.2961 129.287 30.4641C128.604 29.6108 127.783 28.9494 126.823 28.4801C125.884 27.9894 124.839 27.7441 123.687 27.7441C122.471 27.7441 121.383 28.0001 120.423 28.5121C119.463 29.0028 118.641 29.6748 117.959 30.5281C117.297 31.3814 116.785 32.3414 116.423 33.4081C116.06 34.4534 115.879 35.5308 115.879 36.6401ZM154.042 27.8401H146.202V48.0001H143.322V27.8401H135.482V25.2801H154.042V27.8401ZM154.24 48.0001V31.3281H157.056V44.2241L166.4 31.2961H168.96V48.0001H166.144V35.3601L156.928 48.0001H154.24ZM173.908 48.0001V25.2801H189.492V27.8081H176.788V34.9761H183.892C186.388 34.9761 188.244 35.5628 189.46 36.7361C190.697 37.9094 191.316 39.4454 191.316 41.3441C191.316 42.6028 191.049 43.7334 190.516 44.7361C189.982 45.7388 189.182 46.5388 188.116 47.1361C187.049 47.7121 185.705 48.0001 184.084 48.0001H173.908ZM176.788 45.4721H183.732C184.841 45.4721 185.737 45.2694 186.42 44.8641C187.102 44.4588 187.593 43.9361 187.892 43.2961C188.212 42.6348 188.372 41.9521 188.372 41.2481C188.372 40.5654 188.233 39.9254 187.956 39.3281C187.678 38.7094 187.198 38.2188 186.516 37.8561C185.833 37.4721 184.873 37.2801 183.636 37.2801H176.788V45.4721Z" fill="#FFF8EF"/>
</svg>
