<svg width="136" height="131" viewBox="0 0 136 131" fill="none" xmlns="http://www.w3.org/2000/svg">
    <path d="M124.234 17.9697L94.8595 17.8846L96.309 17.0127C97.311 16.396 97.8224 15.2476 97.6092 14.0992C97.5668 13.8441 97.4815 13.6101 97.3534 13.3762C97.4601 12.9934 97.4815 12.5681 97.3961 12.1427C97.1616 10.9944 96.2877 10.1012 95.1153 9.90979L48.6237 1.61595C46.4707 1.23317 44.2325 1.65848 42.3567 2.78559L3.88018 26.1571C2.85697 26.774 2.34537 27.9223 2.55854 29.092C2.60117 29.3472 2.68645 29.5811 2.81434 29.7937C2.71792 30.1699 2.7001 30.562 2.76198 30.9454C2.82383 31.329 2.96408 31.6956 3.17399 32.0226C3.3839 32.3496 3.65899 32.6304 3.98216 32.8467C4.30534 33.0634 4.66968 33.2112 5.05259 33.2814L9.10274 34.0045C9.188 36.769 9.188 38.4917 9.20932 40.1292C9.20932 42.0855 9.20932 44.106 9.37986 47.8488C7.18425 48.5719 5.41496 50.3582 4.62626 52.4422C3.62438 55.0793 4.09335 58.3117 7.14162 60.2257C6.9924 66.244 5.00996 72.2623 1.45007 77.1535C0.959788 77.813 0.789272 78.6422 0.959788 79.4505C1.13033 80.2585 1.66324 80.9602 2.36669 81.3855C3.36858 81.9598 4.45572 82.6403 5.47893 83.2995C6.60869 84.0226 7.80242 84.7882 8.95352 85.4475C9.40117 85.7027 9.87014 85.8089 10.3604 85.8089C11.3836 85.8089 12.3642 85.2774 12.9184 84.3417C17.3736 76.7495 18.4607 67.605 16.0093 59.6515C16.8194 58.971 17.4802 58.1204 17.9065 57.1421C18.6313 55.462 18.5886 53.4844 17.8212 51.6766C17.0538 49.9329 15.6683 48.5719 14.0056 47.955C13.4727 47.7637 12.961 47.6362 12.4494 47.551C12.3002 43.957 12.3002 42.0006 12.3002 40.1079C12.3002 38.5553 12.3002 36.9817 12.215 34.5362L16.9686 35.3867L21.6368 60.6297C21.85 61.7781 22.2125 62.8839 22.7028 63.9047C22.6815 63.8409 22.6388 63.7773 22.6174 63.7134V102.29C22.6174 108.309 27.5202 113.2 33.553 113.221L68.4696 113.306C67.2118 116.858 65.336 120.26 62.9058 123.216C61.9465 124.386 61.7334 125.96 62.3731 127.321C63.0125 128.66 64.334 129.511 65.8476 129.511H91.4276C92.9196 129.511 94.2627 128.682 94.9021 127.321C95.5416 125.96 95.3498 124.365 94.3692 123.216C91.9662 120.278 90.091 116.947 88.8269 113.37L124.191 113.455H124.212C127.133 113.455 129.861 112.328 131.95 110.265C134.039 108.202 135.169 105.459 135.169 102.524V28.9006C135.148 22.9034 130.245 17.9909 124.234 17.9697ZM10.2965 82.6829C9.25197 82.0873 8.16481 81.3855 7.09897 80.705C6.07578 80.0458 5.03128 79.3866 4.00807 78.791C7.65322 73.7085 9.76356 67.5625 10.1259 61.3528C10.4457 61.3954 10.7654 61.4167 11.0852 61.4167C11.7886 61.4167 12.5134 61.3102 13.1955 61.1189C15.1567 68.0729 14.1548 76.0052 10.2965 82.6829ZM12.8971 50.826C13.7711 51.1451 14.5172 51.9105 14.9435 52.8888C15.3911 53.9097 15.4338 55.0367 15.0288 55.9299C14.2187 57.8226 11.6821 58.8648 9.72093 58.0991C6.4808 56.8443 7.16294 54.2711 7.44005 53.5057C8.05824 51.9105 9.57171 50.5495 11.4263 50.5495C11.9165 50.5708 12.4068 50.656 12.8971 50.826ZM46.1084 20.3302C46.0871 20.2665 46.0657 20.224 46.0444 20.1601C46.0657 19.99 46.1084 19.8623 46.1511 19.7135C46.5133 18.5226 47.7711 17.1616 49.6256 17.0127C51.7787 16.8426 54.2513 17.8208 55.0401 19.1605C55.2746 19.5648 55.509 20.224 54.8056 21.2659C54.0168 22.4142 52.3327 23.2225 50.5209 23.3289C49.0927 23.3925 47.7284 23.0311 46.8759 22.308C46.4496 21.9677 46.2362 21.5637 46.1297 21.2022C46.1862 20.9133 46.179 20.6158 46.1084 20.3302ZM50.1373 26.391H50.6703C53.4414 26.2422 56.0207 24.9451 57.3422 22.9885C58.5573 21.2023 58.6851 19.3095 57.6834 17.6294C56.2978 15.2476 52.7166 13.6739 49.3485 13.9716C46.5133 14.2268 44.0407 16.162 43.2092 18.8204C43.1241 19.0969 43.0601 19.3521 43.0174 19.6284C37.6884 21.1384 32.3166 22.8398 27.1153 24.5196C21.9353 26.1784 16.6062 27.901 11.3197 29.3685L6.07578 28.4327L43.9767 5.42262C45.2131 4.67828 46.684 4.40183 48.112 4.65702L93.9215 12.802L55.9993 35.812C54.7629 36.5564 53.3133 36.8329 51.8638 36.5777L18.077 30.5804C21.4237 29.5598 24.7705 28.4964 28.0319 27.4332C33.0627 25.817 38.2427 24.1582 43.3586 22.6907C43.6996 23.4351 44.1898 24.1156 44.872 24.6686C46.2151 25.7744 48.112 26.391 50.1373 26.391ZM22.6388 49.0821C22.616 48.9651 22.5804 48.851 22.5323 48.742L20.1661 35.9821L51.5228 41.5751C52.0558 41.6602 52.5886 41.7241 53.1215 41.7241C54.7629 41.7241 56.383 41.2775 57.8112 40.4057L83.4978 24.8174L85.331 34.9189C85.9918 38.5766 84.6062 42.3833 81.7284 44.829C76.9961 48.8482 71.0276 52.1019 64.4621 54.2498C56.8306 56.7381 47.9843 57.9714 37.4752 57.9927H37.4112C34.8532 57.9927 32.5511 57.78 30.5685 57.3547C26.5185 56.4829 23.4276 53.2505 22.6388 49.0821ZM24.1737 57.5035C25.7937 58.8858 27.7334 59.8854 29.9077 60.332C32.0821 60.7998 34.6187 61.0337 37.3899 61.0337H37.4752C48.3254 61.0125 57.4703 59.7366 65.4213 57.1421C72.4558 54.8241 78.6161 51.464 83.7323 47.1257C85.0112 46.041 86.0771 44.7226 86.8657 43.2977L87.3347 45.8922C87.9955 49.5499 86.6099 53.3567 83.7323 55.8024C79 59.8218 73.0312 63.0755 66.4657 65.2232C58.8131 67.7327 49.9879 68.945 39.4789 68.966C36.8995 68.966 34.5547 68.7534 32.5511 68.3281C28.5222 67.4775 25.4312 64.2238 24.6638 60.0555L24.1737 57.5035ZM90.3403 45.3605L87.7185 30.9208L122.081 31.006V83.2995H35.6634V71.8796C36.8358 71.9648 38.072 72.0284 39.3724 72.0284H39.4575C50.3077 72.0071 59.4526 70.7312 67.4036 68.1367C74.4381 65.84 80.5987 62.4586 85.7146 58.1204C87.5354 56.5816 88.9202 54.5942 89.7318 52.3555C90.5433 50.1168 90.7532 47.7052 90.3403 45.3605ZM91.9603 125.151C92.2588 125.513 92.131 125.875 92.067 126.002C92.0105 126.134 91.9148 126.246 91.7929 126.322C91.671 126.398 91.5286 126.435 91.3849 126.428H65.8049C65.3787 126.428 65.1868 126.151 65.1015 126.002C65.0375 125.863 65.0154 125.709 65.0382 125.558C65.0609 125.407 65.1273 125.265 65.2293 125.151C68.1071 121.664 70.2815 117.581 71.6457 113.328L85.5655 113.37C86.9297 117.623 89.1041 121.664 91.9603 125.151ZM132.057 100.44C132.057 102.546 131.247 104.523 129.733 106.012C128.241 107.501 126.237 108.266 124.148 108.309L33.5103 108.053C31.4258 108.048 29.4285 107.219 27.9545 105.749C26.4805 104.278 25.65 102.286 25.6444 100.206V96.7186H132.036V100.44H132.057ZM132.078 93.635H25.6657V68.0729C27.573 69.8821 29.9915 71.0625 32.5937 71.4543V84.8308C32.5937 85.6814 33.2759 86.3619 34.1284 86.3619H123.615C124.447 86.3619 125.15 85.6814 125.15 84.8308V29.4747C125.15 28.6454 124.468 27.9436 123.615 27.9436L87.1642 27.8372L86.3116 23.0737L89.8289 20.9257L124.212 21.0107C128.54 21.0107 132.057 24.5409 132.057 28.858V93.635H132.078Z"
          fill="#193cb8"/>
    <path d="M79.2339 104.991C80.2145 104.843 81.0671 104.141 81.4293 103.226C81.7919 102.312 81.6427 101.227 81.0671 100.419C80.4914 99.611 79.511 99.1219 78.5304 99.1219C77.8697 99.1219 77.2086 99.3135 76.7397 99.76C75.738 100.696 75.9084 103.077 76.761 104.056C77.3794 104.757 78.3386 105.119 79.2339 104.991ZM62.7347 13.1426L75.8444 16.2687C75.9511 16.29 76.0362 16.3113 76.1429 16.3113C76.7183 16.3113 77.2513 15.9072 77.3794 15.333C77.4199 15.171 77.4277 15.0025 77.4023 14.8374C77.377 14.6724 77.3191 14.514 77.2316 14.3715C77.1444 14.229 77.0295 14.1052 76.894 14.0074C76.7582 13.9096 76.6044 13.8397 76.4414 13.8018L63.3317 10.6757C63.1692 10.6352 63.0004 10.6274 62.8349 10.6527C62.6693 10.678 62.5106 10.7358 62.3678 10.8229C62.225 10.91 62.1009 11.0245 62.0029 11.1599C61.9049 11.2953 61.8348 11.4488 61.7968 11.6114C61.6263 12.2919 62.0526 12.9724 62.7347 13.1426ZM79.5535 17.6936L80.1291 17.9913C80.4349 18.1406 80.7873 18.164 81.1102 18.0566C81.4331 17.9492 81.7009 17.7196 81.8559 17.4171C82.1755 16.7791 81.9196 16.0135 81.2802 15.6945L80.6834 15.3968C80.5324 15.3206 80.3676 15.275 80.199 15.2627C80.0302 15.2503 79.8607 15.2715 79.7 15.3248C79.5394 15.3782 79.3912 15.4628 79.2637 15.5737C79.1361 15.6846 79.0318 15.8197 78.9567 15.971C78.6582 16.609 78.914 17.3746 79.5535 17.6936ZM30.0776 51.5708C31.5058 52.4 33.1259 52.7827 34.5117 53.038C37.6026 53.6141 40.7494 53.8352 43.891 53.6974C44.5944 53.6761 45.1485 53.0592 45.1058 52.3575C45.0878 52.0197 44.9363 51.7025 44.6847 51.4753C44.4331 51.2484 44.1018 51.1298 43.763 51.1452C40.8214 51.273 37.8582 51.0603 34.9806 50.5073C33.7442 50.2734 32.4651 49.9756 31.3567 49.3377C30.3121 48.721 29.5662 47.8492 29.3528 46.9345C29.1824 46.254 28.4789 45.8287 27.7968 45.9988C27.1147 46.1691 26.6884 46.8709 26.8589 47.5514C27.2638 49.1463 28.4362 50.6138 30.0776 51.5708ZM50.0086 53.2932H50.8828C51.5863 53.2932 52.1617 52.7191 52.1617 52.0173C52.1617 51.3155 51.5863 50.7412 50.8828 50.7412H50.0086C49.3052 50.7412 48.7298 51.3155 48.7298 52.0173C48.7298 52.7191 49.3052 53.2932 50.0086 53.2932Z"
          fill="#193cb8"/>
</svg>
