<?xml version="1.0" encoding="UTF-8"?>
<!DOCTYPE svg PUBLIC "-//W3C//DTD SVG 1.1//EN" "http://www.w3.org/Graphics/SVG/1.1/DTD/svg11.dtd">
<!-- Creator: CorelDRAW -->
<svg xmlns="http://www.w3.org/2000/svg" xml:space="preserve" width="210mm" height="297mm" version="1.1" style="shape-rendering:geometricPrecision; text-rendering:geometricPrecision; image-rendering:optimizeQuality; fill-rule:evenodd; clip-rule:evenodd"
viewBox="0 0 210000 297000"
 xmlns:xlink="http://www.w3.org/1999/xlink"
 xmlns:xodm="http://www.corel.com/coreldraw/odm/2003">
 <defs>
  <style type="text/css">
   <![CDATA[
    .fil35 {fill:none}
    .fil24 {fill:black}
    .fil71 {fill:#030405}
    .fil85 {fill:#101110}
    .fil2 {fill:#165893}
    .fil4 {fill:#195289}
    .fil0 {fill:#1D497A}
    .fil18 {fill:#1E201E}
    .fil23 {fill:#232B4E}
    .fil30 {fill:#252958}
    .fil48 {fill:#253156}
    .fil3 {fill:#253F6D}
    .fil17 {fill:#262C39}
    .fil53 {fill:#263266}
    .fil43 {fill:#283333}
    .fil37 {fill:#28335C}
    .fil59 {fill:#283448}
    .fil15 {fill:#292826}
    .fil1 {fill:#293A67}
    .fil39 {fill:#2B3763}
    .fil8 {fill:#2D3264}
    .fil7 {fill:#2E3B6A}
    .fil12 {fill:#31356A}
    .fil52 {fill:#314826}
    .fil38 {fill:#32366C}
    .fil44 {fill:#323765}
    .fil41 {fill:#37547B}
    .fil46 {fill:#375683}
    .fil66 {fill:#383B44}
    .fil33 {fill:#39271C}
    .fil65 {fill:#472516}
    .fil62 {fill:#49A434}
    .fil61 {fill:#4B4C50}
    .fil58 {fill:#4F6B86}
    .fil42 {fill:#522517}
    .fil40 {fill:#53352D}
    .fil22 {fill:#56230D}
    .fil60 {fill:#58A13C}
    .fil57 {fill:#595755}
    .fil31 {fill:#64220E}
    .fil72 {fill:#69778B}
    .fil55 {fill:#6A2211}
    .fil73 {fill:#6A6757}
    .fil47 {fill:#6A7071}
    .fil76 {fill:#6F8699}
    .fil69 {fill:#734F4E}
    .fil28 {fill:#751711}
    .fil54 {fill:#756B0E}
    .fil70 {fill:#786A61}
    .fil29 {fill:#797113}
    .fil63 {fill:#7D1E11}
    .fil56 {fill:#866868}
    .fil49 {fill:#89270C}
    .fil75 {fill:#897B75}
    .fil80 {fill:#9599A2}
    .fil14 {fill:#96270F}
    .fil86 {fill:#964533}
    .fil50 {fill:#973717}
    .fil32 {fill:#9B340C}
    .fil5 {fill:#9C2A0C}
    .fil36 {fill:#9C7D02}
    .fil9 {fill:#9D260D}
    .fil64 {fill:#A44215}
    .fil67 {fill:#A44326}
    .fil51 {fill:#A5483A}
    .fil83 {fill:#A5C888}
    .fil74 {fill:#A89636}
    .fil68 {fill:#AC8D05}
    .fil13 {fill:#AF9501}
    .fil19 {fill:#B6BBC8}
    .fil77 {fill:#B8C3B3}
    .fil84 {fill:#B8D3A0}
    .fil27 {fill:#BD3132}
    .fil26 {fill:#C99E00}
    .fil10 {fill:#C9A184}
    .fil45 {fill:#CD9F00}
    .fil16 {fill:#D3D8E6}
    .fil82 {fill:#D7E6CA}
    .fil20 {fill:#E4E9F5}
    .fil79 {fill:#EBF1E5}
    .fil81 {fill:#F5F8F2}
    .fil6 {fill:#F7B900}
    .fil21 {fill:#FCC100}
    .fil25 {fill:#FCCA33}
    .fil78 {fill:#FED974}
    .fil34 {fill:#FFE195}
    .fil11 {fill:white}
   ]]>
  </style>
 </defs>
 <g id="Слой_x0020_1">
  <metadata id="CorelCorpID_0Corel-Layer"/>
  <g id="_1804198945600">
   <path class="fil0" d="M97081.1 106644.5c319.9,289.6 -414.8,238.8 403.4,242.7l8.8 488.8c-2.5,757.9 99.4,704 -202.9,1260.7l63 410.2c-197.4,1062.8 -653.8,2552.8 -1270.8,3082.8 -131.9,448.4 28.7,247 -253.3,550 -709.4,468.9 -1066.5,1281.9 -2036,1556l-480.9 303.3 -1055.7 419.5 -343.6 74.4 -230.8 80.3 -411.4 21.7 -655.5 -17.4c-46.6,23.8 -108.3,60.7 -140.8,69.5l-925.3 -21.1 -410.4 -30.9 -1059.5 -208.6 -468.2 -174.3c-477.6,-79.7 -410.3,76.5 -410.5,-282.3l-335.3 -121.9 -445.3 -239c-633.6,-399.8 -1396.3,-1050.6 -1666.3,-1510.7 -300.3,-260.9 77,160.2 -327.4,-329.2 -362.6,-438.8 157.2,340.1 -155,-284.5 -665.5,-833 -852.7,-1701.5 -1116.5,-2865.5l-53.3 -2619 211.5 -1007.5 126.7 -414.1c221.5,-699.2 470.1,-1224.1 826.8,-1691.3 140.4,-338 28.6,-135.1 235.9,-427.6 17.9,-25.3 99.5,-34.9 113.8,-104.9 14.4,-70.3 83.6,-61.2 124.1,-93.4 320.9,-578.1 1520.5,-1536.3 2309.8,-1921.3l498.5 -145.1 644.6 -244.7 753.3 -198.3 547.7 -85.7 644.4 -2.8 1088.7 53.3 516.8 73.3 1560.6 528.8 450.6 222.4 413.1 275c591.9,274.1 1034.7,798.8 1460.8,1292.5 484.8,526.6 509.8,512.9 896.4,1288.5 369.5,703.9 331.9,864.7 481,1357.1 10,33.1 31.3,90.6 42.4,124.7l157.8 424.2c175.2,783.2 330.1,682 -125.8,841.4zm7305.7 -7623.1c207,-231 99.7,-158.8 492.9,-392.1 177.3,-105.2 192.6,-98.4 430.9,-199l3137.7 -1179.1 -23.9 3124.2c-843.1,372.2 -1874.6,915.2 -2785.4,932.1 -434.4,-962.6 -732.6,-1461.6 -1252.2,-2286.1zm-1335.3 -1670.9c164.4,-555.3 33.2,-344.4 488,-669.1l4908 -1978.9c-22.8,1501.8 307.9,1019.4 -2523.5,2147.3 -2629.2,1047.2 -2115.1,1353.1 -2872.5,500.7zm6309.9 -4809l-798.3 -49.6c-203.5,323.2 -235.6,-52.5 -140,738.2l-5.1 873c-815,173 -2351.5,747 -2958.6,1196.4 -729.2,539.7 -2040.9,1068.1 -2976.4,1343.6l-1670.6 -1393.5 -382.9 -350.4 -1072.9 -621.3 -339.3 -255.3c-4732.6,-1789.6 -5664.2,-2178.5 -11450.6,-1931.3 -4278.1,506.2 -7238.5,2589.3 -9671.6,4570 -325.6,670.3 -936.4,1157.5 -1416.2,1818.6 -486.5,670.3 -787.3,1157.6 -1201,1931.9 -607.6,1137.4 -1338.4,3230 -1379.4,4665.1 -245.7,2515.9 -426,3733.3 114.3,6306.9 290.3,1382.4 1081.3,3905.4 1999.9,4698l142.4 502.3 -3916.7 1672.7c-616.3,270.7 -848.6,315.7 -1124.6,717.8l5284.4 -2027.6c1378.6,1360.5 1971.1,2233.5 3685.7,3464.9 7185.4,5160.5 19592.3,3871.5 24729.3,-4667.8 1476.4,-2454.2 3005.8,-8252.7 1604.9,-11737l-73.6 -728.9 -85.1 -435.7 -363.4 -1139.8c769.9,-205.2 1747.9,-846.3 2431.2,-802.5 413.3,-485.3 -554.7,-371 653.6,-413.7 1918.8,-49.6 4183.3,52.9 5849.1,-140.6 2022.8,-235 1736,231.9 1782.3,292.3l-51.8 22202.8 9295.3 -40.8 -16.3 -22188.8 7977.3 -2.6 -91.2 -6630.7 -52.6 -1376.8 -15710.9 -38.4c-1037.8,-395.1 123.4,93.6 -626.6,-497.7 -1007.2,632.6 -2220.4,480.1 -3759.6,480.1 -857.7,-349.6 -390.9,91.9 -417.7,-672.4 -962,720.9 -2141.2,819.7 -3796.7,668.6z"/>
   <path class="fil1" d="M173901.8 110956.9c3663.1,-0.4 8399.7,-751.3 8396.8,1844.6 -3,2660.4 -4395.4,1891.9 -8402,1891.6l5.2 -3736.2zm16150.5 -16442.2c-1348.8,773.1 -1353.8,2064.8 -5374.7,2936 -2373.9,514.3 -5179.3,373.3 -7634.3,142.3 -5626.5,-529.5 -8505.5,-1154 -12564.2,-3924.3l75.1 29147.4c4793.6,421.7 11284.8,23.7 16276.6,44.7 5365,22.5 8706.6,-2296.2 10220.8,-6107.5 1896.7,-4773.9 -7.4,-9624.1 -3049.4,-11953.1 -3387.4,-2593.3 -9135.3,-1990.3 -14107.2,-1990.3l14.3 -2322.7 16033 -73.3 110 -5899.2z"/>
   <path class="fil2" d="M34227.9 115394.9l24.4 6653.2 -11.7 744.6 6837.5 37 2290.7 -47 161 -60.2 -12.2 -1509.4 52.3 -8076 -56.8 -20584.2 -9298.4 0.7 0 12593c-2780.2,853.1 -7344.7,1369.7 -8243.1,-1643.8 -398.7,-1337.4 -163.4,-8932.9 -163.3,-10953.3l-9454.6 -9.8c0,6568 -908.5,13037.6 2417,17534.2 3294.2,4454.2 10607.9,4195.6 15443.6,3152.3l13.6 2168.7z"/>
   <path class="fil3" d="M144487.6 122862.7c758.1,-307.4 1495.3,-1726.9 1969.4,-2439.8l5192.5 -7511.9 16.7 9867.3 8273 76.8 27.6 -22054.1 -8169 -6.3c-768.7,552.5 -2796.6,3853.7 -3445.6,4803.3 -530.2,775.8 -1089.4,1562.6 -1604.2,2359.2 -438.4,678.3 -1006.3,1688.8 -1563.1,2308.6 -145.5,-2002.4 275.4,-8115.9 -199.3,-9471.5l-8163.8 50.7 14.7 22004.3 7651.1 13.4z"/>
   <polygon class="fil4" points="46660.2,100500 54872.1,100567.9 54847.5,106673.9 54895,114460.2 54778.4,122823.6 58056,122841.9 60199.4,122875 61776.8,122829.8 62765.6,122829.6 63657.5,122832.1 64034.4,122791.7 64031.9,122169.8 64032.5,121788.1 64042.2,121004.4 63943.8,111339.1 64002.3,110648.5 64030.1,110083.6 64072,101764.4 64039.5,100646.7 72020.5,100437.6 72060.5,92510.8 46634.1,92484 "/>
   <path class="fil5" d="M87566.7 92091.3c5786.4,-247.2 6718,141.7 11450.6,1931.3 1045.1,-245.9 2379.5,-968 3522.7,-1460.1l6681.5 -2899.3c1149.7,-505 2178.3,-971.7 3357.9,-1458.2 4956.4,-2044 9509.9,-3299.7 14455.2,-4983.7 4991.4,-1699.7 9669,-2815.8 15104.1,-4294.1 2397.3,-652.1 5086.8,-1340.1 7725.1,-1895.4 895.9,-188.5 7143.3,-1844.6 7889.6,-1130.8 699.7,-187.1 1422.4,-392.5 2035.9,-433.3 1291,-85.9 742.2,492.7 1336,-204.2l776.8 -380.5c882.6,-283.6 1739.4,-74.4 2296.1,-63.4 644.5,12.8 624.4,-227.7 1187.1,-309.7 1083.3,-158.1 573.9,77.6 1500.6,274.3 -71.1,-705.4 298.8,-770.5 -865.3,-788.4 -259.1,-4 -1162,208.7 -1380.1,244.1 -1139.2,184.9 -1922.6,-84.4 -3026.1,87.4 -661.5,420.3 -608.4,911.3 -1828.8,818.4 -1026.6,-78.2 -1156.8,-449.9 -2305.4,-338.2 -1342.3,130.6 -3258,539.3 -4605.7,851.1 -874.2,202.2 -1747.4,111.2 -2430,293.8l-4523.7 904.5c-301.6,42.4 -848.4,163.6 -1099.9,178.2l-978 -199.7c3853.7,-1440.6 7075.6,-2018.3 10969.9,-2751.2l3842.3 -629.6 -393.5 -248.1c-1575.7,-661.2 1107.9,345.7 -406.3,-115.8l-504.8 -117.2c-190.3,181 -3879.6,796.9 -4383.7,672 110.6,-220.1 153.8,-642.1 1094.8,-829.3l-724.2 -327.7 -2312.2 444.6 -163.4 498.6 1435.9 317.3c-53.4,31.4 -120.3,71.6 -162.3,90.5 -41.4,18.6 -111.8,62.4 -163.2,83.3 -841.8,341.8 -1704.2,256.9 -2599.6,247.9 -188,131.8 -120.5,129.2 -510.7,244.6 -198.6,58.8 -357.4,54.7 -556.8,87 -476.7,77.2 -510.4,124.6 -1102.3,170.3 -20.7,-41.7 -42.2,-105.6 -50,-130.2 -7.6,-23.9 -36.3,-98.8 -45,-128l-165.7 -656.9 -735.4 -6c-243.2,227.3 98.4,104.9 -559.2,389.7l-1568.2 241.5c-470.7,53.5 -710.3,148.2 -1021.9,124.7 -1.5,-0.1 -390.8,-86.9 -461.6,-111.7 -722.4,-253 -52.3,-4 -414.9,-229 444.3,-993.3 1463,-720.9 2261.7,-353.4 1097.7,-280 1496.8,-618 1979.5,-1317.5 -548.7,-303.4 -1148,-37.2 -2019.8,-113.1 -1105.5,-96.2 -1199.6,-157 -2273.6,25.7l-12073.2 2784.9 -14918.6 4921.5c-1065.2,463 -2591.8,1048.1 -3666.1,1356.1 -1544.5,442.8 -7759.6,3519.9 -10308.2,4507.3 -4831.7,1871.9 -6302,2884 -10309.1,4734.9 -924.4,427 -2556.2,904.3 -3286.8,1378.2z"/>
   <path class="fil6" d="M172377 90334.7c-653.2,380.2 -1792.7,-372.3 -2182.4,-739.9l2182.4 739.9zm6781.9 2428c-504.5,-219.7 -436.9,368.4 -375,-931.6 77.9,-1638.3 1067.8,-6810.9 1401.5,-8284.6 1942.9,-8577.8 1930.5,-5608.8 -1036.8,-7425 2226.9,-236.5 3584.3,3 3116.4,2602.6 -452.8,2515 -1468,5462.6 -2123.7,9362 -150.4,894.2 -280.4,1708.1 -372.3,2563.3 -312.4,2905.6 -2.9,1898.8 -610.1,2113.3zm-3286.2 -19183.5c-579.9,297.7 -1011,211 -1656.2,664.3 -418.1,293.8 -648.7,609.9 -1070.9,950.8l-222.1 1024.8 -835.7 475.4c-393.4,381.3 -851.8,626.4 -1335.9,972.2 -1287.2,919.3 -2702.1,2795.1 -3056.4,3098.8l-193.7 289.6c-172.5,385.1 -234.3,560.5 -438.3,857.9 -331.1,482.3 -219.2,306 -530.6,559.9l-1105.4 3027.1c-263.2,1019.3 -332.5,674.5 -1455.9,893.9 348.3,1361.4 329.6,2042.6 1184.1,3451.7 588,969.6 1169.4,1653.3 2029.5,2347.1 2765.5,2230.6 10829.4,3188 14480,3197.6 3696.6,9.7 4535.8,-614.2 7345.4,-1655.8 -341.4,603.3 -512.7,753.4 -1368.8,1235.9 -4851.3,2734.2 -18350.9,701.5 -21459.3,-1977.1 -1230.8,-1060.7 -3566.5,-3836.9 -2681.7,-6374.5 -632,245.5 -406.1,75.1 -828.4,598.8 -439.4,544.5 -316.4,481.7 -165,1068.9 1082.2,5808.5 6381.8,7333.8 12524.1,8119.7 5045.8,645.5 11770.9,1345.5 15123.2,-3070.1 148.3,-195.2 122.9,-192.3 274.1,-373.1 34.3,-40.9 73.1,-87.9 108.3,-127.6l386.4 -381c447.7,-3047.9 -807,-2113.2 -1314.2,-3458.4 -88.9,-2619.9 -695.7,-4943.8 -1766.5,-7000.8 -940.4,-1806.4 -2456.8,-4057.6 -3919,-4554.1l-877.5 2480.7c1899.2,706.1 3251.9,2609.2 4162.5,4581.2 766.8,1660.8 1569.2,5019.6 843.8,6912 -2157.1,1008 -4456.8,477.1 -6923,655.4 -648.9,1253 292.4,600 -702.1,918.1 454,-3008.9 931.3,-6197.6 1418.1,-9254.5 919.6,-5773.5 2147.3,-5590.8 1009,-8560.8 -1582.7,-1681.5 -4219.2,-1821.6 -6981.9,-1594z"/>
   <path class="fil7" d="M154724.5 79804.3c-1215,-28.7 -1780.2,152.5 -2718.9,174.1 -53.9,171.3 -63.6,488.1 -208.9,662 -713.4,22.7 -607.7,3.3 -1043.2,338.2 565.3,-9.5 131.8,510.4 -1.1,909.8 -550.6,130.9 -1098.9,199.4 -1760.4,349.2 -855.5,193.8 -4005,609.3 -4728.6,1108.5 -26.8,18.4 -96,143.8 -114.7,106 -18.8,-38.2 -72.7,76 -109.7,113.5 -465.6,-945 -767.2,-358.1 -1566.2,-320.6 -843.2,39.4 -558.5,-256.3 -1649.1,247l-304.8 154.7c-944.3,469.1 -1153.6,611 -2271,739.3 -1305.6,150 -1494.9,601.2 -2890.1,957.5 -593.9,151.8 -1198.7,70.4 -1555.2,146.1 -749.7,159.1 -312.3,275.5 -1011.4,707.8 -616,-230.5 0.1,178.2 -625.4,-571.6l-884.8 55.3c-1681.5,265.8 -4160.7,1909 -8326.2,2452.3 -1138.3,148.4 -3750,1584.7 -4828.9,1868.1 -1132.4,297.3 -51.3,30.5 -875.6,-103.2 -1188.1,-192.8 -1188.8,495.5 -1794.7,953.3 -1325.1,413.8 119,-1052.6 -4501.9,1124.1 -598.9,282.1 -1136.2,318.8 -1592.3,565.8 1655.5,151.1 2834.7,52.3 3796.7,-668.6 26.8,764.3 -440,322.8 417.7,672.4 1539.2,0 2752.4,152.5 3759.6,-480.1 750,591.3 -411.2,102.6 626.6,497.7l15710.9 38.4 52.6 1376.8 5727.8 -1652.1c849.2,-179.2 1005.4,-358 1736.1,-574.7 2533.9,-751.5 5352.8,-920.3 6955.5,-2546.4 -236.5,-264.5 -65.4,-517.6 -734.3,-269.7l-887.9 462c-67.8,18.4 -116.7,23.5 -184.9,36.2 -380.6,70.9 -698.5,11.2 -1093.5,59.2l-3878.1 878.5c-732.5,229.3 -798.4,509.3 -1775.8,711 -575.5,320.2 -1751,935.5 -2405.5,629.1 418.4,-426.5 1347.4,-853.2 2200.8,-918.4 348.8,-412.4 183.1,-270.1 775.8,-407.3l2005.6 -608.5c1142.4,-485.1 2068.4,-406.5 2939.6,-732.6 1002.7,-375.5 -47.8,-401.3 844,-883.9 8.7,10.5 10.9,40.5 8.4,39.9 -1.8,-0.3 -20.9,17 -23.8,15.8 -7.6,-3.2 -60.5,-21.6 -70.2,-27l-278.4 -214.2c-28.2,-102.3 -130.4,-101.7 -190.1,-158.7 1524.8,-520 -232.2,-502.5 946.7,-1743.6 597.9,-629.6 1048.3,-920.3 2035.2,-911.2 -380.9,443.3 -925.6,935 -1244.2,978.9 537.1,360.8 268.7,66.4 753.4,142.6 1342.2,211 -802.4,444.2 2319.2,535.6 -282.8,426.4 -17.6,143.6 -414,571.6 -293.6,316.9 -76.8,119.8 -516,412.8l5035.2 378.2c2335.2,-200.2 6763.5,-1106.3 8360.3,-963.6 422.3,-523.7 196.4,-353.3 828.4,-598.8l-76.8 -164.3 -5874.7 752.5c36.7,-53.4 84.6,-119.7 118.5,-154.3l251.5 -265.8c414.1,-315.3 1013.3,-358.2 1530,-463l5978.2 -823.9 1105.4 -3027.1c-485.8,-375 -185.1,-244 -900.2,-181.8 162,-353.5 564.5,-789.2 -297.1,-801.2 -1218.5,-92.2 -776.3,-111.6 -1534.7,-515.9l-736.1 -453.6c416.4,-695.2 -65.5,-208.4 1361.2,-873.3 -1185.9,-86.4 -693.3,-424.1 -2281.9,-27.5 -1280.3,319.6 -1537.1,375.8 -1902.6,-878.2l-370.1 -168.4c-58.3,435.6 -76.5,635.5 -136.8,798.6 -1121.8,473.9 -1085,569.8 -2313.7,538 -1364.1,-35.4 -1202.7,-256.6 -2696.4,-105.3z"/>
   <path class="fil8" d="M54738.2 115914c-76.7,1665.9 -1756.7,2443.7 -3039.4,3052.5 -1998.6,948.6 -3616.9,2377.6 -5345.8,3674 -1458.8,1094 -3940.6,1976.9 -4986.9,3423 -768.3,1061.8 -775.7,676.2 -1788.3,1270.6 -594.5,349.1 -1167.4,878.3 -1724.1,1173.8l-3689 1511.7c-1368.6,613.6 -2780.3,1694.3 -3832.8,2685.5 -1001.8,943.3 -1722.3,639.1 -3371.7,2658.5 356.8,333.8 -550.8,451.3 537.1,223.3 2416.9,-113 8381.2,-2266.2 10434.8,-1009.9 981.1,-30.9 1882.1,326.3 2749.4,539.4 -221,-327.6 -636.9,-118.8 894.4,-1168.3 1154.9,-791.5 1529.9,-586.9 2426.9,-1319.7l2431.7 -1543c-240.9,-504.2 -149.7,-183.2 286.9,-250.3 27.9,-30.8 59.7,-83.3 71.4,-102.2 490.4,-788.2 324.6,-876.4 1167.3,-1432.3 962.8,-854.1 1280.8,-1318.2 2671.4,-1904.2 382.6,-427.1 1013.2,-501 1619.7,-789.5 325.7,-897.8 605.2,-754.8 1427.6,-1238.9l4377.2 -2526.1 -3277.6 -18.3 116.6 -8363.4 -149.5 160.8 -7.3 1293z"/>
   <path class="fil9" d="M16244.1 134201.4l327 436.2c767.8,875.9 608.1,183.1 826.2,1202.4 1990.1,704.9 5254.4,204.2 5964.2,557.6l329 -183.7c-187.2,-254.4 1298.8,-1131.7 1645.1,-1371 461.5,-318.8 1677.6,-1100.6 1953.1,-965.1l285 -35.9 618.9 -616.9c791.4,-1036.1 1684.1,-1362 2413.9,-2200.5 113.4,-238.3 5.7,-213.8 335.7,-592.8l2195.5 -1984c537.8,-579 219.4,-373.9 902.3,-695.8 566.2,-544.6 1037.7,-833.2 1599.9,-1391.9 522.4,-519.1 1007.2,-1027.4 1481.4,-1447.7 1142.1,-1012.3 2940,-902.5 3956.8,-2082.6l-6837.5 -37 11.7 -744.6c-394.2,161.9 -588.8,270.2 -1019.5,461.2 -36.6,16.2 -315.2,129 -365.7,141.6 -731.3,181.5 -600,-248.1 -742,-473.5 -542.8,-861.7 362.5,-178.4 -1434.1,-1259.2 -99.7,-1265 130.6,-1617.3 -510.6,-2268.7 -1435.8,1026.6 -2343.7,2712.2 -3507.2,3962.1 -2151.3,2311.1 -2298.3,3689.8 -5200.9,5869.2 -792.7,595.1 -1760,626.9 -2523.9,1236 -933,743.9 -903.6,1316.5 -1505.7,2246.3 -490.1,756.8 -981.1,1243.6 -1198.6,2238.3z"/>
   <path class="fil10" d="M68551.3 140074.5l-88.9 169.7c562.9,364.1 900.3,1111.9 1188.9,1592.4 10194.8,-149.7 20457.2,-237.4 30609.5,-484.8 10164.4,-247.7 20540.4,-476.6 30650.7,-483.9 10209.4,-7.4 20481.8,-346.6 30702.9,-499.5 7067.7,-105.7 15826,-80.1 22766,-354.6 2051.1,-81.2 5450.6,423.1 6597.7,-1013.6 -3792.3,504.4 -3239.3,442.2 -7224.3,385.6l-22965.3 155.6c-5115.1,139.3 -10333,-60.3 -15465.5,40.2 -4991.2,97.8 -10496.9,-215.4 -15403.1,76 -4872.5,289.5 -10243.7,94.3 -15299.8,110.5 -15220,48.8 -30821.6,-10.6 -46068.8,306.4z"/>
   <path class="fil11" d="M93101.1 112553.1c-645.5,-850.6 -645.5,-1775.7 0,-2626.3 1009.9,-4.2 1285,339.5 1249.7,1415.7 -30.9,943.5 -357.8,1214.2 -1249.7,1210.6zm-4177.3 0c-645.5,-850.6 -645.5,-1775.7 0,-2626.3 1009.9,-4.2 1285,339.5 1249.7,1415.7 -30.9,943.5 -357.8,1214.2 -1249.7,1210.6zm1944.3 -2253.1l868.2 -208.8 0 1879.8c671.2,516.7 264.2,-96.8 560.6,638.4l-1636.6 -71.3 583 -567.8 -107.8 -1430.4c-442.3,223.6 562,246.2 -534.6,177.9 0,-757.9 -63.3,-202 267.2,-417.8zm-4177.3 0l868.2 -208.8 0 1879.8c671.2,516.7 264.3,-96.8 560.6,638.4l-1636.6 -71.3 583 -567.8 -107.8 -1430.4c-442.3,223.6 562,246.2 -534.6,177.9 0,-757.9 -63.2,-202 267.2,-417.8zm8498.9 -1297.7c-645.5,-850.5 -645.5,-1775.6 0,-2626.2 1009.9,-4.1 1285,339.5 1249.8,1415.8 -31,943.4 -357.9,1214.1 -1249.8,1210.4zm-4177.3 0c-645.4,-850.5 -645.4,-1775.6 0,-2626.2 1009.9,-4.1 1285.1,339.5 1249.8,1415.8 -31,943.4 -357.9,1214.1 -1249.8,1210.4zm-4177.2 0c-645.5,-850.5 -645.5,-1775.6 0,-2626.2 1009.8,-4.1 1285,339.5 1249.7,1415.8 -30.9,943.4 -357.8,1214.1 -1249.7,1210.4zm-2088.7 0c-645.4,-850.5 -645.4,-1775.6 0,-2626.2 1009.9,-4.1 1285.1,339.5 1249.8,1415.8 -31,943.4 -357.8,1214.1 -1249.8,1210.4zm8210.2 -2253l868.2 -208.8 0 1879.7c671.2,516.8 264.2,-96.6 560.6,638.5l-1636.7 -71.2c153.6,-359.6 -33.9,-47.7 212.2,-304.6l263.1 -1693.7c-442.2,223.6 562,246.2 -534.6,177.9 0,-757.9 -63.3,-202 267.2,-417.8zm-4177.2 0l868.2 -208.8 0 1879.7c671.2,516.8 264.1,-96.6 560.5,638.5l-1636.6 -71.2c238.8,-559.5 369.8,-197.5 438.7,-481.8 15.8,-65.3 87.9,-53.9 144.4,-86.1l-107.8 -1430.4c-442.3,223.6 561.9,246.2 -534.7,177.9 0,-757.9 -63.3,-202 267.3,-417.8zm2232.9 -1297.6c-645.4,-850.6 -645.4,-1775.7 0,-2626.2 1009.9,-4.2 1285.1,339.4 1249.8,1415.7 -31,943.5 -357.9,1214.2 -1249.8,1210.5zm-4177.2 0c-645.5,-850.6 -645.5,-1775.7 0,-2626.2 1009.8,-4.2 1285,339.4 1249.7,1415.7 -30.9,943.5 -357.8,1214.2 -1249.7,1210.5zm6121.5 -2253l868.2 -208.9 0 1879.8c671.2,516.8 264.2,-96.8 560.6,638.4l-1636.7 -71.2 583.1 -567.8 -107.8 -1430.5c-442.2,223.6 562,246.2 -534.6,177.9 0,-757.9 -63.3,-202 267.2,-417.7zm-4177.2 0l868.2 -208.9 0 1879.8c671.2,516.8 264.1,-96.8 560.5,638.4l-1636.6 -71.2 583.1 -567.8 -107.8 -1430.5c-442.3,223.6 561.9,246.2 -534.7,177.9 0,-757.9 -63.3,-202 267.3,-417.7zm-586.2 -2748.6l-644.6 244.7 10.3 833c671.2,516.7 264.3,-96.8 560.6,638.5l-1636.6 -71.3 567.2 -1255.1c-789.3,385 -1988.9,1343.2 -2309.8,1921.3 1012.6,100 1301.1,368.8 1265.2,1480.7 -32.3,1003.3 -329,1223.1 -1270.3,1218.4 -554.3,-727.9 -437.1,-936.8 -468.7,-2073.2 -356.7,467.2 -605.3,992.1 -826.8,1691.3l502.8 0 0 418.4 -629.5 -4.3 -211.5 1007.5c285,315.4 127.7,-58.5 261.2,465.1l18.9 1455.1c671.2,516.8 264.3,-96.6 559.7,611.8l-786.5 87c263.8,1164 451,2032.5 1116.5,2865.5 21.9,-1133.9 -86.2,-1343.9 463.9,-2066.3 1025.4,-5.1 1305.8,329.4 1270.3,1425.1 -31.8,982.3 -325,1210.9 -1251.8,1254.9 270,460.1 1032.7,1110.9 1666.3,1510.7 190.5,-584.7 121.4,-453.3 415.1,-840.3 1217.1,-5 1223.9,489.4 1244.2,1657.8l1059.5 208.6 -92 -1253.3c-442.3,223.5 561.9,246.2 -534.7,177.8 0,-757.8 -63.3,-201.9 267.3,-417.7l756.3 -176.4c273.7,510.4 164.9,908.8 164.9,1621.5l914.7 30.6c-111.7,-1048.8 -72.3,-1230.5 397,-1848.9 1234,-5.1 1224.8,510.8 1244.3,1689.9l1055.7 -419.5 -88.3 -657.3c-442.2,223.5 562,246.2 -534.6,177.8 0,-757.8 -63.3,-201.9 267.2,-417.7l874.3 -208.7 -37.7 802.6c969.5,-274.1 1326.6,-1087.1 2036,-1556l-991.8 -141.6c153.6,-359.6 -34.1,-47.6 212.1,-304.6 95.6,-99.8 177.6,25.1 226.6,-177.1 15.9,-65.3 87.9,-53.9 144.3,-86.1l-107.8 -1430.4c-442.2,223.6 562,246.2 -534.5,177.9 0,-757.9 -63.3,-202 267.2,-417.8l868.1 -208.8c0,725.5 -116.7,1541.3 169.1,2038.5 617,-530 1073.4,-2020 1270.8,-3082.8l-486.7 0c136.5,-514.5 -93.8,-285.1 423.7,-410.2 -73.8,-2342.7 -271.7,-1059.8 -392.3,-1571.3 -20.3,-86.6 -105.5,-69.1 -155.7,-107.2 -22.2,-497.2 -143.4,-402 338.7,-313.7 455.9,-159.4 301,-58.2 125.8,-841.4l-157.8 -424.2c-11.1,-34.1 -32.4,-91.6 -42.4,-124.7 -149.1,-492.4 -111.5,-653.2 -481,-1357.1 -221.1,1112.2 -112.3,1559.6 -1336,1554.6 -970,-1278.3 -491.3,-2128.3 439.6,-2843.1 -426.1,-493.7 -868.9,-1018.4 -1460.8,-1292.5 -290.1,172.3 -225.8,-274.7 -225.8,420.6l442.8 429.6 -1636.7 -71.3c238.9,-559.4 369.9,-197.5 438.8,-481.8 15.8,-65.2 87.9,-53.9 130.8,-85.5l-13.6 -709 -1560.6 -528.8 -7.9 1237.9c671.2,516.7 264.2,-96.8 560.6,638.5l-1636.6 -71.3 567.1 -1878.4 -1088.7 -53.3c53.2,1269.3 149.5,1952.2 -1214.9,1946.6 -444.7,-586.1 -434.4,-658.7 -462.2,-1655.1l-268.3 -4.7z"/>
   <path class="fil12" d="M73462.1 106546.5c-271,1038.3 -939.2,1085.8 -2074.9,1648.3 -2008,994.5 -5358.9,2835.1 -7443.4,3144.3l98.4 9665.3c1683.7,-493 3073.1,-1268 4947,-1925.8 649.5,-529.5 6503.4,-2820.5 7023.5,-2996.8 -918.6,-792.6 -1709.6,-3315.6 -1999.9,-4698 -540.3,-2573.6 -360,-3791 -114.3,-6306.9l-128.3 280.3 -308.1 1189.3z"/>
   <path class="fil13" d="M17616.5 140639.4c-323,584.5 -857.8,2066.4 -1262.2,2979 -714.3,1611.3 -433.1,1780.7 -684.1,3431.9 -92.8,610.3 -1926.9,4951.6 2450,5058 4049.3,98.4 4514.9,-2038.9 5334.1,-3270.4 252.5,-379.4 4359.2,-3382 4748.5,-3596.6 -316,-551.3 2.7,-166.2 -482.5,-455.9 -31.3,-18.7 -577.2,-212.6 -621,-226.8 -476,-153.9 -764.6,-229.1 -1265.8,-450.3 -292.5,198.2 -199.3,285 -747.4,-2 -407.8,-213.6 -454.8,-362.4 -691,-672.6l-1713.7 -1173.6c-1687.8,-853.4 -2674.8,-2328.4 -3901.5,-3125.3 -247.8,444 -151.2,564 -348.9,909.1 -24.8,43.4 -281.2,342.7 -298.8,357.3 -452.3,373.8 165.8,-8.9 -515.7,238.2z"/>
   <path class="fil14" d="M43569.9 113137.1l-52.3 8076c1533,-482.7 2632.2,-1921 4077.2,-2417.7 1090.2,-545.8 2392.7,-1636.2 3354.7,-2208.9 1012.6,-602.7 2847.2,-1645.3 3796,-1965.5l149.5 -160.8 -47.5 -7786.3 -131.7 -36.6c-1191.3,371.5 -4535.3,2547.6 -5611,3318.8 -1703.4,1221.1 -3184.2,2624.1 -5534.9,3181z"/>
   <path class="fil9" d="M72267.4 98268.5l-30.1 1250c966.9,-22.8 130.4,-151.7 841.1,-141.1 1170.4,17.4 272.2,-44.5 717.9,270.6 -260.5,473 -387.5,617.1 -1119.1,893.7 -450.8,170.5 -20.4,19.6 -563.5,160.9l-5714.6 28.5 -2327.1 1033.3 -41.9 8319.2c926.5,-329.3 1630.2,-645.4 2358.4,-1223.8 678.7,-539.1 1467.9,-790.4 2360.1,-1196.6 1590.4,-724.2 3448.5,-1631.7 5021.6,-2306l128.3 -280.3c41,-1435.1 771.8,-3527.7 1379.4,-4665.1 413.7,-774.3 714.5,-1261.6 1201,-1931.9 479.8,-661.1 1090.6,-1148.3 1416.2,-1818.6 -1665.4,548.6 -3909.3,1215.4 -5627.7,1607.2z"/>
   <path class="fil15" d="M99356.6 94277.9l1072.9 621.3c756.5,-655 4792.1,-2012 5790.6,-2366.9 1082.9,-384.9 2146.2,-989.8 2919.7,-1257 571.4,-197.5 919.5,-206.7 1609.2,-480.2 2754.4,-1092 2162.3,-677.4 4634.6,-1622.7l15999.8 -4875.1c1043.7,-145.8 1220.1,179.8 2600.6,-542.4 1923.4,-1006.2 1612.8,-677.1 3872.8,-1340.3 2035.6,-597.3 2554.3,-527 4888.4,-1371.4l8459.9 -1863.8c1312.7,-1076.4 3209.2,-512.1 6099.1,-1429.6l-417.7 -32.3c-1204.6,218.4 -1457.8,90.5 -2585.2,127.3 -435.8,14.2 -759.8,84.6 -1084.7,39.5 -1794.7,-249.3 1269.8,437.8 -532.9,-274.3 -835.9,-98 -2823.6,249 -3671.9,472.3 -1226.1,322.6 -4595.9,786 -5464.5,1212.4 -1487.8,730.3 -2602.7,620.5 -5112.3,1374.3 -1154.5,346.8 -2226.7,744.7 -3302.7,1069.9 -1063.5,321.4 -2446.4,520.9 -3594,831.7 -2568.9,695.7 -4078.8,1551.2 -6730,2015.2 -3137.6,549.1 -3015.9,1101.8 -6470.7,2298.8 -2242.7,777.1 -4345.7,1320.2 -6476.5,2266.9 -2418.8,1074.6 -10398.7,4720 -12504.5,5126.4z"/>
   <path class="fil16" d="M41069.2 141460.7c1565.2,-485.6 26460.5,-1586.7 27393.2,-1216.5l88.9 -169.7 223.5 -2166.3 -27694 -53.6c-442.1,1238.8 -277.6,2429.8 -11.6,3606.1z"/>
   <path class="fil17" d="M100429.5 94899.2l382.9 350.4c1796.3,212.5 2811.8,-319.8 4150.1,-698.2 1163.8,-329.1 2015.3,-1085.5 3460.6,-1321.3 -95.6,-790.7 -63.5,-415 140,-738.2l798.3 49.6c456.1,-247 993.4,-283.7 1592.3,-565.8 4620.9,-2176.7 3176.8,-710.3 4501.9,-1124.1 605.9,-457.8 606.6,-1146.1 1794.7,-953.3 824.3,133.7 -256.8,400.5 875.6,103.2 1078.9,-283.4 3690.6,-1719.7 4828.9,-1868.1 4165.5,-543.3 6644.7,-2186.5 8326.2,-2452.3 534.7,-400.1 1005.2,-391 1575.2,-606.1 2358.5,-890.2 2484.8,-785.4 4857.2,-1331.1 1321.4,-303.9 2034.2,-502.4 3419.6,-795.4 1603.1,-339 1599,-966.2 3145.7,-303.9 303.6,-556.5 -413.4,-90.3 410.5,-540.2 889.5,-485.7 5434.1,-954 6678.5,-2146.5 -345,-75.2 -3.8,63.1 -437,-137.7l-277.8 -223.1c233.1,-175.4 -189.2,-497.8 1415,-251.5l-185.5 385.3c809.9,17.9 516.6,435.6 543,-451.1 -717.3,-10.5 -521.8,8.2 -1220.3,-100.4l-8459.9 1863.8c-2334.1,844.4 -2852.8,774.1 -4888.4,1371.4 -2260,663.2 -1949.4,334.1 -3872.8,1340.3 -1380.5,722.2 -1556.9,396.6 -2600.6,542.4l-15999.8 4875.1c-2472.3,945.3 -1880.2,530.7 -4634.6,1622.7 -689.7,273.5 -1037.8,282.7 -1609.2,480.2 -773.5,267.2 -1836.8,872.1 -2919.7,1257 -998.5,354.9 -5034.1,1711.9 -5790.6,2366.9z"/>
   <path class="fil18" d="M27497.3 135586.9c-522.3,340.5 -1120,332.5 -1807.8,412.3 406.8,-1001.6 340.3,-421.1 814.8,-1149.9 -473.5,109.2 -6.1,-216.3 -632,324.4 -135.6,117.2 -288.3,321.7 -519.1,522.4 -544.4,473.5 -770.3,524.2 -1662.7,517.8l-329 183.7c198.1,948.9 227.4,2111.4 174.1,3147.2 -24.2,468.9 -71.5,1013.4 -164.2,1465.8 -174,849.3 -182.5,907.3 -690,1249.5l1713.7 1173.6 1438.4 674.6c501.2,221.2 789.8,296.4 1265.8,450.3 43.8,14.2 589.7,208.1 621,226.8 485.2,289.7 166.5,-95.4 482.5,455.9 680.7,-440.8 812.2,-131.5 2132,55.3 2210,312.9 4986,102.4 6913.2,-648.1 -3680.1,1056.9 -9585.4,35.6 -12039.4,-1929.5 7885.3,2161.3 6373.3,1542.6 13708.1,49.7 -922.2,-23.4 -2430.7,319.7 -3528.3,440.6 -3369.6,370.8 -7697.5,210 -10323.2,-1691.5 3348.7,869.6 8061.5,320 11143.1,-646.9 -3375.3,-313.8 -8071.3,981.8 -11127.3,-876.2 2381.3,-776.1 8229.1,-434.8 10137.2,-1219.2 -2698.4,-171.8 -8525.6,443.1 -10497.4,-487.8 346.8,-198.8 141.8,-115.9 634.1,-280 259.5,-86.5 365.1,-99.7 684.1,-165.6 5197.6,-1073.4 6768.1,-331 10883.9,-598.9 -2365.5,-1716.3 -7956.5,-648.9 -10921.8,-417.4 2274.3,-1310.4 8875,-2192.5 11931,-2248.8 -2053.6,-1256.3 -8017.9,896.9 -10434.8,1009.9z"/>
   <path class="fil19" d="M41069.2 141460.7l629.1 1440.6c1327,175 5409.2,-246.4 6926.4,-374.7 6763.3,-571.5 13937.8,-41.1 21026.6,-690 -288.6,-480.5 -626,-1228.3 -1188.9,-1592.4 -932.7,-370.2 -25828,730.9 -27393.2,1216.5z"/>
   <path class="fil20" d="M41080.8 137854.6l27694 53.6 908.2 -1677.6c-4381.7,-250 -9494.5,-23.3 -13962.3,-32l-13576.1 -222.1c-606.8,594.7 -837,813.6 -1063.8,1878.1z"/>
   <path class="fil21" d="M181030.1 91445.4c1637.3,3.6 3353,108.9 4912.4,-269 1013.8,-245.8 1119.9,-403 1162.2,-1536.9 135.2,-3617.8 -1528.9,-7763.8 -4018.3,-9433.3 -836.5,1786.9 -1656.3,8704.2 -2056.3,11239.2z"/>
   <path class="fil22" d="M99017.3 94022.6l339.3 255.3c2105.8,-406.4 10085.7,-4051.8 12504.5,-5126.4 2130.8,-946.7 4233.8,-1489.8 6476.5,-2266.9 3454.8,-1197 3333.1,-1749.7 6470.7,-2298.8 2651.2,-464 4161.1,-1319.5 6730,-2015.2 1147.6,-310.8 2530.5,-510.3 3594,-831.7 1076,-325.2 2148.2,-723.1 3302.7,-1069.9 2509.6,-753.8 3624.5,-644 5112.3,-1374.3 868.6,-426.4 4238.4,-889.8 5464.5,-1212.4 848.3,-223.3 2836,-570.3 3671.9,-472.3 514.6,-537.4 3340.3,-1305.8 4380.8,-875.4l688.9 -833.6c-746.3,-713.8 -6993.7,942.3 -7889.6,1130.8 -2638.3,555.3 -5327.8,1243.3 -7725.1,1895.4 -5435.1,1478.3 -10112.7,2594.4 -15104.1,4294.1 -4945.3,1684 -9498.8,2939.7 -14455.2,4983.7 -1179.6,486.5 -2208.2,953.2 -3357.9,1458.2l-6681.5 2899.3c-1143.2,492.1 -2477.6,1214.2 -3522.7,1460.1z"/>
   <path class="fil23" d="M40778.2 124989.6c-1017.3,757.4 -6492.8,4468.5 -7873.3,4726.4 -176.4,702.4 -990.8,1126.8 -2084.8,1851.9 -824.9,546.8 -1644.3,1285.8 -2627.5,1657.1l-618.9 616.9c-319.7,567.2 -458.8,726.2 -1069.4,1007.4 -474.5,728.8 -408,148.3 -814.8,1149.9 687.8,-79.8 1285.5,-71.8 1807.8,-412.3 -1087.9,228 -180.3,110.5 -537.1,-223.3 1649.4,-2019.4 2369.9,-1715.2 3371.7,-2658.5 1052.5,-991.2 2464.2,-2071.9 3832.8,-2685.5l3689 -1511.7c556.7,-295.5 1129.6,-824.7 1724.1,-1173.8 1012.6,-594.4 1020,-208.8 1788.3,-1270.6 1046.3,-1446.1 3528.1,-2329 4986.9,-3423 1728.9,-1296.4 3347.2,-2725.4 5345.8,-3674 1282.7,-608.8 2962.7,-1386.6 3039.4,-3052.5 -1866.3,808.2 -3865.6,2347.4 -5470.2,3387l-4916.7 3442.4c-1161,707.8 -2483.5,1820.1 -3573.1,2246.2z"/>
   <path class="fil24" d="M173896.6 114693.1c4006.6,0.3 8399,768.8 8402,-1891.6 2.9,-2595.9 -4733.7,-1845 -8396.8,-1844.6l-5.2 3736.2z"/>
   <path class="fil25" d="M163971.6 86393.9l-547.6 60.6 76.8 164.3c-884.8,2537.6 1450.9,5313.8 2681.7,6374.5 3108.4,2678.6 16608,4711.3 21459.3,1977.1 856.1,-482.5 1027.4,-632.6 1368.8,-1235.9 -2809.6,1041.6 -3648.8,1665.5 -7345.4,1655.8 -3650.6,-9.6 -11714.5,-967 -14480,-3197.6 -860.1,-693.8 -1441.5,-1377.5 -2029.5,-2347.1 -854.5,-1409.1 -835.8,-2090.3 -1184.1,-3451.7z"/>
   <path class="fil26" d="M164479.1 93668.7c4058.7,2770.3 6937.7,3394.8 12564.2,3924.3 2455,231 5260.4,372 7634.3,-142.3 4020.9,-871.2 4025.9,-2162.9 5374.7,-2936 261,-657.7 683.2,-1167.4 871.2,-2060.3l-386.4 381c-35.2,39.7 -74,86.7 -108.3,127.6 -151.2,180.8 -125.8,177.9 -274.1,373.1 -3352.3,4415.6 -10077.4,3715.6 -15123.2,3070.1 -6142.3,-785.9 -11441.9,-2311.2 -12524.1,-8119.7 -120.2,197.6 -122.8,124 -193.7,520.9 -265.4,1483 1713.7,3999.7 2165.4,4861.3z"/>
   <path class="fil27" d="M18381.4 138692.2c647.8,346.4 191.8,39.3 398.5,442.6 1226.7,796.9 2213.7,2271.9 3901.5,3125.3 507.5,-342.2 516,-400.2 690,-1249.5 92.7,-452.4 140,-996.9 164.2,-1465.8 53.3,-1035.8 24,-2198.3 -174.1,-3147.2 -709.8,-353.4 -3974.1,147.3 -5964.2,-557.6 -6,-0.5 -704.1,-55 -727.7,-52.6 -615,61.6 -187.3,-174.3 -489,233.9 649.8,1168 158.8,661.6 1103.4,1436.4 467.1,383 866.9,802.9 1097.4,1234.5z"/>
   <path class="fil28" d="M30180.4 118649.5c641.2,651.4 410.9,1003.7 510.6,2268.7 1796.6,1080.8 891.3,397.5 1434.1,1259.2 142,225.4 10.7,655 742,473.5 50.5,-12.6 329.1,-125.4 365.7,-141.6 430.7,-191 625.3,-299.3 1019.5,-461.2l-24.4 -6653.2c-1169.8,568.6 -1409.5,1005.3 -2143.7,1543.7l-1029.2 850.5c-525,527.2 -448.8,255.5 -874.6,860.4z"/>
   <path class="fil29" d="M50631.5 127396.4c-1390.6,586 -1708.6,1050.1 -2671.4,1904.2 174,510.7 -296.8,252 825.4,482.7 327.9,67.4 917.1,116.7 1279.5,165 1187.1,158.4 1519,116.2 2650.8,-64.5l2341.8 78 -904.2 -447.8c1069.6,-177.5 2241.8,-708.4 2549.7,-1816.4 -1454.5,-14.4 -483.2,-21.1 -866.2,-334 642.3,-57.2 925.7,-130.9 1459,-447.6l1301.5 -788.1c-373.4,-746.8 -1566.8,157.4 -2100.1,413.5 -1023.6,491.7 -7244.3,369.5 -5452.9,2863.4l371.9 403.9c-1786.1,-80.6 -1588,-1216.8 -784.8,-2412.3z"/>
   <path class="fil30" d="M131281 85681.1l884.8 -55.3c625.5,749.8 9.4,341.1 625.4,571.6 699.1,-432.3 261.7,-548.7 1011.4,-707.8 356.5,-75.7 961.3,5.7 1555.2,-146.1 1395.2,-356.3 1584.5,-807.5 2890.1,-957.5 1117.4,-128.3 1326.7,-270.2 2271,-739.3l304.8 -154.7c1090.6,-503.3 805.9,-207.6 1649.1,-247 799,-37.5 1100.6,-624.4 1566.2,320.6 37,-37.5 90.9,-151.7 109.7,-113.5 18.7,37.8 87.9,-87.6 114.7,-106 723.6,-499.2 3873.1,-914.7 4728.6,-1108.5 661.5,-149.8 1209.8,-218.3 1760.4,-349.2 132.9,-399.4 566.4,-919.3 1.1,-909.8 435.5,-334.9 329.8,-315.5 1043.2,-338.2 145.3,-173.9 155,-490.7 208.9,-662l-405.1 -20.5 -232.8 0c-1244.4,1192.5 -5789,1660.8 -6678.5,2146.5 -823.9,449.9 -106.9,-16.3 -410.5,540.2 -1546.7,-662.3 -1542.6,-35.1 -3145.7,303.9 -1385.4,293 -2098.2,491.5 -3419.6,795.4 -2372.4,545.7 -2498.7,440.9 -4857.2,1331.1 -570,215.1 -1040.5,206 -1575.2,606.1z"/>
   <path class="fil31" d="M34040 127751.9l-54.6 503.9c666,-299.9 797.8,-24.6 861.5,18.9 -912.9,608.8 -1689.9,947 -1942,1441.3 1380.5,-257.9 6856,-3969 7873.3,-4726.4 308.1,-603.4 623.8,-802.3 1263.2,-1236.4 564.3,-383 937.6,-575.8 1327.4,-970.5l-2290.7 47c-1016.8,1180.1 -2814.7,1070.3 -3956.8,2082.6 -474.2,420.3 -959,928.6 -1481.4,1447.7 -562.2,558.7 -1033.7,847.3 -1599.9,1391.9z"/>
   <path class="fil32" d="M153449.1 72300.9c265.6,-181.2 224,-98.7 490.5,-222.9l2887.1 -724.5 -865.9 -226c787.6,-552.8 720.1,-23.1 1133.1,-929.2 -1081.3,-984.5 -3558.7,39.9 -5011.9,273.1 -1604.7,257.5 -4159.8,316.5 -5021.9,1240.2 631.1,852.1 1468.8,1333.6 2929,865.6 723.5,-232 736.7,-260.1 1531.1,-376.4 1063.3,-155.7 502,-324.2 1306.7,-485.9l622.2 586z"/>
   <path class="fil33" d="M47594.8 118795.4c-776.8,852.9 -1228.4,822.8 -1536.2,1533 -420,969.3 -188.3,305.9 -811.3,1009.4 -650.1,734.1 -98.5,563.7 -1717.5,1384.7l-161 60.2c-389.8,394.7 -763.1,587.5 -1327.4,970.5 -639.4,434.1 -955.1,633 -1263.2,1236.4 1089.6,-426.1 2412.1,-1538.4 3573.1,-2246.2l4916.7 -3442.4c1604.6,-1039.6 3603.9,-2578.8 5470.2,-3387l7.3 -1293c-948.8,320.2 -2783.4,1362.8 -3796,1965.5 -962,572.7 -2264.5,1663.1 -3354.7,2208.9z"/>
   <path class="fil34" d="M181030.1 91445.4l99.5 625c2466.2,-178.3 4765.9,352.6 6923,-655.4 725.4,-1892.4 -77,-5251.2 -843.8,-6912 -910.6,-1972 -2263.3,-3875.1 -4162.5,-4581.2l40.1 284.4c2489.4,1669.5 4153.5,5815.5 4018.3,9433.3 -42.3,1133.9 -148.4,1291.1 -1162.2,1536.9 -1559.4,377.9 -3275.1,272.6 -4912.4,269z"/>
   <path class="fil34" d="M179158.9 92762.7c607.2,-214.5 297.7,792.3 610.1,-2113.3 91.9,-855.2 221.9,-1669.1 372.3,-2563.3 655.7,-3899.4 1670.9,-6847 2123.7,-9362 467.9,-2599.6 -889.5,-2839.1 -3116.4,-2602.6 2967.3,1816.2 2979.7,-1152.8 1036.8,7425 -333.7,1473.7 -1323.6,6646.3 -1401.5,8284.6 -61.9,1300 -129.5,711.9 375,931.6z"/>
   <path class="fil35" d="M135252.3 158592.1c1422.5,-3027.6 -2148.8,-4418.8 -3379,-1796 -548.1,1168.6 -127.5,2460.4 664.7,2840.2 1175.5,563.5 2396.1,-367 2714.3,-1044.2z"/>
   <path class="fil35" d="M82409.9 171750.4c1422.5,-3027.5 -2148.8,-4418.7 -3379,-1796 -548.1,1168.7 -127.5,2460.5 664.7,2840.2 1175.5,563.6 2396.1,-366.9 2714.3,-1044.2z"/>
   <path class="fil35" d="M128359.8 171541.6c1422.5,-3027.6 -2148.8,-4418.7 -3378.9,-1796 -548.2,1168.6 -127.6,2460.4 664.7,2840.2 1175.4,563.5 2396,-367 2714.2,-1044.2z"/>
   <path class="fil35" d="M94524 171750.4c1422.5,-3027.5 -2148.8,-4418.7 -3379,-1796 -548.2,1168.7 -127.5,2460.5 664.7,2840.2 1175.4,563.6 2396.1,-366.9 2714.3,-1044.2z"/>
   <path class="fil35" d="M142219.5 159174c1173.3,778.9 2361.7,1057.2 3228.4,-296.9 959.3,-1498.9 658,-2228.9 -289.1,-3417.3 -2371.2,-292.7 -3154.6,1483.1 -2939.3,3714.2z"/>
   <path class="fil35" d="M149531.2 155580.2c-2422.8,1305.2 -1510.4,5275.6 1039.1,4037.1 851.6,-413.8 1250,-1744.8 1343.4,-2845.8 98.1,-1156 -1357.9,-1743.3 -2382.5,-1191.3z"/>
   <path class="fil35" d="M161227.5 168529.7c-2422.8,1305.3 -1510.3,5275.6 1039.1,4037.1 851.7,-413.8 1250,-1744.8 1343.4,-2845.7 98.1,-1156.1 -1357.9,-1743.3 -2382.5,-1191.4z"/>
   <path class="fil36" d="M56896.9 124972.8l-2416.8 787.6c-390.4,417.8 -1481.5,731.4 -2228.9,846.5 -606.5,288.5 -1237.1,362.4 -1619.7,789.5 -803.2,1195.5 -1001.3,2331.7 784.8,2412.3l-371.9 -403.9c-1791.4,-2493.9 4429.3,-2371.7 5452.9,-2863.4 533.3,-256.1 1726.7,-1160.3 2100.1,-413.5 989.7,-538.4 65.3,-777 1893.8,-1880.7 644.1,-388.8 1754.6,-957.4 2274.4,-1417.6l-988.8 0.2c-805.9,671.6 -3629,1873.2 -4879.9,2143z"/>
   <path class="fil13" d="M64031.9 122169.8l2.5 621.9 -376.9 40.4 -891.9 -2.5c-519.8,460.2 -1630.3,1028.8 -2274.4,1417.6 -1828.5,1103.7 -904.1,1342.3 -1893.8,1880.7 -391.5,1259.1 -1959.1,1966.3 -2656.1,3178.7l385.9 105.3c478.5,-133.9 -36.5,77.1 384.6,-175.3l2157.4 -1789.9c1685.4,-1538.5 7111.8,-5455.5 7423.6,-5859 -310.4,-348 235.5,-246.6 -472.1,-166.6 -77.3,8.7 -502.4,205.3 -579.8,243.4 -416.7,205.5 -696.9,371.7 -1209,505.3z"/>
   <path class="fil37" d="M128359.8 171541.6c-318.2,677.2 -1538.8,1607.7 -2714.2,1044.2 -792.3,-379.8 -1212.9,-1671.6 -664.7,-2840.2 1230.1,-2622.7 4801.4,-1231.6 3378.9,1796zm-2758.4 -3357c1271,-1856.6 3638.8,-605.9 4386.2,-2238.5 -354,13.2 -1972.7,485.5 -2721.2,660.6 -3364.9,786.9 -3784.8,5081.9 -2299.4,6240.7 3884.1,3030.4 6995.2,-6875.8 634.4,-4662.8z"/>
   <path class="fil37" d="M121512.6 160234.2c564.4,-518.1 1180,-4201.7 1183.6,-4280l846 4264.1c1121.7,-686.4 1803.7,-3097.7 2789.3,-3938.7 -67.4,698.6 -243.3,1435.3 -405.8,2115.5 -524.4,2194.6 -290.1,1517.4 -27,1839.1 350.5,-321.7 372.5,-407.8 526.5,-1183 182.7,-919.6 1034.8,-3384.7 517.8,-4129.3 -895.7,243.1 -2520,3227.7 -3098.1,4175.4l-750 -4116.4c-1009.7,87.4 -804.2,-229.9 -1031.4,988.2 -90,482.7 -171.5,954.9 -271.7,1395.6 -125.7,553.1 -242.2,1014.5 -358.1,1545.4 -268.7,1231.6 -107.4,1092.3 78.9,1324.1z"/>
   <path class="fil38" d="M104386.8 99021.4c519.6,824.5 817.8,1323.5 1252.2,2286.1 910.8,-16.9 1942.3,-559.9 2785.4,-932.1l23.9 -3124.2 -3137.7 1179.1c-238.3,100.6 -253.6,93.8 -430.9,199 -393.2,233.3 -285.9,161.1 -492.9,392.1z"/>
   <path class="fil37" d="M142219.5 159174c-215.3,-2231.1 568.1,-4006.9 2939.3,-3714.2 947.1,1188.4 1248.4,1918.4 289.1,3417.3 -866.7,1354.1 -2055.1,1075.8 -3228.4,296.9zm-147.5 313.2c1883.2,2117.7 4402.5,261.9 4557.9,-2196.1 114.4,-1810.5 -1206.4,-3210.4 -3351.8,-2028.8 -275.6,151.8 -681.2,158.6 -782.1,-182 -22.9,-77.2 -98.5,-81.6 -158.3,-99.4 -157.1,1385.2 -1506.8,5769.6 -1326.9,6875.9l134.9 361.5c178.5,-210.8 127.9,-100.1 292.1,-453.6l245.4 -1003c120,-618.9 128.7,-745.8 388.8,-1274.5z"/>
   <path class="fil39" d="M171974.1 157920.8c886.9,-343.9 3126.5,-508.3 2787.5,985.9 -249.2,1097.9 -1823,799.7 -3140.4,785.2l352.9 -1771.1zm552.2 -2455.3c1293.4,0 1725.9,-139.9 2654.1,333.6 73,1811.3 -1346.2,1550.9 -3055,1395.2l400.9 -1728.8zm2273.9 2077.7c1034.2,-519 1156.5,-952.6 876.8,-2212.3 -1208.7,-481.9 -2127.5,-334.1 -3652.6,-329.5l-1108.2 5216.9c980.7,0 3030.1,186.1 3794.5,-265.6 1004.2,-593.5 825.5,-1772 89.5,-2409.5z"/>
   <path class="fil37" d="M161227.5 168529.7c1024.6,-551.9 2480.6,35.3 2382.5,1191.4 -93.4,1100.9 -491.7,2431.9 -1343.4,2845.7 -2549.4,1238.5 -3461.9,-2731.8 -1039.1,-4037.1zm3342.7 -658.3c-768.7,179.8 -552.6,-128.3 -747,790.1 -1443.9,-1825.8 -4182,-738.3 -4588.7,1697.5 -233.2,1396.5 146.7,2493.1 1176.5,2808.3 937.8,287.1 1098.7,105.2 1901.9,-145 1662.6,-517.9 -530.1,79 1144.4,103.8l1112.9 -5254.7z"/>
   <path class="fil37" d="M149531.2 155580.2c1024.6,-552 2480.6,35.3 2382.5,1191.3 -93.4,1101 -491.8,2432 -1343.4,2845.8 -2549.5,1238.5 -3461.9,-2731.9 -1039.1,-4037.1zm3342.6 -658.3c-768.6,179.8 -552.5,-128.3 -747,790.1 -1443.9,-1825.8 -4181.9,-738.3 -4588.7,1697.5 -233.2,1396.5 146.8,2493.1 1176.6,2808.3 937.8,287.1 1098.6,105.2 1901.9,-145 1662.6,-517.9 -530.1,79 1144.4,103.8l1112.8 -5254.7z"/>
   <path class="fil40" d="M155301.8 77299.7c302.2,-222.8 -489.6,-267.3 676.5,-305.6 1211.6,-39.8 468,138.5 682,305.6 -1360.6,800.8 -1347.3,8.3 -1358.5,0zm2451.6 -1398.7l-688.9 833.6c-1040.5,-430.4 -3866.2,338 -4380.8,875.4 1802.7,712.1 -1261.8,25 532.9,274.3 324.9,45.1 648.9,-25.3 1084.7,-39.5 1127.4,-36.8 1380.6,91.1 2585.2,-127.3 679.9,-241.3 1072.4,116.3 1535.2,364.9 68.7,-84.6 129,-104.3 302.5,-332.5 292.3,-384.7 106.9,-15.7 268.6,-458.9 -742.6,49.2 -656.3,90.7 -1188.8,-149.5l-22.6 -366.5c254.9,-1074 2225,-1003.5 3304.2,-876.4 497.6,58.7 1071.9,110 1426.5,407.7l511.4 72.5c830.7,476 92.3,240.1 894.6,699.6l1120.8 -197.8c234.2,-331.8 69,-97.5 371.8,-352.7 240.7,-202.7 36.7,44.5 352.9,-292 295.3,-314.2 357.2,-507.1 492.7,-811.6 -570.1,13.3 -678.8,-37.5 -922.4,282 -318.1,279.6 -460.2,384.9 -795.5,574.9 -862.7,-149.2 -916.3,-115.7 -1362.1,-618.3 -652.4,94.7 -1414.9,86.9 -2051,-399.4 -593.8,696.9 -45,118.3 -1336,204.2 -613.5,40.8 -1336.2,246.2 -2035.9,433.3z"/>
   <path class="fil37" d="M148412.8 170286.9c661.9,-2411.1 3671,-2988.2 3881,0l-3881 0zm3489.3 2163.6c-193.4,-28.2 -3688.6,1342.5 -3535,-1695l4431.8 -107.7c332.7,-3721.7 -3525.4,-3523.6 -4678.9,-1360.3 -1677.5,3145.9 1551.9,4955.7 3457.7,3655.9 603.5,-411.6 292,-269.7 324.4,-492.9z"/>
   <path class="fil37" d="M165539.6 157337.4c661.9,-2411.1 3671,-2988.2 3881,0l-3881 0zm3489.3 2163.6c-193.4,-28.2 -3688.6,1342.5 -3535.1,-1695l4431.9 -107.8c332.7,-3721.6 -3525.5,-3523.5 -4679,-1360.2 -1677.4,3145.9 1552,4955.7 3457.8,3655.9 603.4,-411.6 292,-269.7 324.4,-492.9z"/>
   <path class="fil12" d="M46434.5 131085.4c-244.2,815.2 -498.3,905.2 -1124.7,1393 -419,326.2 -880.7,590.8 -1365.3,903.4 -405.1,261.3 -883.9,728 -1298.1,1026.5 -669.2,482.4 -739.9,353.1 -1371.1,991.9 719.4,508.2 836,148.4 1817.5,-336 586.6,-289.6 1300,-677.3 1983.2,-944.1 1557.1,-608.1 2427,-1735.5 3863.6,-2075.1 -198.5,-332.8 -75.4,-238.2 -267.9,-466.3 -43.4,-51.4 -288.7,-303.5 -355.5,-334.9 -702.1,-329.6 -620.8,-131.2 -1104.1,150.3 -397.7,236.2 -112.7,116 -651,292.4l160.3 -851.4c-436.6,67.1 -527.8,-253.9 -286.9,250.3z"/>
   <path class="fil37" d="M88469.1 157337.4c661.9,-2411.1 3671,-2988.2 3868,0l-3868 0zm3489.3 2163.6c-193.4,-28.2 -3688.6,1342.5 -3535.1,-1695l4431.9 -107.8c139.9,-1565.8 -307.2,-2604.4 -1724,-2834.5 -3291.1,-534.6 -4234.6,3921.8 -2546.6,5067.9 751.3,510.1 3212.5,682.2 3373.8,-430.6z"/>
   <path class="fil37" d="M61734.6 170495.8c661.9,-2411.1 3671,-2988.3 3876.8,0l-3876.8 0zm3489.3 2163.6c-389.2,-56.8 -2543.1,1052.3 -3385.2,-593.6 -164.6,-321.6 -171.9,-665 -149.9,-1101.4l4431.9 -107.8c140,-1565.8 -307.3,-2604.4 -1724,-2834.5 -3826.2,-621.5 -4958.1,5969.7 -523.3,5460.3 751.8,-86.4 1277.1,-316.7 1350.5,-823z"/>
   <path class="fil37" d="M135252.3 158592.1c-318.2,677.2 -1538.8,1607.7 -2714.3,1044.2 -792.2,-379.8 -1212.8,-1671.6 -664.7,-2840.2 1230.2,-2622.8 4801.5,-1231.6 3379,1796zm650.8 -44.7c1604.8,-3781.3 -3201.6,-5171.5 -4623.4,-1912.9 -1617.5,3707.5 3233.2,5188.3 4623.4,1912.9z"/>
   <path class="fil37" d="M82409.9 171750.4c-318.2,677.3 -1538.8,1607.8 -2714.3,1044.2 -792.2,-379.7 -1212.8,-1671.5 -664.7,-2840.2 1230.2,-2622.7 4801.5,-1231.5 3379,1796zm650.8 -44.6c1604.8,-3781.3 -3201.6,-5171.5 -4623.3,-1912.9 -1617.6,3707.5 3233.1,5188.3 4623.3,1912.9z"/>
   <path class="fil37" d="M94524 171750.4c-318.2,677.3 -1538.9,1607.8 -2714.3,1044.2 -792.2,-379.7 -1212.9,-1671.5 -664.7,-2840.2 1230.2,-2622.7 4801.5,-1231.5 3379,1796zm650.7 -44.6c1604.9,-3781.3 -3201.6,-5171.5 -4623.3,-1912.9 -1617.5,3707.5 3233.1,5188.3 4623.3,1912.9z"/>
   <path class="fil41" d="M139385.7 90792.8l570.6 -1.4c-764.6,38.3 -23.9,-102.3 -365.9,290.7 977.4,-201.7 1043.3,-481.7 1775.8,-711l3878.1 -878.5c395,-48 712.9,11.7 1093.5,-59.2 68.2,-12.7 117.1,-17.8 184.9,-36.2l887.9 -462 -1129.2 52.6 104.3 -722.8c1.7,-34.1 -21.8,-941.8 -19.9,-958.6 75,-652 -101.8,-291.1 258.3,-586.5 569.5,248.2 443.9,388.7 1141.7,694.5 466.9,204.6 1027.3,297.7 1511.1,388.6 439.2,-293 222.4,-95.9 516,-412.8 396.4,-428 131.2,-145.2 414,-571.6 -3121.6,-91.4 -977,-324.6 -2319.2,-535.6 -484.7,-76.2 -216.3,218.2 -753.4,-142.6 318.6,-43.9 863.3,-535.6 1244.2,-978.9 -986.9,-9.1 -1437.3,281.6 -2035.2,911.2 -1178.9,1241.1 578.1,1223.6 -946.7,1743.6 59.7,57 161.9,56.4 190.1,158.7l278.4 214.2c9.7,5.4 62.6,23.8 70.2,27 2.9,1.2 22,-16.1 23.8,-15.8 2.5,0.6 0.3,-29.4 -8.4,-39.9 -891.8,482.6 158.7,508.4 -844,883.9 -871.2,326.1 -1797.2,247.5 -2939.6,732.6l-2005.6 608.5c-592.7,137.2 -427,-5.1 -775.8,407.3z"/>
   <path class="fil37" d="M131001.4 172078.9c116.4,-718.5 268.7,-1393.4 456,-2155.8 661,-2691.6 352.9,-1646.4 80.6,-1992.7 -288.7,265.1 -176.7,51.1 -368.3,515.7l-436.6 2041.4c-205.5,901.7 -402.4,1757.2 -568.5,2696.2 958.6,-105.4 885.6,-226.5 1353.8,-871.8 415,-572.1 424.9,-581.9 988.6,-1099.4 413.2,-379.4 604.3,-643.2 960.1,-1124.8 129.8,-175.7 343.2,-478.8 465.4,-594.6 482.7,-456.8 56.3,-131.8 603.7,-411.5 -123.2,788.2 -279.9,1485.9 -465.8,2262.8 -538,2249.1 -292.2,1513.8 -26,1839.3 634.3,-624.8 1217.1,-4452 1373.4,-5312.3 -1439.5,346.4 -3027.6,3077.6 -4416.4,4207.5z"/>
   <path class="fil37" d="M69595.7 159129.3c116.3,-718.4 268.7,-1393.4 455.9,-2155.7 661,-2691.7 352.9,-1646.4 80.7,-1992.7 -371.7,341.2 -343.4,310.5 -508.1,1169.3 -95.4,497.4 -191.5,925.4 -296.9,1387.8 -205.5,901.7 -402.4,1757.2 -568.4,2696.2 958.5,-105.4 885.5,-226.5 1353.7,-871.9 207.1,-285.4 2481.1,-2956 3017.9,-3230.2l-712.9 3297.4c-74,1226.3 -131.7,373.4 221,804.7 539.9,-531.8 642.5,-1808.8 808.7,-2575 202.1,-932.6 391.8,-1785.5 564.7,-2737.3 -1439.5,346.4 -3027.5,3077.6 -4416.3,4207.4z"/>
   <path class="fil37" d="M107399.9 172287.7c116.3,-718.4 268.7,-1393.4 455.9,-2155.7 661.1,-2691.7 352.9,-1646.4 80.7,-1992.7 -617.5,566.9 -1233.2,4460.4 -1373.4,5253.3 958.6,-105.4 885.6,-226.5 1353.7,-871.9 207.1,-285.4 2481.1,-2956 3017.9,-3230.2 -123.2,788.2 -280,1485.8 -465.8,2262.7 -538.1,2249.1 -292.2,1513.9 -26,1839.4 284.8,-280.5 108.7,47.8 336.7,-513l471.9 -2062.1c202.1,-932.6 391.9,-1785.4 564.8,-2737.3 -1439.6,346.5 -3027.6,3077.7 -4416.4,4207.5z"/>
   <path class="fil37" d="M116172.1 172287.7c116.4,-718.4 268.7,-1393.4 456,-2155.7 661,-2691.7 352.9,-1646.4 80.7,-1992.7 -288.8,265 -176.8,51.1 -368.4,515.6l-1005 4737.7c958.6,-105.4 885.6,-226.5 1353.7,-871.9 207.1,-285.4 2481.1,-2956 3017.8,-3230.2l-712.8 3297.3c-74.1,1226.4 -131.7,373.5 221.1,804.8 539.7,-531.8 642.4,-1808.8 808.5,-2575.1 202.1,-932.6 391.9,-1785.4 564.8,-2737.3 -1439.5,346.5 -3027.5,3077.7 -4416.4,4207.5z"/>
   <path class="fil37" d="M101551.7 172287.7c116.4,-718.4 268.8,-1393.4 456,-2155.7 661,-2691.7 352.9,-1646.4 80.7,-1992.7 -288.8,265 -176.8,51.1 -368.4,515.6l-1005 4737.7c1403.7,-154.3 727.2,-488.6 2342.3,-1971.2l1425.6 -1719.4c482.5,-456.8 56.1,-131.9 603.6,-411.5 -123.1,788.2 -280,1485.8 -465.8,2262.7 -538.1,2249.1 -292.2,1513.9 -26,1839.4 634.3,-624.8 1217.1,-4452.1 1373.4,-5312.4 -1439.5,346.5 -3027.5,3077.7 -4416.4,4207.5z"/>
   <path class="fil37" d="M105520.1 159129.3c116.4,-718.4 268.7,-1393.4 456,-2155.7 661,-2691.7 352.8,-1646.4 80.7,-1992.7 -288.8,265 -176.8,51.1 -368.3,515.7l-436.7 2041.4c-205.5,901.7 -402.4,1757.2 -568.5,2696.2 958.6,-105.4 885.6,-226.5 1353.8,-871.9 207.1,-285.4 2481.1,-2956 3017.8,-3230.2 -123.1,788.2 -280,1485.8 -465.8,2262.7 -538.1,2249.1 -292.2,1513.9 -26,1839.4 284.8,-280.5 108.8,47.8 336.7,-513l1036.7 -4799.3c-1294.7,311.6 -1790.6,1389.6 -2428.3,2159.9 -409.9,495.2 -626.3,557 -1056.2,1022.4 -413.4,447.6 -456.9,638.7 -931.9,1025.1z"/>
   <path class="fil37" d="M47038.4 159129.3c116.4,-718.4 268.8,-1393.4 456,-2155.7 74,-301.6 202.8,-681.8 252.1,-1025.8 225.7,-1576.6 153.4,-553.7 -171.4,-966.9 -288.8,265 -176.8,51.1 -368.3,515.7 -3.2,7.7 -139.3,650.9 -139.8,653.6l-865.3 4084c1403.7,-154.3 727.2,-488.6 2342.3,-1971.2l1425.5 -1719.4c482.7,-456.8 56.3,-131.8 603.7,-411.5 -123.1,788.2 -280,1485.8 -465.8,2262.7 -538.1,2249.1 -292.2,1513.9 -26,1839.4 539.8,-531.8 642.5,-1808.8 808.6,-2575 202.2,-932.6 391.9,-1785.5 564.8,-2737.3 -1439.5,346.4 -3027.5,3077.6 -4416.4,4207.4z"/>
   <path class="fil37" d="M75443.8 159129.3c116.4,-718.4 268.7,-1393.4 456,-2155.7 661,-2691.7 352.8,-1646.4 80.7,-1992.7 -288.8,265 -176.8,51.1 -368.3,515.7l-1005.2 4737.6c958.6,-105.4 885.6,-226.5 1353.8,-871.9 207.1,-285.4 2481,-2956 3017.8,-3230.2 -123.1,788.2 -279.9,1485.8 -465.8,2262.7 -538.1,2249.1 -292.2,1513.9 -26,1839.4 284.8,-280.5 108.8,47.8 336.7,-513l471.9 -2062c202.2,-932.6 391.9,-1785.5 564.8,-2737.3 -1439.5,346.4 -3027.6,3077.6 -4416.4,4207.4z"/>
   <path class="fil37" d="M36804.1 159129.3c116.4,-718.4 268.7,-1393.4 456,-2155.7 661,-2691.7 352.9,-1646.4 80.7,-1992.7 -617.5,566.9 -1233.3,4460.5 -1373.4,5253.3 958.5,-105.4 885.5,-226.5 1353.7,-871.9l2414.1 -2818.7c482.7,-456.8 56.3,-131.8 603.7,-411.5 -123.1,788.2 -279.9,1485.8 -465.8,2262.7 -33.6,140.5 -241.8,948.8 -247,1034.7 -74.1,1226.3 -131.7,373.4 221,804.7 284.8,-280.5 108.8,47.8 336.7,-513l1036.7 -4799.3c-1439.5,346.4 -3027.5,3077.6 -4416.4,4207.4z"/>
   <path class="fil42" d="M64030.1 110083.6l-27.8 564.9c1267.6,-269.2 3525.5,-1381.1 4721.3,-1950.4 1407.6,-670.1 3258.6,-1762.3 4738.5,-2151.6l308.1 -1189.3c-1573.1,674.3 -3431.2,1581.8 -5021.6,2306 -892.2,406.2 -1681.4,657.5 -2360.1,1196.6 -728.2,578.4 -1431.9,894.5 -2358.4,1223.8z"/>
   <path class="fil43" d="M151205.1 79179.4c698.5,108.6 503,89.9 1220.3,100.4 -26.4,886.7 266.9,469 -543,451.1l-281.9 227 405.1 20.5c938.7,-21.6 1503.9,-202.8 2718.9,-174.1 313.9,-901.9 1198.8,-404.9 2222.6,-525.7 1112.2,-131.4 1355.6,-191.9 1978.5,-942.5 -716.4,-168.8 -437.7,38.7 -503.9,-253.7 -462.8,-248.6 -855.3,-606.2 -1535.2,-364.9l417.7 32.3c-2889.9,917.5 -4786.4,353.2 -6099.1,1429.6z"/>
   <path class="fil37" d="M116334.2 155039.9c170.7,1445.9 549.1,2867.6 821.4,4312.9 429.2,2278.3 -1616.3,2313 -1924.7,2745.3 196.8,142 32.6,134.4 476.8,210.9 198.6,34.1 457.7,129.6 968.2,-233.2 715,-508.3 4458.9,-6656.4 4643.8,-7138.1 -919.4,76.7 -774.7,174.6 -1224.2,939l-2135.9 3533.5c-395.1,-578.8 -489.4,-1648.5 -638.5,-2495.7 -445,-2527 -177.7,-1871.1 -986.9,-1874.6z"/>
   <path class="fil44" d="M111149.4 100852.4l938.4 -160.1c-1468.5,761.4 -4129.8,2140 -5743.3,2585.9l73.6 728.9c386.3,-135.8 794.7,-249.3 1295.4,-386.3 1821.8,-498.5 2688.7,-1256.4 3429.2,-1608.9 2042.6,-972.1 2791.8,-1373.7 5469.5,-1373.7 -46.3,-60.4 240.5,-527.3 -1782.3,-292.3 -1665.8,193.5 -3930.3,91 -5849.1,140.6 -1208.3,42.7 -240.3,-71.6 -653.6,413.7l2822.2 -47.8z"/>
   <path class="fil37" d="M33998.9 160234.2c697.4,-289.8 184,444.5 581.1,-722l1155.4 -6427.3c-5.4,-70.5 -36.8,-93.3 -65.6,-133.6 -680.4,290.5 -957.3,2619 -1105.4,3446.3 -601.3,121.9 -1163.6,241.5 -1814.2,215.5 -2653.5,-105.9 -833.7,-2735.1 -1257.6,-3654.3 -598.9,183.2 -222.4,-376.5 -593.1,621.8 -1128.4,3039.4 246.1,3988.3 3501.3,3430.7 -110.9,627.9 -231.5,1189.1 -367.1,1811.3l-34.8 1411.6z"/>
   <path class="fil37" d="M138221.5 172786c-1545.8,59.5 -1486.9,-876.3 -2290.9,-453.6 198.2,618.1 -286,104.8 451.1,584.1 559.4,363.8 4222.6,1197.3 4123.9,-1719.2l-910.3 -744.7c1912.3,-459.7 1930.4,-2182.8 381.7,-2568.3 -658.9,-164 -1356.1,-119.8 -2015,18.7 -827.1,174 -1261.9,241.7 -1113.9,999.1 1327.5,-521.2 2124.8,-1093.6 3468.7,-120.4 182.8,1932.5 -1470.2,1211.2 -2859,1535.3l-303.1 135.6c913.2,872.7 1157.5,-188.9 2722,777.3 33.4,1146.7 -465.1,1510.3 -1655.2,1556.1z"/>
   <path class="fil37" d="M145531.9 173183.7c398.7,-392.1 354.4,-490.9 552.1,-1367.5 232.7,-1032.2 915.1,-3273.5 701,-3893 -637.4,226 -35.3,-342.1 -476.4,369.8l-567.8 1870 -2800.3 -8.6 459.4 -2224c-938.9,258.8 -276.9,-311.3 -733.4,539.6l-770 3400.4c-288.4,1247.1 -102.1,1075.7 84.7,1313.3 287.3,-260.8 178.5,-51.8 376.5,-509.4l485 -1937.9 2823.1 0c-46.6,459.2 -159.2,847.9 -250.6,1290 -264.8,1281 34.8,1057.8 116.7,1157.3z"/>
   <path class="fil37" d="M102714.9 160234.2c296.3,-291.4 42.1,97.7 275.1,-363.7 249.8,-494.5 1166.8,-4350.4 978.1,-4896.8 -637.5,225.9 -35.3,-342.2 -476.5,369.8l-567.7 1870 -2800.4 -8.6 459.4 -2224c-938.9,258.8 -276.9,-311.3 -733.4,539.6l-896.2 4090.7c15.4,681.8 -102.6,224.2 211,623 648.9,-589.1 410.9,-1222.6 864.8,-2447.3l2819.8 0c-46.6,459.2 -159.3,847.9 -250.7,1290 -264.7,1281 34.8,1057.7 116.7,1157.3z"/>
   <path class="fil37" d="M75980.5 173392.6c296.2,-291.4 42,97.7 275,-363.7 141.2,-279.6 -104.2,358.5 119.3,-306.2 50.2,-149.5 117.7,-520.2 157.8,-697.7 103.2,-457.8 217.9,-921.7 314.9,-1357.8 171.5,-771 603,-1907.2 386.1,-2535.2 -637.4,226 -35.3,-342.1 -476.4,369.8l-567.8 1870.1 -2800.3 -8.6 459.4 -2224c-933.2,257.2 -451.3,-394.9 -1172.3,2588.3 -289.5,1198.4 -694.6,2094.9 -246.4,2665 377.2,-342.5 352.1,-307.9 533.3,-1178.9 88,-422.2 209.9,-940.3 334.8,-1268.5l2816.5 0c-46.7,459.2 -159.3,848 -250.7,1290.1 -264.7,1280.9 34.8,1057.7 116.8,1157.3z"/>
   <path class="fil37" d="M158106.8 160279.5c2145.4,-176.7 1994.5,-3152.2 3089.8,-4782.9l2059.1 -7.2c-48.2,798.7 -279,1599 -455,2388.6 -87.2,391 -213.7,812.2 -293.2,1205.2 -244.5,1207.9 97.9,1085.9 151.1,1151 635.8,-626.2 1218.7,-4462.5 1373,-5328 -3473.1,85.2 -3268.4,-285 -3846.9,1382.1 -1565.2,4511.5 -1645.1,2699.2 -2077.9,3991.2z"/>
   <path class="fil37" d="M65986.8 157236.1c634.4,-389.8 763.2,-534.6 1393,-1022.5l1032.1 -867.8c257.1,-276.7 104.3,-81.1 332.4,-408.1 -882.9,41.3 -851.2,127.3 -1413.5,602.7l-2867.2 2201c98.8,-523.1 195.6,-933.1 312.4,-1436.2 298.1,-1284.1 131.8,-1073.9 -74.1,-1324.3 -541.9,533.7 -622.1,1788.9 -796.8,2558.2 -278,1224.6 -690.5,2144.2 -247.6,2695.1 734,-673.8 245.3,-784.3 633.5,-1481.9 230.7,-414.5 544.8,-422.2 1023.7,-995 1545.2,1459.3 785.9,2356.8 2372.4,2476.9 -407.7,-1032.3 -1365.3,-1994.4 -1700.3,-2998.1z"/>
   <path class="fil37" d="M113189.9 157236.1c661,-406.1 2245,-1563.9 2757.5,-2298.4 -1570.9,73.6 -2880.5,2118.8 -4280.7,2803.7l447.1 -2129.5c-7.3,-688 125.4,-224.7 -208.9,-631 -560.1,551.7 -920.1,3056.2 -1117.7,3926.7 -290,1276.6 -128.2,1075.9 73.4,1326.6 733.9,-673.8 245.3,-784.3 633.5,-1481.9 230.7,-414.5 544.8,-422.2 1023.7,-995 1545.2,1459.3 785.9,2356.8 2372.4,2476.9 -407.7,-1032.3 -1365.4,-1994.4 -1700.3,-2998.1z"/>
   <path class="fil37" d="M56323.9 159564.3c50.3,-149.5 117.8,-520.2 157.8,-697.7 232.7,-1032.1 915.1,-3273.4 701.1,-3892.9 -637.5,225.9 -35.4,-342.2 -476.5,369.8l-567.8 1870 -2800.3 -8.6 459.4 -2224c-938.9,258.8 -277,-311.3 -733.4,539.6l-896.2 4090.7c15.4,681.8 -102.6,224.2 210.9,623 670,-608.3 391.3,-1240.4 874.6,-2447.3l2810 0c-46.6,459.2 -159.2,847.9 -250.6,1290 -264.8,1281 34.8,1057.7 116.7,1157.3l394.3 -669.9z"/>
   <path class="fil37" d="M83542.7 173437.9c2145.4,-176.7 1994.5,-3152.2 3089.7,-4782.9l2059.1 -7.2c-48.1,798.7 -279,1598.9 -455,2388.6 -87.1,390.9 -213.6,812.1 -293.2,1205.1 -244.4,1207.9 98,1086 151.2,1151.1 345.3,-340.1 310.7,-319.9 512.1,-1202.3l860.8 -4125.8c-3473.1,85.3 -3268.4,-284.9 -3846.8,1382.1 -1565.2,4511.5 -1645.2,2699.3 -2077.9,3991.3z"/>
   <path class="fil37" d="M177575.7 159682.7c-78.1,-700.8 162.6,-1567.8 417.6,-2061.7 1211.6,0 1745.7,-148.8 2570.3,340.9 367.3,2112.3 -1242.8,1720.8 -2987.9,1720.8zm435.4 -2613.2c612.9,-3081.5 467.3,-1625.7 103.4,-2088.6 -288.7,265 -176.7,51.1 -368.3,515.7l-1005 4737.6c820.9,0 2864.1,119.7 3525.8,-167.1 788,-341.6 1165.8,-1328.5 891.8,-2250.6 -785.3,-997.6 -1714.8,-747 -3147.7,-747z"/>
   <path class="fil17" d="M64002.3 110648.5l-58.5 690.6c2084.5,-309.2 5435.4,-2149.8 7443.4,-3144.3 1135.7,-562.5 1803.9,-610 2074.9,-1648.3 -1479.9,389.3 -3330.9,1481.5 -4738.5,2151.6 -1195.8,569.3 -3453.7,1681.2 -4721.3,1950.4z"/>
   <path class="fil12" d="M100812.4 95249.6l1670.6 1393.5c935.5,-275.5 2247.2,-803.9 2976.4,-1343.6 607.1,-449.4 2143.6,-1023.4 2958.6,-1196.4l5.1 -873c-1445.3,235.8 -2296.8,992.2 -3460.6,1321.3 -1338.3,378.4 -2353.8,910.7 -4150.1,698.2z"/>
   <path class="fil45" d="M181129.6 92070.4l-99.5 -625c400,-2535 1219.8,-9452.3 2056.3,-11239.2l-40.1 -284.4 877.5 -2480.7c-16.6,-612.7 0.6,-963.8 -282,-1489.6 -318.2,-592.2 -396.1,-542.1 -787.2,-778.3 1138.3,2970 -89.4,2787.3 -1009,8560.8 -486.8,3056.9 -964.1,6245.6 -1418.1,9254.5 994.5,-318.1 53.2,334.9 702.1,-918.1z"/>
   <path class="fil37" d="M96359.9 157503.1c607.1,-962.6 1614.3,-1737 2312.5,-2491.3 -1342.4,-121.1 -1013.1,984.3 -2641.1,1960.7l-746.2 -1215.7c-354.7,-659.6 -272.8,-643.3 -1096.8,-747.6l1305.2 2493.9c-347.7,597.7 -714.9,923.6 -1244.6,1352.8 -339.8,275.4 -408.8,284.3 -679.8,561.1 -474.7,484.8 -292.3,250.6 -567.7,817.2 1413.7,-142.5 1528.9,-1285.5 2821,-2200.5l295.6 409.2c1035.3,1596.3 404.9,1696.7 1637.4,1755.3l-1395.5 -2695.1z"/>
   <path class="fil37" d="M157857 172300.6c-505.1,-97.2 -993.4,928.2 -2340.9,282.6 -1542.6,-739 -1017.7,-3434.7 581.6,-4102.7 1275.6,-532.7 2232.4,697 2357,408.7 19.1,-44.3 98.6,4.7 146.9,-3.2 68.8,-626 -18.4,-761.8 -898.3,-995.8 -1596.4,-424.4 -3203.7,399.5 -3634.9,2160.9 -880.1,3594.6 3144.7,3723.3 3805,2717.9 504.7,-768.3 55.5,-316.4 -16.4,-468.4z"/>
   <path class="fil37" d="M69625.5 170661.5c607,-962.6 1614.2,-1737 2312.5,-2491.3 -1342.5,-121.1 -1013.2,984.3 -2641.2,1960.7 -1128.3,-1201.3 -373,-1777.3 -1843,-1963.3l1305.2 2493.9c-615.5,1058.3 -1353.3,1330.6 -1924.4,1913.8 -474.7,484.9 -292.3,250.7 -567.7,817.3 1088.5,-109.8 1225.7,-646.7 2219.7,-1661.2 395.5,-403.8 112,-192.8 601.4,-539.3l295.6 409.1c301.3,464.7 -217.8,-382.5 165,273.7 157.5,270 230.5,443.4 354.7,678.7 465,880.3 232.7,760.9 1117.6,803l-1395.4 -2695.1z"/>
   <path class="fil37" d="M157648.1 159351.1c-505.1,-97.2 -993.3,928.1 -2340.9,282.6 -1542.5,-739 -1017.6,-3434.8 581.7,-4102.7 1275.5,-532.8 2232.3,697 2356.9,408.7 19.2,-44.3 98.6,4.7 146.9,-3.2 150.6,-1370.1 -2071.3,-1137.8 -2642.7,-959 -949.4,297.2 -1633.6,1074.6 -1890.5,2124.1 -880.1,3594.6 3144.7,3723.2 3805.1,2717.9 504.6,-768.3 55.4,-316.4 -16.5,-468.4z"/>
   <path class="fil37" d="M187006.6 157503.1c607,-962.6 1614.2,-1737 2312.5,-2491.3 -874,-78.8 -992.9,325 -1394.7,818.3 -439.4,539.5 -668.9,796 -1246.5,1142.4l-477.6 -660.7c-587.2,-1031.8 -262.8,-1163.1 -1365.4,-1302.6l1305.2 2493.9c-347.6,597.7 -714.8,923.6 -1244.6,1352.8 -776.7,629.4 -856.4,573.6 -1247.5,1378.3 1413.7,-142.5 1529,-1285.5 2821.1,-2200.5 1326.2,1676.3 526.2,2097.6 1932.9,2164.5l-1395.4 -2695.1z"/>
   <path class="fil37" d="M61988.8 159351.1c-505.1,-97.2 -993.4,928.1 -2340.9,282.6 -1542.6,-739 -1017.7,-3434.8 581.7,-4102.7 1177.2,-491.7 1769.9,219.8 1960.2,311.5 886,427.1 -770.4,-237.7 256.3,88 25,7.9 122.1,51.6 140.4,9.2 19.1,-44.3 98.5,4.7 146.9,-3.2 68.8,-626 -18.4,-761.8 -898.3,-995.8 -3666.1,-974.7 -4933.3,4216.6 -2480.5,5216.1 900.2,366.8 2333.4,145.6 2650.6,-337.3 504.7,-768.3 55.5,-316.4 -16.4,-468.4z"/>
   <path class="fil46" d="M161221.8 78836.3c231.6,918.2 445.2,197.6 -25.2,656.3 -758.7,-1053.4 -184,-419.5 -13.8,-672.2l-941.3 -79c365.5,1254 622.3,1197.8 1902.6,878.2 1588.6,-396.6 1096,-58.9 2281.9,27.5 -1426.7,664.9 -944.8,178.1 -1361.2,873.3l736.1 453.6c758.4,404.3 316.2,423.7 1534.7,515.9 -292,-195.4 -134.3,-291.1 -291.5,-524.9 2196.3,202.7 642.7,-1209.8 -143.2,-1774.9l-1781.3 -367.7c-540.8,289.6 -404.1,-51 -719.8,12.9 -568.6,115.2 441.6,-393 -195.9,140.1 -1570.4,1313.4 1356.1,-526.8 -395.4,362.7 -207.9,-488.5 404.7,-237.9 -586.7,-501.8z"/>
   <path class="fil47" d="M163624.2 77252.9c-165,1060.8 -1969.3,659.7 -2844.3,598 386.1,758.7 -521.5,264 721.5,701.9 -622.8,2.6 -14.1,-28.7 -279.6,283.5 991.4,263.9 378.8,13.3 586.7,501.8 1751.5,-889.5 -1175,950.7 395.4,-362.7 637.5,-533.1 -372.7,-24.9 195.9,-140.1 315.7,-63.9 179,276.7 719.8,-12.9 809.3,-694.4 1706.5,36.2 3022.4,18.6 47.6,-1340.7 31.4,-188 431,-1255.2l-1259.4 -288.8 97.1 -416 -371.8 -0.4 -681.4 525.3 -236.8 -78.7c-2.6,-446 67.8,-54.7 -496.5,-74.3z"/>
   <path class="fil48" d="M47212.1 131394.1c483.3,-281.5 402,-479.9 1104.1,-150.3 66.8,31.4 312.1,283.5 355.5,334.9 192.5,228.1 69.4,133.5 267.9,466.3 1654.4,-721.4 1062.4,-630.4 3155.9,-900.6 398.8,-51.4 2788.1,-592.3 3074.9,-735.1l-2 -504.5 -110.8 57 -2341.8 -78c-916.8,1575.3 -3712.2,673.7 -5060.4,533.3l-443.3 977z"/>
   <path class="fil49" d="M171483.6 75016.3l458.4 -33.2 1203.6 211.2c422.2,-340.9 652.8,-657 1070.9,-950.8 645.2,-453.3 1076.3,-366.6 1656.2,-664.3 -1709.4,52.4 -4731.4,-523.2 -6072.8,587.5 146.3,216.9 93.2,341.9 819.1,619 37.6,14.3 780.7,207.3 864.6,230.6z"/>
   <path class="fil12" d="M103051.5 97350.5c757.4,852.4 243.3,546.5 2872.5,-500.7 2831.4,-1127.9 2500.7,-645.5 2523.5,-2147.3l-4908 1978.9c-454.8,324.7 -323.6,113.8 -488,669.1z"/>
   <path class="fil35" d="M165539.6 157337.4l3881 0c-210,-2988.2 -3219.1,-2411.1 -3881,0z"/>
   <path class="fil35" d="M148412.8 170286.9l3881 0c-210,-2988.2 -3219.1,-2411.1 -3881,0z"/>
   <path class="fil35" d="M61734.6 170495.8l3876.8 0c-205.8,-2988.3 -3214.9,-2411.1 -3876.8,0z"/>
   <path class="fil35" d="M88469.1 157337.4l3868 0c-197,-2988.2 -3206.1,-2411.1 -3868,0z"/>
   <path class="fil17" d="M52251.2 126606.9c747.4,-115.1 1838.5,-428.7 2228.9,-846.5 454.8,-564.3 -66.3,-70.3 410,-411.7 1187.9,-851.3 2371.1,-1264.8 3895,-1680.4 319.1,-30.3 472.7,-41.3 836.4,-252.1 458.6,-265.9 327.1,-220.7 577.9,-541.2l-2143.4 -33.1 -4377.2 2526.1c-822.4,484.1 -1101.9,341.1 -1427.6,1238.9z"/>
   <path class="fil35" d="M177575.7 159682.7c1745.1,0 3355.2,391.5 2987.9,-1720.8 -824.6,-489.7 -1358.7,-340.9 -2570.3,-340.9 -255,493.9 -495.7,1360.9 -417.6,2061.7z"/>
   <path class="fil50" d="M172734.7 71270.8l-1925.4 334c625.5,1379.5 4506.6,1511.8 4708.3,137 4,-27.1 12.2,-92.5 12.1,-118.8 -1,-403.1 -17.8,-354.8 -383.4,-540.6 -288.6,-146.6 -625,-196.1 -867.9,-284.3 -196.3,183.4 -77.1,167.7 -431,362.4 -224.8,123.6 -105.2,89.2 -495.9,170.6 -415.8,86.6 -385.3,34.1 -616.8,-60.3z"/>
   <path class="fil35" d="M171974.1 157920.8l-352.9 1771.1c1317.4,14.5 2891.2,312.7 3140.4,-785.2 339,-1494.2 -1900.6,-1329.8 -2787.5,-985.9z"/>
   <path class="fil51" d="M182677.3 72091.8c-372.1,13.3 -414.1,55.9 -799.9,-16.8 -818.2,-154.4 -183.6,-45.2 -488.9,-224.5l-1317 18.7 1007.7 800.3c408.7,277.3 980.2,311 1440.7,428.6 513.9,131.2 956.1,329.1 1472.5,409.2 654.6,101.6 1210.1,89.9 1674.7,-176 -203.2,-404.5 -11.6,-430.2 -1235.5,-887.6 -689.8,-257.9 -947.4,-287.8 -1754.3,-351.9z"/>
   <path class="fil43" d="M163424 86454.5l547.6 -60.6c1123.4,-219.4 1192.7,125.4 1455.9,-893.9l-5978.2 823.9c-516.7,104.8 -1115.9,147.7 -1530,463l-251.5 265.8c-33.9,34.6 -81.8,100.9 -118.5,154.3l5874.7 -752.5z"/>
   <path class="fil17" d="M46721.4 130835.1l-160.3 851.4c538.3,-176.4 253.3,-56.2 651,-292.4l443.3 -977c1348.2,140.4 4143.6,1042 5060.4,-533.3 -1131.8,180.7 -1463.7,222.9 -2650.8,64.5 -362.4,-48.3 -951.6,-97.6 -1279.5,-165 -1122.2,-230.7 -651.4,28 -825.4,-482.7 -842.7,555.9 -676.9,644.1 -1167.3,1432.3 -11.7,18.9 -43.5,71.4 -71.4,102.2z"/>
   <path class="fil37" d="M96120 173392.6c777.9,-205.1 601.3,193.1 820.9,-1009l836.2 -3735.8c3005.4,0 2549.2,324.2 2923.8,-579.9l-3464.7 77.1 -1116.2 5247.6z"/>
   <path class="fil37" d="M83692.5 154980.9c348.2,495.5 -177.4,343.6 616.6,531.2 27.4,6.5 637.5,0.4 755.5,8.2 -71.5,943.9 -901.7,3845.3 -842.6,4465.7 2.4,25.1 46.9,147.3 49.9,121 3.2,-27.2 41.5,79.8 63.1,119.2 758.5,-362.7 457.6,-496.5 855.5,-2275.6 155,-693.4 348.3,-1844.5 608.2,-2461.2l1535.3 0 45 -581 -3686.5 72.5z"/>
   <path class="fil32" d="M157398.3 70461.5c1659.8,600.4 785,521.7 2365.3,-27.7 807.6,-280.8 1978.4,-281.2 2474.5,-862.1 -153.3,-202.5 -102.1,-431.8 -1030.2,-459 -1214.5,-35.6 -3284.6,303.1 -3809.6,1348.8z"/>
   <path class="fil41" d="M40681.5 135116.4l593.8 283.8c631.2,-638.8 701.9,-509.5 1371.1,-991.9 414.2,-298.5 893,-765.2 1298.1,-1026.5 484.6,-312.6 946.3,-577.2 1365.3,-903.4 626.4,-487.8 880.5,-577.8 1124.7,-1393l-2431.7 1543c-897,732.8 -1272,528.2 -2426.9,1319.7 -1531.3,1049.5 -1115.4,840.7 -894.4,1168.3z"/>
   <path class="fil35" d="M172125.4 157194.3c1708.8,155.7 3128,416.1 3055,-1395.2 -928.2,-473.5 -1360.7,-333.6 -2654.1,-333.6l-400.9 1728.8z"/>
   <path class="fil37" d="M42337.6 154980.9c427.7,608.7 -293.7,430 1372.1,539.4 -57.9,763.5 -315.8,1673.6 -476,2462.3l-316.7 2124.4c3.2,-27.2 41.5,79.8 63.1,119.2 597.4,-285.7 446.6,-167 621.2,-1079.9l840.8 -3656.9 1537 0 45 -581 -3686.5 72.5z"/>
   <path class="fil37" d="M56958 168139.3c427.7,608.7 -293.7,430 1372.1,539.4 -57.9,763.4 -315.7,1673.5 -475.9,2462.3l-316.8 2124.4c3.2,-27.2 41.5,79.8 63.1,119.2 758.5,-362.7 457.6,-496.5 855.4,-2275.7 155.1,-693.4 348.4,-1844.4 609.9,-2461.1l1533.7 0 45 -581 -3686.5 72.5z"/>
   <path class="fil37" d="M137370.3 154980.9c427.7,608.7 -293.7,430 1372.1,539.4 -57.8,763.5 -315.7,1673.6 -475.9,2462.3l-316.7 2124.4c3.1,-27.2 41.4,79.8 63,119.2 1016.9,-486.2 572.6,-2622 1463.7,-4736.8l1535.3 0 45 -581 -3686.5 72.5z"/>
   <path class="fil52" d="M68989.2 119078.6l1013.3 -242.3c441.6,328 103.9,132.5 351.2,528.1 751.3,-140.6 45.6,57 509.7,-159.6 33.3,-15.5 105.9,-37.7 130.3,-106.8 24.9,-70.7 79.2,-83.1 120.1,-123.4 276,-402.1 508.3,-447.1 1124.6,-717.8l3916.7 -1672.7 -142.4 -502.3c-520.1,176.3 -6374,2467.3 -7023.5,2996.8z"/>
   <path class="fil53" d="M106259.4 102842.5l4890 -1990.1 -2822.2 47.8c-683.3,-43.8 -1661.3,597.3 -2431.2,802.5l363.4 1139.8z"/>
   <path class="fil54" d="M68989.2 119078.6c-1873.9,657.8 -3263.3,1432.8 -4947,1925.8l-9.7 783.7c773.5,-250.5 1231.1,-549.6 2013.5,-941.1 760.3,-380.4 1376.1,-601.9 2011.4,-918.9 245.5,160.5 62.7,127.3 168.7,406.9l2127.6 -970.6c-247.3,-395.6 90.4,-200.1 -351.2,-528.1l-1013.3 242.3z"/>
   <path class="fil55" d="M161125.3 75263.5c636.1,486.3 1398.6,494.1 2051,399.4l1970.2 -426.9c389.6,422.5 157.4,51.6 187.4,470.3 243.6,-319.5 352.3,-268.7 922.4,-282 507.3,-316.6 318.8,-71.4 629.6,-640.1 -926.7,-196.7 -417.3,-432.4 -1500.6,-274.3 -562.7,82 -542.6,322.5 -1187.1,309.7 -556.7,-11 -1413.5,-220.2 -2296.1,63.4l-776.8 380.5z"/>
   <path class="fil56" d="M158992.8 77291l116.2 78 831.5 85.7 2.9 -780.6 639.7 -54.6 706.4 -199 1159.3 -164.1 63.3 49.9c-354.6,-297.7 -928.9,-349 -1426.5,-407.7 -1079.2,-127.1 -3049.3,-197.6 -3304.2,876.4l22.6 366.5c532.5,240.2 446.2,198.7 1188.8,149.5z"/>
   <path class="fil57" d="M160583.1 76619.5l-639.7 54.6 -2.9 780.6 -831.5 -85.7 403.9 1046.6 358.5 157.4 370.1 168.4 941.3 79 39 15.9c265.5,-312.2 -343.2,-280.9 279.6,-283.5 -1243,-437.9 -335.4,56.8 -721.5,-701.9l-171.6 -97.7c823.5,1.8 476.5,24.4 644.6,-155.4 299.9,-600.5 81,-464.7 1103.8,-716.9 203.2,-352.4 266.8,-188.1 92.1,-624.5l-1159.3 164.1c-336.1,357.3 132.1,123.1 -394.5,324.3 -596.2,227.8 -216,-34.2 -311.9,-125.3z"/>
   <path class="fil58" d="M164900.9 79190.1c785.9,565.1 2339.5,1977.6 143.2,1774.9 157.2,233.8 -0.5,329.5 291.5,524.9 861.6,12 459.1,447.7 297.1,801.2 715.1,-62.2 414.4,-193.2 900.2,181.8 311.4,-253.9 199.5,-77.6 530.6,-559.9 204,-297.4 265.8,-472.8 438.3,-857.9l-903.8 -209.7 467.4 -615.7c-1139.2,-329 259.3,422.3 -1279.5,-1357.7l-885 318.1z"/>
   <path class="fil59" d="M154724.5 79804.3c1493.7,-151.3 1332.3,69.9 2696.4,105.3 1228.7,31.8 1191.9,-64.1 2313.7,-538 60.3,-163.1 78.5,-363 136.8,-798.6l-358.5 -157.4 -587.3 -79.5c-622.9,750.6 -866.3,811.1 -1978.5,942.5 -1023.8,120.8 -1908.7,-376.2 -2222.6,525.7z"/>
   <path class="fil50" d="M160867.7 73033.6c1310.7,102.6 3735.1,286.8 4686.4,-537.8 -215.1,-187.4 13.1,-108.9 -410,-244.4 -844.5,-270.7 -2369.9,-186 -3298.3,49 -980.2,248.1 -628.3,66.9 -978.1,733.2z"/>
   <path class="fil22" d="M43517.6 121213.1l12.2 1509.4c1619,-821 1067.4,-650.6 1717.5,-1384.7 623,-703.5 391.3,-40.1 811.3,-1009.4 307.8,-710.2 759.4,-680.1 1536.2,-1533 -1445,496.7 -2544.2,1935 -4077.2,2417.7z"/>
   <path class="fil37" d="M182083 160234.2c681.8,-370.8 570.2,-1140.3 919.3,-2660.4l466.7 -2063.3c35,-561.8 -51.4,-409.5 -132.9,-580.7 -451,243.5 -327.9,-351.9 -663.1,1309.4l-604.8 2752c-311.3,1315.3 -149.7,958.8 14.8,1243z"/>
   <path class="fil60" d="M85141.7 104223.1l-26 -215.7 460.4 -103.3 -162.7 829.6c-271.9,485.1 110.1,160.1 -474.3,334.2l202.6 -844.8zm-26 -215.7l-304.7 212.8c8,-235.4 -50.2,-468.8 58.4,-701.8 221.1,-474.3 25,-158.2 533.5,-277.7l-287.2 766.7zm-849.1 -620.3c31.6,1136.4 -85.6,1345.3 468.7,2073.2 941.3,4.7 1238,-215.1 1270.3,-1218.4 35.9,-1111.9 -252.6,-1380.7 -1265.2,-1480.7 -40.5,32.2 -109.7,23.1 -124.1,93.4 -14.3,70 -95.9,79.6 -113.8,104.9 -207.3,292.5 -95.5,89.6 -235.9,427.6z"/>
   <path class="fil61" d="M64039.5 100646.7l2359.6 84.4 5714.6 -28.5 123.6 -1184.1 30.1 -1250c-134.9,-1703.6 399.5,-4370.1 -206.9,-5757.7l-40 7926.8 -7981 209.1z"/>
   <path class="fil60" d="M85141.7 111324.4l-26 -215.6 460.4 -103.4 -162.7 829.7c-234.2,327.3 -41.5,205.2 -520.9,320l249.2 -830.7zm-26 -215.6l-304.7 212.7c8,-235.3 -50.2,-468.8 58.4,-701.7 221.1,-474.3 25,-158.3 533.5,-277.8l-287.2 766.8zm-844.3 875.7c312.2,624.6 -207.6,-154.3 155,284.5 404.4,489.4 27.1,68.3 327.4,329.2 926.8,-44 1220,-272.6 1251.8,-1254.9 35.5,-1095.7 -244.9,-1430.2 -1270.3,-1425.1 -550.1,722.4 -442,932.4 -463.9,2066.3z"/>
   <path class="fil36" d="M55057.6 129961.8l110.8 -57 887.2 -191.1c459.8,-59.4 138.1,32.7 271.6,-301.8l-385.9 -105.3c697,-1212.4 2264.6,-1919.6 2656.1,-3178.7l-1301.5 788.1c-533.3,316.7 -816.7,390.4 -1459,447.6 383,312.9 -588.3,319.6 866.2,334 -307.9,1108 -1480.1,1638.9 -2549.7,1816.4l904.2 447.8z"/>
   <path class="fil62" d="M95570.3 104223.1l-13.1 -219.8 431.6 -135.5c100.8,782.6 175.8,259.8 -128.2,881.5 -241.3,332.1 -39.8,197.9 -535.1,316.2l244.8 -842.4zm-13.1 -219.8l-317.9 230.1c37.5,-1165 130.7,-821.3 374.3,-1036 134.9,242.8 129.8,-29.2 127.3,381.3 -0.3,41.2 -167,393.4 -183.7,424.6zm968.5 -106.2c-386.6,-775.6 -411.6,-761.9 -896.4,-1288.5 -930.9,714.8 -1409.6,1564.8 -439.6,2843.1 1223.7,5 1114.9,-442.4 1336,-1554.6z"/>
   <path class="fil63" d="M30606.5 131024.5c1075,-440 1305.5,-1055.3 2298.4,-1308.5 252.1,-494.3 1029.1,-832.5 1942,-1441.3 -63.7,-43.5 -195.5,-318.8 -861.5,-18.9l54.6 -503.9c-682.9,321.9 -364.5,116.8 -902.3,695.8l-2195.5 1984c-330,379 -222.3,354.5 -335.7,592.8z"/>
   <path class="fil62" d="M95570.3 107773.7l-13.1 -219.7 431.6 -135.5c100.8,782.6 175.8,259.8 -128.2,881.4 -241.3,332.2 -39.8,198 -535.1,316.3l244.8 -842.5zm-13.1 -219.7l-317.9 230.1c37.5,-1165 130.7,-821.3 374.3,-1036.1 134.9,243 129.8,-29.1 127.3,381.4 -0.3,41.1 -167,393.4 -183.7,424.6zm-367.5 1448.3c891.9,3.7 1218.8,-267 1249.8,-1210.4 35.2,-1076.3 -239.9,-1419.9 -1249.8,-1415.8 -645.5,850.6 -645.5,1775.7 0,2626.2z"/>
   <path class="fil62" d="M87215.8 107773.7l-13.1 -219.7 431.6 -135.5c100.8,782.6 175.8,259.8 -128.2,881.4 -241.3,332.2 -39.8,198 -535.2,316.3l244.9 -842.5zm-13.1 -219.7l-318 230.1c37.6,-1165 130.8,-821.3 374.4,-1036.1 134.9,243 129.8,-29.1 127.2,381.4 -0.2,41.1 -166.9,393.4 -183.6,424.6zm-367.5 1448.3c891.9,3.7 1218.8,-267 1249.7,-1210.4 35.3,-1076.3 -239.9,-1419.9 -1249.7,-1415.8 -645.5,850.6 -645.5,1775.7 0,2626.2z"/>
   <path class="fil62" d="M87215.8 104223.1l-13.1 -219.8 431.6 -135.5c100.8,782.6 175.8,259.8 -128.2,881.5 -241.3,332.1 -39.8,197.9 -535.2,316.2l244.9 -842.4zm-13.1 -219.8l-318 230.1c37.6,-1165 130.8,-821.3 374.4,-1036 134.9,242.8 129.8,-29.2 127.2,381.3 -0.2,41.2 -166.9,393.4 -183.6,424.6zm-367.5 1448.4c891.9,3.7 1218.8,-267 1249.7,-1210.5 35.3,-1076.3 -239.9,-1419.9 -1249.7,-1415.7 -645.5,850.5 -645.5,1775.6 0,2626.2z"/>
   <path class="fil62" d="M85127.2 107773.7l-13.2 -219.7 431.6 -135.5c100.9,782.6 175.9,259.8 -128.2,881.4 -241.2,332.2 -39.7,198 -535.1,316.3l244.9 -842.5zm-13.2 -219.7l-317.9 230.1c10.9,-340.2 -55.5,-363.8 73.8,-713.6 174.4,-471.8 22.2,-77.2 300.5,-322.5 135,243 129.9,-29.1 127.3,381.4 -0.3,41.1 -167,393.4 -183.7,424.6zm-367.5 1448.3c892,3.7 1218.8,-267 1249.8,-1210.4 35.3,-1076.3 -239.9,-1419.9 -1249.8,-1415.8 -645.4,850.6 -645.4,1775.7 0,2626.2z"/>
   <path class="fil62" d="M93481.7 111324.4l-13.2 -219.7 431.6 -135.6c100.9,782.6 175.9,259.9 -128.1,881.5 -241.3,332.1 -39.8,197.9 -535.2,316.3l244.9 -842.5zm-13.2 -219.7l-317.8 230c10.9,-340.1 -55.6,-363.8 73.7,-713.4 174.4,-471.9 22.2,-77.3 300.6,-322.6 83.1,149.6 303.7,133.2 -56.5,806zm-367.4 1448.4c891.9,3.6 1218.8,-267.1 1249.7,-1210.6 35.3,-1076.2 -239.8,-1419.9 -1249.7,-1415.7 -645.5,850.6 -645.5,1775.7 0,2626.3z"/>
   <path class="fil62" d="M91393.1 107773.7l-13.2 -219.7 431.7 -135.5c100.8,782.6 175.8,259.8 -128.2,881.4 -241.3,332.2 -39.8,198 -535.2,316.3l244.9 -842.5zm-13.2 -219.7l-317.9 230.1c11,-340.2 -55.6,-363.8 73.7,-713.6 174.5,-471.8 22.3,-77.2 300.6,-322.5 83.1,149.6 303.8,133.3 -56.4,806zm-367.5 1448.3c891.9,3.7 1218.8,-267 1249.8,-1210.4 35.3,-1076.3 -239.9,-1419.9 -1249.8,-1415.8 -645.4,850.6 -645.4,1775.7 0,2626.2z"/>
   <path class="fil62" d="M91393.1 104223.1l-13.2 -219.8 431.7 -135.5c100.8,782.6 175.8,259.8 -128.2,881.5 -241.3,332.1 -39.8,197.9 -535.2,316.2l244.9 -842.4zm-13.2 -219.8l-317.9 230.1c11,-340.1 -55.6,-363.8 73.7,-713.5 174.5,-471.8 22.3,-77.2 300.6,-322.5 83.1,149.5 303.8,133.2 -56.4,805.9zm-367.5 1448.4c891.9,3.7 1218.8,-267 1249.8,-1210.5 35.3,-1076.3 -239.9,-1419.9 -1249.8,-1415.7 -645.4,850.5 -645.4,1775.6 0,2626.2z"/>
   <path class="fil62" d="M89304.5 111324.4l-13.2 -219.7 431.6 -135.6c100.8,782.6 175.9,259.9 -128.2,881.5 -241.2,332.1 -39.7,197.9 -535.2,316.3l245 -842.5zm-13.2 -219.7l-317.9 230c10.9,-340.1 -55.6,-363.8 73.7,-713.4 174.5,-471.9 22.3,-77.3 300.6,-322.6 83.1,149.6 303.8,133.2 -56.4,806zm-367.5 1448.4c891.9,3.6 1218.8,-267.1 1249.7,-1210.6 35.3,-1076.2 -239.8,-1419.9 -1249.7,-1415.7 -645.5,850.6 -645.5,1775.7 0,2626.3z"/>
   <path class="fil51" d="M153449.1 72300.9l-111.7 187.6 724.2 327.7c-941,187.2 -984.2,609.2 -1094.8,829.3 504.1,124.9 4193.4,-491 4383.7,-672l121.2 -230.4c-964.5,-37 -670.1,164.4 -1675.1,121 -198.7,-287.6 -109.6,-198.5 -243.8,-627.1 -478.4,344.1 -585.5,-122.4 -258.3,819.2l-1151.8 225.3c454.1,-305.2 302.3,-244.8 553.2,-629.5 -818.5,-341.4 -402.8,26.6 -756.3,-574 -266.5,124.2 -224.9,41.7 -490.5,222.9z"/>
   <path class="fil50" d="M155552.8 72237c134.2,428.6 45.1,339.5 243.8,627.1 1005,43.4 710.6,-158 1675.1,-121l282.7 -113.1 652.2 -417 -15.1 -545.8c-489.5,22.4 -1203.2,-60 -1584.4,-22.8 -597.1,58.3 -793.2,342 -1254.3,592.6z"/>
   <path class="fil64" d="M146942.1 73757.5l165.7 656.9c8.7,29.2 37.4,104.1 45,128 7.8,24.6 29.3,88.5 50,130.2 591.9,-45.7 625.6,-93.1 1102.3,-170.3 199.4,-32.3 358.2,-28.2 556.8,-87 390.2,-115.4 322.7,-112.8 510.7,-244.6l501.8 -467.7 -551 -385.9 -2381.3 440.4z"/>
   <path class="fil52" d="M106259.4 102842.5l85.1 435.7c1613.5,-445.9 4274.8,-1824.5 5743.3,-2585.9l-938.4 160.1 -4890 1990.1z"/>
   <path class="fil65" d="M30606.5 131024.5c-729.8,838.5 -1622.5,1164.4 -2413.9,2200.5 983.2,-371.3 1802.6,-1110.3 2627.5,-1657.1 1094,-725.1 1908.4,-1149.5 2084.8,-1851.9 -992.9,253.2 -1223.4,868.5 -2298.4,1308.5z"/>
   <path class="fil66" d="M54715.8 106637.3l131.7 36.6 24.6 -6106 -8211.9 -67.9c847.1,405.4 7052.9,190.2 8027.3,190.2l28.3 5947.1z"/>
   <path class="fil67" d="M146206.7 73751.5c-762.2,-40.5 -418.8,8.9 -1023.7,92.5l-319 57.1c-346.6,9.8 -238.8,-7.7 -421.4,-87.8 -798.7,-367.5 -1817.4,-639.9 -2261.7,353.4 362.6,225 -307.5,-24 414.9,229 70.8,24.8 460.1,111.6 461.6,111.7 311.6,23.5 551.2,-71.2 1021.9,-124.7l1568.2 -241.5c657.6,-284.8 316,-162.4 559.2,-389.7z"/>
   <path class="fil36" d="M64032.5 121788.1l-0.6 381.7c512.1,-133.6 792.3,-299.8 1209,-505.3 77.4,-38.1 502.5,-234.7 579.8,-243.4 707.6,-80 161.7,-181.4 472.1,166.6 704.5,-323.2 1246.1,-726.9 1933.3,-1252.7 -106,-279.6 76.8,-246.4 -168.7,-406.9 -635.3,317 -1251.1,538.5 -2011.4,918.9 -782.4,391.5 -1240,690.6 -2013.5,941.1z"/>
   <path class="fil56" d="M166162.1 76360.2c766.5,-15.6 889.8,-311.3 1786.7,-404.1 777.1,-80.5 1327.7,-46.6 2043.2,-217.3 -246.8,-370.9 -103.9,-483.1 -1124.5,-615.7 -557.7,-72.6 -1183.8,-109.3 -1747.1,-134.3l625 347.7c29.1,17 89.1,55.8 134.2,82.8 -1870.5,556.4 -747.5,115.3 -1717.5,940.9z"/>
   <path class="fil54" d="M58785.1 123668.3c-426.8,527.2 -259.7,325.7 -937.1,637.3 -43.2,19.8 -411.2,188.2 -428.5,199.1 -503.8,318.8 -272,190.8 -522.6,468.1 1250.9,-269.8 4074,-1471.4 4879.9,-2143l-1577.4 45.2c-250.8,320.5 -119.3,275.3 -577.9,541.2 -363.7,210.8 -517.3,221.8 -836.4,252.1z"/>
   <path class="fil51" d="M158391.5 71667.2l15.1 545.8 1740 284 866.1 -873.9c-312.2,-271.5 -389.5,-148.8 -1081.2,-149.8l268.8 -674c-942.4,440.9 -750.3,677.2 -1808.8,867.9z"/>
   <path class="fil68" d="M23690.5 136213.9c892.4,6.4 1118.3,-44.3 1662.7,-517.8 230.8,-200.7 383.5,-405.2 519.1,-522.4 625.9,-540.7 158.5,-215.2 632,-324.4 227,-497.4 -79.5,-60.1 354.8,-572.4 81.2,-95.7 310,-277.5 429.6,-399.1 -275.5,-135.5 -1491.6,646.3 -1953.1,965.1 -346.3,239.3 -1832.3,1116.6 -1645.1,1371z"/>
   <path class="fil62" d="M93224.1 106989.2l-263.1 1693.7c-246.1,256.9 -58.6,-55 -212.2,304.6l1636.7 71.2c-296.4,-735.1 110.6,-121.7 -560.6,-638.5l0 -1879.7 -868.2 208.8c-87.3,350 -131.4,232.8 267.4,239.9z"/>
   <path class="fil62" d="M89304.5 100881.3l-1.1 -206.2 419.5 -149.1c100.8,782.6 175.9,259.8 -128.2,881.4 -241.2,332.2 -39.7,198 -535.2,316.3l245 -842.4zm834.2 -718l-644.4 2.8 -190.9 509 -361.1 248.9 4.3 -672.2 -753.3 198.3 268.3 4.7c27.8,996.4 17.5,1069 462.2,1655.1 1364.4,5.6 1268.1,-677.3 1214.9,-1946.6z"/>
   <path class="fil62" d="M91379.9 114446.5l-317.9 230.1c37.5,-1165 130.7,-821.4 374.3,-1036.1 83.1,149.6 303.8,133.3 -56.4,806zm-764.5 671l655.5 17.4 113.7 -501.5 -4.7 -186.9 448.5 -137.9 84.7 724.3 343.6 -74.4c-19.5,-1179.1 -10.3,-1695 -1244.3,-1689.9 -469.3,618.4 -508.7,800.1 -397,1848.9z"/>
   <path class="fil51" d="M149323.4 73317.1l551 385.9 -501.8 467.7c895.4,9 1757.8,93.9 2599.6,-247.9 51.4,-20.9 121.8,-64.7 163.2,-83.3 42,-18.9 108.9,-59.1 162.3,-90.5l-1435.9 -317.3 163.4 -498.6c-926.4,302.1 -602.7,329.1 -1701.8,384z"/>
   <path class="fil52" d="M54480.1 125760.4l2416.8 -787.6c250.6,-277.3 18.8,-149.3 522.6,-468.1 17.3,-10.9 385.3,-179.3 428.5,-199.1 677.4,-311.6 510.3,-110.1 937.1,-637.3 -1523.9,415.6 -2707.1,829.1 -3895,1680.4 -476.3,341.4 44.8,-152.6 -410,411.7z"/>
   <path class="fil48" d="M78061.4 153878.2c-1332.3,40.1 -1129.3,-667 -1679,-582.8 1.4,7.3 -474,1126.1 1677.1,1043.3 617.2,-23.8 1773.6,-276.3 1777.3,-1109.7 -518.9,131.1 -942.1,624.2 -1775.4,649.2z"/>
   <path class="fil62" d="M89046.9 106989.2l107.8 1430.4c-56.5,32.2 -128.6,20.8 -144.4,86.1 -68.9,284.3 -199.9,-77.7 -438.7,481.8l1636.6 71.2c-296.4,-735.1 110.7,-121.7 -560.5,-638.5l0 -1879.7 -868.2 208.8c-87.3,350 -131.5,232.8 267.4,239.9z"/>
   <path class="fil48" d="M110017.5 167036.6c-1332.4,40.1 -1129.4,-667 -1679,-582.8 40.9,206.8 -477.2,394.4 470.9,832.5 748.3,345.8 1767.2,271.5 2470.5,-164.7 637.3,-395.2 510.7,-204.4 513,-734.2 -519,131.1 -942.1,624.2 -1775.4,649.2z"/>
   <path class="fil62" d="M93224.1 103438.5l107.8 1430.5 -583.1 567.8 1636.7 71.2c-296.4,-735.2 110.6,-121.6 -560.6,-638.4l0 -1879.8 -868.2 208.9c-87.3,349.9 -131.4,232.7 267.4,239.8z"/>
   <path class="fil62" d="M89046.9 103438.5l107.8 1430.5 -583.1 567.8 1636.6 71.2c-296.4,-735.2 110.7,-121.6 -560.5,-638.4l0 -1879.8 -868.2 208.9c-87.3,349.9 -131.5,232.7 267.4,239.8z"/>
   <path class="fil62" d="M86958.2 110539.9l107.8 1430.4 -583 567.8 1636.6 71.3c-296.3,-735.2 110.6,-121.7 -560.6,-638.4l0 -1879.8 -868.2 208.8c-87.2,350 -131.4,232.7 267.4,239.9z"/>
   <path class="fil62" d="M91135.5 110539.9l107.8 1430.4 -583 567.8 1636.6 71.3c-296.4,-735.2 110.6,-121.7 -560.6,-638.4l0 -1879.8 -868.2 208.8c-87.3,350 -131.4,232.7 267.4,239.9z"/>
   <path class="fil62" d="M91744.2 100289.9l-516.8 -73.3 -567.1 1878.4 1636.6 71.3c-296.4,-735.3 110.6,-121.8 -560.6,-638.5l7.9 -1237.9z"/>
   <path class="fil62" d="M95312.7 110539.9l107.8 1430.4c-56.4,32.2 -128.4,20.8 -144.3,86.1 -49,202.2 -131,77.3 -226.6,177.1 -246.2,257 -58.5,-55 -212.1,304.6l991.8 141.6c282,-303 121.4,-101.6 253.3,-550 -285.8,-497.2 -169.1,-1313 -169.1,-2038.5l-868.1 208.8c-87.3,350 -131.4,232.7 267.3,239.9z"/>
   <path class="fil69" d="M166256.3 75424.3c-135.5,304.5 -197.4,497.4 -492.7,811.6 -316.2,336.5 -112.2,89.3 -352.9,292 -302.8,255.2 -137.6,20.9 -371.8,352.7l371.8 0.4c571,-124.5 529.3,-18.5 751.4,-520.8 970,-825.6 -153,-384.5 1717.5,-940.9 -45.1,-27 -105.1,-65.8 -134.2,-82.8l-625 -347.7 -234.5 -204.6c-310.8,568.7 -122.3,323.5 -629.6,640.1z"/>
   <path class="fil63" d="M72237.3 99518.5l-123.6 1184.1c543.1,-141.3 112.7,9.6 563.5,-160.9 731.6,-276.6 858.6,-420.7 1119.1,-893.7 -445.7,-315.1 452.5,-253.2 -717.9,-270.6 -710.7,-10.6 125.8,118.3 -841.1,141.1z"/>
   <path class="fil67" d="M161012.7 71623.1c952.3,-334.9 765.8,-68.8 1014.8,-848.4 -658.6,-141.5 -1165.9,-242.1 -1827.2,24.6l-268.8 674c691.7,1 769,-121.7 1081.2,149.8z"/>
   <path class="fil62" d="M86420.1 114108.9l445.3 239c112.9,-478.5 -7,-148.9 169.3,-499 525.7,-1043.9 -794.7,654.7 224.4,-208.4 83.8,150.9 301,121.9 -58.4,829.3l438.5 -145.8 -28 428.1 468.2 174.3c-20.3,-1168.4 -27.1,-1662.8 -1244.2,-1657.8 -293.7,387 -224.6,255.6 -415.1,840.3z"/>
   <path class="fil33" d="M163176.3 75662.9c445.8,502.6 499.4,469.1 1362.1,618.3 335.3,-190 477.4,-295.3 795.5,-574.9 -30,-418.7 202.2,-47.8 -187.4,-470.3l-1970.2 426.9z"/>
   <path class="fil70" d="M172087.8 76694.5l835.7 -475.4 -1116 -111.2c5.6,-777.2 416.1,-240.9 134.5,-1124.8l-458.4 33.2c-109,559.3 -278.7,692.6 -418.4,1217.1 448.5,344.7 304.9,277.9 1022.6,461.1z"/>
   <polygon class="fil24" points="64072,101764.4 66399.1,100731.1 64039.5,100646.7 "/>
   <path class="fil62" d="M87050.2 100839.9l-567.2 1255.1 1636.6 71.3c-296.3,-735.3 110.6,-121.8 -560.6,-638.5l-10.3 -833 -498.5 145.1z"/>
   <path class="fil71" d="M161252.9 77597.8c-168.1,179.8 178.9,157.2 -644.6,155.4l171.6 97.7c875,61.7 2679.3,462.8 2844.3,-598l-728.3 14.5 -1643 330.4z"/>
   <path class="fil64" d="M16180.6 136021.3c301.7,-408.2 -126,-172.3 489,-233.9 23.6,-2.4 721.7,52.1 727.7,52.6 -218.1,-1019.3 -58.4,-326.5 -826.2,-1202.4l-327 -436.2c-88.8,703.3 -245,1255.2 -63.5,1819.9z"/>
   <path class="fil51" d="M172734.7 71270.8c231.5,94.4 201,146.9 616.8,60.3 390.7,-81.4 271.1,-47 495.9,-170.6 353.9,-194.7 234.7,-179 431,-362.4 -618.2,-220.5 -2248.9,-1187.4 -1543.7,472.7z"/>
   <path class="fil40" d="M172923.5 76219.1l222.1 -1024.8 -1203.6 -211.2c281.6,883.9 -128.9,347.6 -134.5,1124.8l1116 111.2z"/>
   <path class="fil72" d="M139590.4 91082.1c342,-393 -398.7,-252.4 365.9,-290.7l-570.6 1.4c-853.4,65.2 -1782.4,491.9 -2200.8,918.4 654.5,306.4 1830,-308.9 2405.5,-629.1z"/>
   <path class="fil73" d="M162895.9 77267.4l728.3 -14.5c564.3,19.6 493.9,-371.7 496.5,74.3l236.8 78.7 681.4 -525.3 -1120.8 197.8c-802.3,-459.5 -63.9,-223.6 -894.6,-699.6l-357.7 295.3c233.5,657.2 -208.8,474.4 230.1,593.3z"/>
   <path class="fil74" d="M17616.5 140639.4c681.5,-247.1 63.4,135.6 515.7,-238.2 17.6,-14.6 274,-313.9 298.8,-357.3 197.7,-345.1 101.1,-465.1 348.9,-909.1 -206.7,-403.3 249.3,-96.2 -398.5,-442.6l-764.9 1947.2z"/>
   <path class="fil62" d="M93942.7 101736.7c-188,-203 -225.2,188.5 -187.3,-695.6l-450.6 -222.4 13.6 709c-42.9,31.6 -115,20.3 -130.8,85.5 -68.9,284.3 -199.9,-77.6 -438.8,481.8l1636.7 71.3 -442.8 -429.6z"/>
   <path class="fil62" d="M83154.9 109119l786.5 -87c-295.4,-708.4 111.5,-95 -559.7,-611.8l-18.9 -1455.1c-133.5,-523.6 23.8,-149.7 -261.2,-465.1l53.3 2619z"/>
   <path class="fil62" d="M89046.9 113881.7l92 1253.3 410.4 30.9 -13.5 -1700.5 -756.3 176.4c-87.3,350 -131.5,232.7 267.4,239.9z"/>
   <path class="fil75" d="M161252.9 77597.8l1643 -330.4c-438.9,-118.9 3.4,63.9 -230.1,-593.3l357.7 -295.3 -511.4 -72.5 -63.3 -49.9c174.7,436.4 111.1,272.1 -92.1,624.5 -1022.8,252.2 -803.9,116.4 -1103.8,716.9z"/>
   <path class="fil73" d="M151367.7 79957.9l232.8 0 281.9 -227 185.5 -385.3c-1604.2,-246.3 -1181.9,76.1 -1415,251.5l277.8 223.1c433.2,200.8 92,62.5 437,137.7z"/>
   <path class="fil42" d="M158655.1 73454.6c732.5,-324 253.2,113.7 378.9,-467.1l-1279.6 -357.5 -282.7 113.1 -121.2 230.4 504.8 117.2c1514.2,461.5 -1169.4,-545.4 406.3,115.8l393.5 248.1z"/>
   <path class="fil56" d="M155301.8 77299.7c11.2,8.3 -2.1,800.8 1358.5,0 -214,-167.1 529.6,-345.4 -682,-305.6 -1166.1,38.3 -374.3,82.8 -676.5,305.6z"/>
   <polygon class="fil76" points="167501.8,81055.1 167695.5,80765.5 167726.3,80172.4 167065.4,80229.7 166598,80845.4 "/>
   <path class="fil61" d="M158421.7 78082.4c66.2,292.4 -212.5,84.9 503.9,253.7l587.3 79.5 -403.9 -1046.6 -116.2 -78c-161.7,443.2 23.7,74.2 -268.6,458.9 -173.5,228.2 -233.8,247.9 -302.5,332.5z"/>
   <path class="fil77" d="M97290.4 108636.7c302.3,-556.7 200.4,-502.8 202.9,-1260.7l-8.8 -488.8c-818.2,-3.9 -83.5,46.9 -403.4,-242.7 -482.1,-88.3 -360.9,-183.5 -338.7,313.7 50.2,38.1 135.4,20.6 155.7,107.2 120.6,511.5 318.5,-771.4 392.3,1571.3z"/>
   <path class="fil62" d="M93224.1 113881.7l88.3 657.3 480.9 -303.3 37.7 -802.6 -874.3 208.7c-87.3,350 -131.4,232.7 267.4,239.9z"/>
   <path class="fil72" d="M146385.7 88265c47.6,-32.1 111.6,-73.9 141.5,-97.9l440.4 -822.6c-23.6,-25 -81.3,-71.5 -104.5,-99.4l-239 -525.2c-360.1,295.4 -183.3,-65.5 -258.3,586.5 -1.9,16.8 21.6,924.5 19.9,958.6z"/>
   <path class="fil42" d="M181388.5 71850.5c305.3,179.3 -329.3,70.1 488.9,224.5 385.8,72.7 427.8,30.1 799.9,16.8 -388.5,-484.1 -239.3,-492.9 -1012.1,-621.2l-276.7 379.9z"/>
   <path class="fil78" d="M172377 90334.7l-2182.4 -739.9c389.7,367.6 1529.2,1120.1 2182.4,739.9z"/>
   <path class="fil47" d="M55168.4 129904.8l2 504.5c970.6,-251.8 517.7,-7.1 885.2,-695.6l-887.2 191.1z"/>
   <path class="fil54" d="M25833.5 144108.3l-1438.4 -674.6c236.2,310.2 283.2,459 691,672.6 548.1,287 454.9,200.2 747.4,2z"/>
   <path class="fil52" d="M26504.3 134849.3c610.6,-281.2 749.7,-440.2 1069.4,-1007.4l-285 35.9c-119.6,121.6 -348.4,303.4 -429.6,399.1 -434.3,512.3 -127.8,75 -354.8,572.4z"/>
   <path class="fil79" d="M89291.3 111104.7c360.2,-672.8 139.5,-656.4 56.4,-806 -278.3,245.3 -126.1,-149.3 -300.6,322.6 -129.3,349.6 -62.8,373.3 -73.7,713.4l317.9 -230z"/>
   <path class="fil79" d="M93468.5 111104.7c360.2,-672.8 139.6,-656.4 56.5,-806 -278.4,245.3 -126.2,-149.3 -300.6,322.6 -129.3,349.6 -62.8,373.3 -73.7,713.4l317.8 -230z"/>
   <path class="fil79" d="M91379.9 104003.3c360.2,-672.7 139.5,-656.4 56.4,-805.9 -278.3,245.3 -126.1,-149.3 -300.6,322.5 -129.3,349.7 -62.7,373.4 -73.7,713.5l317.9 -230.1z"/>
   <path class="fil79" d="M91379.9 107554c360.2,-672.7 139.5,-656.4 56.4,-806 -278.3,245.3 -126.1,-149.3 -300.6,322.5 -129.3,349.8 -62.7,373.4 -73.7,713.6l317.9 -230.1z"/>
   <path class="fil79" d="M91379.9 114446.5c360.2,-672.7 139.5,-656.4 56.4,-806 -243.6,214.7 -336.8,-128.9 -374.3,1036.1l317.9 -230.1z"/>
   <path class="fil79" d="M85114 107554c16.7,-31.2 183.4,-383.5 183.7,-424.6 2.6,-410.5 7.7,-138.4 -127.3,-381.4 -278.3,245.3 -126.1,-149.3 -300.5,322.5 -129.3,349.8 -62.9,373.4 -73.8,713.6l317.9 -230.1z"/>
   <path class="fil79" d="M85115.7 111108.8l287.2 -766.8c-508.5,119.5 -312.4,-196.5 -533.5,277.8 -108.6,232.9 -50.4,466.4 -58.4,701.7l304.7 -212.7z"/>
   <path class="fil79" d="M85115.7 104007.4l287.2 -766.7c-508.5,119.5 -312.4,-196.6 -533.5,277.7 -108.6,233 -50.4,466.4 -58.4,701.8l304.7 -212.8z"/>
   <path class="fil79" d="M95557.2 104003.3c16.7,-31.2 183.4,-383.4 183.7,-424.6 2.5,-410.5 7.6,-138.5 -127.3,-381.3 -243.6,214.7 -336.8,-129 -374.3,1036l317.9 -230.1z"/>
   <path class="fil79" d="M95557.2 107554c16.7,-31.2 183.4,-383.5 183.7,-424.6 2.5,-410.5 7.6,-138.4 -127.3,-381.4 -243.6,214.8 -336.8,-128.9 -374.3,1036.1l317.9 -230.1z"/>
   <path class="fil79" d="M87202.7 104003.3c16.7,-31.2 183.4,-383.4 183.6,-424.6 2.6,-410.5 7.7,-138.5 -127.2,-381.3 -243.6,214.7 -336.8,-129 -374.4,1036l318 -230.1z"/>
   <path class="fil79" d="M87202.7 107554c16.7,-31.2 183.4,-383.5 183.6,-424.6 2.6,-410.5 7.7,-138.4 -127.2,-381.4 -243.6,214.8 -336.8,-128.9 -374.4,1036.1l318 -230.1z"/>
   <path class="fil80" d="M89549.3 115165.9l925.3 21.1c32.5,-8.8 94.2,-45.7 140.8,-69.5l-914.7 -30.6c0,-712.7 108.8,-1111.1 -164.9,-1621.5l13.5 1700.5z"/>
   <path class="fil81" d="M89594.7 111850.6c8.9,-891.8 93.7,-343.1 -290.2,-526.2l-245 842.5c495.5,-118.4 294,15.8 535.2,-316.3z"/>
   <path class="fil81" d="M87506.1 104749.3c8.9,-891.8 93.7,-343.1 -290.3,-526.2l-244.9 842.4c495.4,-118.3 293.9,15.9 535.2,-316.2z"/>
   <path class="fil81" d="M87506.1 108299.9c8.9,-891.7 93.7,-343.1 -290.3,-526.2l-244.9 842.5c495.4,-118.3 293.9,15.9 535.2,-316.3z"/>
   <path class="fil81" d="M89594.7 101407.4c8.9,-891.7 93.7,-343.1 -290.2,-526.1l-245 842.4c495.5,-118.3 294,15.9 535.2,-316.3z"/>
   <path class="fil81" d="M91683.4 104749.3c8.8,-891.8 93.6,-343.1 -290.3,-526.2l-244.9 842.4c495.4,-118.3 293.9,15.9 535.2,-316.2z"/>
   <path class="fil81" d="M91683.4 108299.9c8.8,-891.7 93.6,-343.1 -290.3,-526.2l-244.9 842.5c495.4,-118.3 293.9,15.9 535.2,-316.3z"/>
   <path class="fil81" d="M93772 111850.6c8.8,-891.8 93.6,-343.1 -290.3,-526.2l-244.9 842.5c495.4,-118.4 293.9,15.8 535.2,-316.3z"/>
   <path class="fil81" d="M95860.6 108299.9c8.9,-891.7 93.7,-343.1 -290.3,-526.2l-244.8 842.5c495.3,-118.3 293.8,15.9 535.1,-316.3z"/>
   <path class="fil81" d="M95860.6 104749.3c8.9,-891.8 93.7,-343.1 -290.3,-526.2l-244.8 842.4c495.3,-118.3 293.8,15.9 535.1,-316.2z"/>
   <path class="fil81" d="M85417.4 108299.9c8.9,-891.7 93.7,-343.1 -290.2,-526.2l-244.9 842.5c495.4,-118.3 293.9,15.9 535.1,-316.3z"/>
   <path class="fil81" d="M85413.4 111835.1c17.4,-869.2 91.8,-328.3 -271.7,-510.7l-249.2 830.7c479.4,-114.8 286.7,7.3 520.9,-320z"/>
   <path class="fil81" d="M85413.4 104733.7c17.4,-869.1 91.8,-328.2 -271.7,-510.6l-202.6 844.8c584.4,-174.1 202.4,150.9 474.3,-334.2z"/>
   <polygon class="fil82" points="89303.4,100675.1 89494.3,100166.1 88946.6,100251.8 88942.3,100924 "/>
   <polygon class="fil62" points="83313.1,105492.5 83942.6,105496.8 83942.6,105078.4 83439.8,105078.4 "/>
   <path class="fil79" d="M86865.4 114347.9l335.3 121.9c359.4,-707.4 142.2,-678.4 58.4,-829.3 -1019.1,863.1 301.3,-835.5 -224.4,208.4 -176.3,350.1 -56.4,20.5 -169.3,499z"/>
   <path class="fil83" d="M91379.9 114446.5l4.7 186.9c422.7,202.1 384,-344.5 297.7,479.8l230.8 -80.3 -84.7 -724.3 -448.5 137.9z"/>
   <path class="fil83" d="M91379.9 104003.3l13.2 219.8c383.9,183.1 299.1,-365.6 290.3,526.2 304,-621.7 229,-98.9 128.2,-881.5l-431.7 135.5z"/>
   <path class="fil83" d="M91379.9 107554l13.2 219.7c383.9,183.1 299.1,-365.5 290.3,526.2 304,-621.6 229,-98.8 128.2,-881.4l-431.7 135.5z"/>
   <path class="fil83" d="M95557.2 104003.3l13.1 219.8c384,183.1 299.2,-365.6 290.3,526.2 304,-621.7 229,-98.9 128.2,-881.5l-431.6 135.5z"/>
   <path class="fil83" d="M87202.7 104003.3l13.1 219.8c384,183.1 299.2,-365.6 290.3,526.2 304,-621.7 229,-98.9 128.2,-881.5l-431.6 135.5z"/>
   <path class="fil83" d="M93468.5 111104.7l13.2 219.7c383.9,183.1 299.1,-365.6 290.3,526.2 304,-621.6 229,-98.9 128.1,-881.5l-431.6 135.6z"/>
   <path class="fil83" d="M95557.2 107554l13.1 219.7c384,183.1 299.2,-365.5 290.3,526.2 304,-621.6 229,-98.8 128.2,-881.4l-431.6 135.5z"/>
   <path class="fil83" d="M85114 107554l13.2 219.7c383.9,183.1 299.1,-365.5 290.2,526.2 304.1,-621.6 229.1,-98.8 128.2,-881.4l-431.6 135.5z"/>
   <path class="fil83" d="M87202.7 107554l13.1 219.7c384,183.1 299.2,-365.5 290.3,526.2 304,-621.6 229,-98.8 128.2,-881.4l-431.6 135.5z"/>
   <path class="fil83" d="M89291.3 111104.7l13.2 219.7c383.9,183.1 299.1,-365.6 290.2,526.2 304.1,-621.6 229,-98.9 128.2,-881.5l-431.6 135.6z"/>
   <path class="fil72" d="M161221.8 78836.3l-39 -15.9c-170.2,252.7 -744.9,-381.2 13.8,672.2 470.4,-458.7 256.8,261.9 25.2,-656.3z"/>
   <path class="fil83" d="M89303.4 100675.1l1.1 206.2c383.9,183 299.1,-365.6 290.2,526.1 304.1,-621.6 229,-98.8 128.2,-881.4l-419.5 149.1z"/>
   <path class="fil79" d="M91270.9 115134.9l411.4 -21.7c86.3,-824.3 125,-277.7 -297.7,-479.8l-113.7 501.5z"/>
   <path class="fil62" d="M97353.4 109046.9l-63 -410.2c-517.5,125.1 -287.2,-104.3 -423.7,410.2l486.7 0z"/>
   <path class="fil83" d="M87200.7 114469.8c0.2,358.8 -67.1,202.6 410.5,282.3l28 -428.1 -438.5 145.8z"/>
   <path class="fil83" d="M85115.7 104007.4l26 215.7c363.5,182.4 289.1,-358.5 271.7,510.6l162.7 -829.6 -460.4 103.3z"/>
   <path class="fil83" d="M85115.7 111108.8l26 215.6c363.5,182.4 289.1,-358.5 271.7,510.7l162.7 -829.7 -460.4 103.4z"/>
   <path class="fil84" d="M93942.7 101736.7c0,-695.3 -64.3,-248.3 225.8,-420.6l-413.1 -275c-37.9,884.1 -0.7,492.6 187.3,695.6z"/>
   <path class="fil84" d="M89046.9 103438.5c-398.9,-7.1 -354.7,110.1 -267.4,-239.8 -330.6,215.7 -267.3,-340.2 -267.3,417.7 1096.6,68.3 92.4,45.7 534.7,-177.9z"/>
   <path class="fil84" d="M89046.9 106989.2c-398.9,-7.1 -354.7,110.1 -267.4,-239.9 -330.6,215.8 -267.3,-340.1 -267.3,417.8 1096.6,68.3 92.4,45.7 534.7,-177.9z"/>
   <path class="fil84" d="M86958.2 110539.9c-398.8,-7.2 -354.6,110.1 -267.4,-239.9 -330.4,215.8 -267.2,-340.1 -267.2,417.8 1096.6,68.3 92.3,45.7 534.6,-177.9z"/>
   <path class="fil84" d="M91135.5 110539.9c-398.8,-7.2 -354.7,110.1 -267.4,-239.9 -330.5,215.8 -267.2,-340.1 -267.2,417.8 1096.6,68.3 92.3,45.7 534.6,-177.9z"/>
   <path class="fil84" d="M93224.1 103438.5c-398.8,-7.1 -354.7,110.1 -267.4,-239.8 -330.5,215.7 -267.2,-340.2 -267.2,417.7 1096.6,68.3 92.4,45.7 534.6,-177.9z"/>
   <path class="fil84" d="M89046.9 113881.7c-398.9,-7.2 -354.7,110.1 -267.4,-239.9 -330.6,215.8 -267.3,-340.1 -267.3,417.7 1096.6,68.4 92.4,45.7 534.7,-177.8z"/>
   <path class="fil84" d="M93224.1 106989.2c-398.8,-7.1 -354.7,110.1 -267.4,-239.9 -330.5,215.8 -267.2,-340.1 -267.2,417.8 1096.6,68.3 92.4,45.7 534.6,-177.9z"/>
   <path class="fil84" d="M95312.7 110539.9c-398.7,-7.2 -354.6,110.1 -267.3,-239.9 -330.5,215.8 -267.2,-340.1 -267.2,417.8 1096.5,68.3 92.3,45.7 534.5,-177.9z"/>
   <path class="fil84" d="M93224.1 113881.7c-398.8,-7.2 -354.7,110.1 -267.4,-239.9 -330.5,215.8 -267.2,-340.1 -267.2,417.7 1096.6,68.4 92.4,45.7 534.6,-177.8z"/>
   <path class="fil85" d="M161289.5 76420.5l-706.4 199c95.9,91.1 -284.3,353.1 311.9,125.3 526.6,-201.2 58.4,33 394.5,-324.3z"/>
   <path class="fil86" d="M179193.1 70198.3l251.8 141c478.7,-38.3 267.5,-69.6 375.9,-141 -707.5,-321 -341,-160.2 -627.7,0z"/>
  </g>
 </g>
</svg>
