<svg width="100" height="100" viewBox="0 0 100 100" fill="none" xmlns="http://www.w3.org/2000/svg">
    <path d="M96.7723 84.4696C95.8481 82.7272 94.1663 81.3332 92.0299 80.5605C90.136 79.8787 88.1511 79.7575 86.439 79.6969C86.0602 79.6817 85.6966 79.6363 85.333 79.6059C84.8481 79.5453 84.3481 79.4847 83.8027 79.4847H75.6814C75.0451 77.0908 74.5905 74.5453 74.3936 71.8938C74.0299 66.9847 74.6057 62.015 75.1511 57.2272C75.9542 50.1969 75.7269 44.1363 74.939 38.9393C81.1057 36.4544 86.5451 32.0453 90.1814 26.4999C93.9542 20.7272 95.8178 14.4241 95.6814 8.0605C95.7269 6.45444 95.6511 4.84838 95.4239 3.24232C95.3633 2.83323 95.0754 2.48474 94.6814 2.34838C94.2875 2.21201 93.8481 2.31807 93.5451 2.6211C90.6663 5.5605 86.3633 6.90898 82.5451 7.83323C81.8784 7.99989 81.2117 8.15141 80.5451 8.30292C76.9542 9.13626 73.242 9.99989 69.939 11.8938C68.0299 12.9847 66.3481 14.3787 64.9239 15.9696C61.1966 11.8181 56.9542 9.33323 53.5754 9.33323H53.5602C46.1057 9.34838 16.0299 11.8181 8.3784 13.1817C8.24204 13.212 8.12083 13.2575 7.99962 13.3332C7.8784 13.3635 7.75719 13.4241 7.63598 13.4696C7.49962 13.515 7.3481 13.5605 7.19659 13.6363C7.07537 13.6969 6.95416 13.7726 6.8178 13.8484C6.66628 13.9241 6.51477 13.9999 6.3784 14.106C6.27234 14.1666 6.16628 14.2575 6.06022 14.3484C5.90871 14.4696 5.75719 14.5756 5.62083 14.6969C5.54507 14.7726 5.46931 14.8635 5.3784 14.9393C5.22689 15.0908 5.07537 15.2423 4.92386 15.4241C4.8784 15.4847 4.83295 15.5605 4.77234 15.6211C4.60568 15.8332 4.43901 16.0453 4.28749 16.2726C4.27234 16.2878 4.27234 16.3029 4.25719 16.3181C3.68143 17.1969 3.22689 18.2423 2.90871 19.409C2.56022 20.712 2.39355 22.0453 2.39355 23.3938C2.40871 27.3332 3.95416 31.2423 6.68143 33.9241C6.74204 33.9847 6.80265 34.0453 6.8481 34.106C6.86325 34.106 6.86325 34.1211 6.8784 34.1211C7.13598 34.3635 7.40871 34.5756 7.68143 34.7878C7.77234 34.8635 7.8784 34.9241 7.98446 34.9999C8.19659 35.1514 8.40871 35.2878 8.63598 35.409C8.74204 35.4696 8.86325 35.5453 8.96931 35.606C9.22689 35.7423 9.48446 35.8635 9.74204 35.9847C9.83295 36.015 9.90871 36.0605 9.98446 36.106C10.3329 36.2575 10.6814 36.3787 11.0451 36.4999C11.1663 36.5453 11.2875 36.5756 11.4087 36.606C11.6663 36.6817 11.9239 36.7575 12.1966 36.8181L12.6208 36.909C12.8784 36.9696 13.1511 37.015 13.4239 37.0605C13.5602 37.0756 13.6814 37.106 13.8178 37.1211C14.1966 37.1666 14.5905 37.212 14.9693 37.2423C15.0754 37.2575 15.1814 37.2575 15.2875 37.2575C15.5754 37.2726 15.8784 37.2878 16.1663 37.2878H16.3481C16.4845 37.2878 16.636 37.2878 16.7723 37.2726H17.0602L17.8178 37.2272C17.8784 37.2272 17.9542 37.212 18.0148 37.212C18.6511 37.1514 19.2875 37.0605 19.8936 36.9393C19.939 36.9241 19.9845 36.9241 20.0148 36.909C20.2723 36.8635 20.5148 36.8029 20.7572 36.7272C20.833 36.712 20.9087 36.6817 20.9845 36.6666C21.1966 36.606 21.3936 36.5453 21.5905 36.4847C21.6208 36.4696 21.6663 36.4696 21.6966 36.4544C21.9996 38.6666 22.0754 40.8635 21.8481 42.9696C21.5754 45.4544 20.9693 48.015 20.3784 50.4999C19.8784 52.606 19.3633 54.7878 19.0299 56.9544C18.1814 62.6059 17.939 67.5605 18.2572 72.0756C18.9087 80.9544 22.3633 88.7726 27.9693 94.0908C29.9542 95.9696 32.5905 97.0302 35.3936 97.0756L36.6208 97.0908V97.0453L84.6511 97.6514C84.9693 97.6969 85.3027 97.7272 85.636 97.7272C85.8784 97.7272 86.1208 97.712 86.3633 97.6817C86.5905 97.712 86.833 97.7272 87.0754 97.7272C90.0905 97.7272 93.4239 95.8938 95.242 93.9544C97.6511 91.4241 98.2875 87.3635 96.7723 84.4696ZM38.7572 81.6817H82.3936C82.8027 81.6817 83.2269 81.7272 83.6663 81.7878C84.0754 81.8332 84.4996 81.8787 84.939 81.8938C86.4845 81.9544 88.2723 82.0605 89.8633 82.6363C91.4845 83.212 92.742 84.2423 93.4087 85.4999C94.4996 87.5605 93.9845 90.6059 92.2572 92.4393C90.5754 94.2272 87.3936 95.8484 84.9542 95.4544C84.9087 95.4393 84.8481 95.4393 84.8027 95.4393L38.0602 94.8635C39.5905 93.0908 40.4996 90.712 40.4542 88.3029C40.4087 85.9696 39.9087 83.4393 38.7572 81.6817ZM71.2269 37.9241C70.9777 37.9973 70.7622 38.1558 70.6182 38.3719C70.4741 38.5879 70.4107 38.8478 70.439 39.106C70.5754 40.212 70.0905 41.0908 68.742 42.2575C67.6966 43.1666 66.1511 43.515 64.8026 43.1514C64.5754 43.0876 64.3335 43.1006 64.1143 43.1882C63.8952 43.2759 63.7111 43.4333 63.5905 43.6363C61.6511 46.7878 58.3178 48.8938 54.4542 49.4696C61.9542 37.909 71.5451 28.1211 83.5451 19.7575C84.0451 19.409 84.1663 18.7272 83.8178 18.2423C83.737 18.124 83.6334 18.023 83.5131 17.9452C83.3929 17.8673 83.2583 17.8141 83.1173 17.7887C82.9763 17.7634 82.8317 17.7663 82.6918 17.7973C82.552 17.8284 82.4197 17.8869 82.3027 17.9696C71.8633 25.2423 63.2269 33.5756 56.1663 43.1666C55.1663 41.1969 55.0299 38.8029 55.8633 36.7423C56.7875 34.409 58.8936 32.606 61.3481 32.0302C61.8633 31.909 62.2269 31.4393 62.1966 30.909C61.8481 24.6666 65.333 18.515 71.0602 15.2272C74.0754 13.4999 77.636 12.6666 81.0602 11.8635C81.7269 11.712 82.4087 11.5453 83.0754 11.3938C86.5451 10.5453 90.4087 9.36353 93.4996 7.04535C93.8784 13.3181 92.136 19.5908 88.3936 25.3181C84.4239 31.3484 78.1663 35.9544 71.2269 37.9241ZM20.4693 71.909C20.1511 67.5605 20.3936 62.7726 21.2117 57.2726C21.5299 55.1969 22.0299 53.0605 22.5148 50.9847C23.1208 48.4393 23.742 45.8029 24.0299 43.1969C24.7875 36.2272 22.439 28.2272 19.3936 22.2726C18.2723 19.8635 17.0451 17.9393 15.7269 16.515C15.1663 15.8484 14.5299 15.1969 13.7723 14.6363C25.1208 13.2726 47.3178 11.5302 53.5602 11.515H53.5754C55.636 11.515 59.4239 13.0756 63.3481 17.4696C63.4087 17.5453 63.4845 17.6211 63.5451 17.6969C61.242 20.9241 59.939 24.7726 59.9542 28.712C57.1966 29.6363 54.8936 31.7878 53.8178 34.4999C53.2572 35.8938 53.0602 37.409 53.1663 38.8938C53.0148 41.0605 53.5451 43.2878 54.7572 45.1211C52.3899 48.5116 50.2148 52.0323 48.242 55.6666C47.8784 55.4999 47.5148 55.3332 47.136 55.1666C45.136 54.2272 43.0905 53.2726 40.7572 53.712C39.8178 53.8938 39.0148 54.2878 38.2269 54.6514C37.6511 54.9241 37.0905 55.1969 36.5451 55.3484C35.9087 55.5302 35.136 55.4544 34.6511 55.1666C34.3178 54.9696 34.2572 54.7272 34.242 54.6514C34.1057 54.0605 33.5299 53.6817 32.939 53.8181C32.3481 53.9544 31.9845 54.5302 32.1057 55.1211C32.2875 55.9241 32.7723 56.5908 33.5299 57.0302C34.5299 57.6211 35.9087 57.7878 37.136 57.4393C37.8784 57.2272 38.5299 56.909 39.1814 56.6059C39.8784 56.2726 40.5148 55.9696 41.1814 55.8332C42.8027 55.515 44.4542 56.2878 46.2117 57.1211C47.8936 57.909 49.6208 58.7272 51.5754 58.7272H51.6057C53.5299 58.7272 55.2117 57.9241 56.8481 57.1514C57.1511 56.9999 57.4542 56.8635 57.7723 56.7272C59.8936 55.7575 61.4996 55.5756 62.6814 56.1514C63.2269 56.409 63.8784 56.1817 64.136 55.6514C64.3936 55.1059 64.1663 54.4544 63.636 54.1969C61.833 53.3181 59.6208 53.4999 56.8633 54.7575C56.5451 54.909 56.2269 55.0453 55.9087 55.1969C54.439 55.8938 53.0451 56.5605 51.6057 56.5605H51.5905C51.1814 56.5605 50.7723 56.4999 50.3481 56.409C51.1942 54.8651 52.0732 53.3395 52.9845 51.8332C57.9542 51.6211 62.3784 49.2726 65.0299 45.4544C66.8481 45.712 68.7572 45.1666 70.1663 43.9544C71.2723 42.9999 72.4996 41.6969 72.636 39.8181C72.7117 39.7878 72.8026 39.7575 72.8784 39.7423C73.5905 44.6514 73.7723 50.3938 73.0148 57.015C72.4542 61.909 71.8784 66.9696 72.2572 72.0908C72.439 74.6666 72.8633 77.1514 73.4542 79.515H34.939C34.333 79.515 33.8481 79.9999 33.8481 80.6059C33.8481 81.212 34.333 81.6969 34.939 81.6969C37.4845 81.6969 38.2269 86.0453 38.2723 88.3484C38.3178 90.9544 36.8633 93.5756 34.7269 94.8484C32.7572 94.6665 30.9239 93.8484 29.5148 92.515C24.3784 87.6211 21.0754 80.1211 20.4693 71.909Z"
          fill="currentColor"/>
    <path d="M35.3788 24.4848C36.1666 23.6363 36.9091 22.8485 37.803 22.7121C38.6515 22.5757 39.5303 23.0606 40.5303 23.6212C41.5 24.1515 42.5909 24.7575 43.8485 24.8485C45.7727 24.9848 47.3333 23.9242 48.7121 22.9848C49.3939 22.5151 50.0454 22.0757 50.6969 21.7879C52.3788 21.0303 54.4697 21.1969 56 22.2272C56.5 22.5606 57.1818 22.4242 57.5151 21.9242C57.8484 21.4242 57.7121 20.7424 57.2121 20.4091C55.0606 18.9697 52.1515 18.7272 49.7878 19.7879C48.9545 20.1666 48.1969 20.6818 47.4697 21.1818C46.2272 22.0303 45.1515 22.7575 43.9848 22.6666C43.2121 22.606 42.4091 22.1666 41.5606 21.7121C40.3636 21.0606 39.0151 20.3182 37.4394 20.5606C35.8181 20.8182 34.7272 21.9697 33.7575 23C33.5303 23.2424 33.303 23.4848 33.0606 23.7272C32.4394 24.3333 31.5757 24.7272 30.9545 24.7272C30.6212 24.7121 30.4545 24.5909 30.3636 24.4848C29.9545 24.0454 29.2575 24.0151 28.8181 24.4242C28.3788 24.8333 28.3484 25.5303 28.7575 25.9697C29.303 26.5606 30.0454 26.8939 30.8939 26.9242H31C32.4242 26.9242 33.7878 26.0909 34.5909 25.303C34.8788 25.0303 35.1363 24.7575 35.3788 24.4848ZM35.6969 42.803C37.1818 42.5303 38.4091 41.6666 39.4242 40.8788L39.7272 40.6515C40.5757 40 41.3636 39.3788 42.2575 39.0606C43.5757 38.5757 45.1818 38.7576 46.606 38.9242L51.5757 39.4848C52.1666 39.5454 52.7121 39.1212 52.7878 38.5151C52.8485 37.9091 52.4242 37.3788 51.8182 37.303L46.8485 36.7424C45.2727 36.5606 43.3181 36.3485 41.5151 37C40.303 37.4394 39.3333 38.1969 38.3939 38.9242L38.106 39.1515C37.2878 39.7879 36.3333 40.4697 35.3181 40.6515C34.5757 40.7879 33.606 40.5757 33.2424 39.9242C33.0944 39.6872 32.8615 39.5157 32.5912 39.4445C32.321 39.3734 32.0338 39.4081 31.7883 39.5415C31.5428 39.6749 31.3574 39.8969 31.2701 40.1623C31.1827 40.4278 31.1999 40.7165 31.3181 40.9697C31.9697 42.1666 33.3485 42.8788 34.8485 42.8788C35.1212 42.8788 35.4091 42.8485 35.6969 42.803ZM39.8181 70.2879C40.5151 70.0454 41.1666 69.7272 41.803 69.4242C42.6818 69 43.5 68.606 44.3485 68.4394C46 68.106 47.7878 68.6363 49.3333 69.1969C49.6363 69.303 49.9242 69.4091 50.2272 69.5303C51.7575 70.106 53.3484 70.6969 55.0757 70.8333C55.2878 70.8485 55.5 70.8636 55.7121 70.8636C57.606 70.8636 59.8636 70.1969 61.106 68.303C61.4394 67.803 61.2878 67.1212 60.7878 66.7879C60.2878 66.4545 59.606 66.5909 59.2727 67.106C58.4091 68.4242 56.5757 68.7727 55.2424 68.6666C53.8181 68.5454 52.4394 68.0454 50.9848 67.5C50.6818 67.3788 50.3788 67.2727 50.0606 67.1666C48.2272 66.5151 46.0757 65.8939 43.9091 66.3333C42.7878 66.5606 41.803 67.0303 40.8485 67.4848C40.2424 67.7727 39.6666 68.0454 39.0909 68.2424C37.9091 68.6515 36.3484 68.6818 35.6818 67.7879C35.3181 67.303 34.6363 67.1969 34.1515 67.5606C33.6666 67.9242 33.5606 68.606 33.9242 69.0909C35.3636 70.9848 38 70.9242 39.8181 70.2879ZM60.2121 90.3485H60.2575L74.2727 89.5909C74.7727 89.5606 75.1666 89.1363 75.1363 88.6363C75.106 88.1363 74.7121 87.7424 74.1818 87.7727L60.1666 88.5303C59.6666 88.5606 59.2727 88.9848 59.303 89.4848C59.3333 89.9697 59.7272 90.3485 60.2121 90.3485ZM79.0151 89.5151H80.9394C81.4394 89.5151 81.8485 89.106 81.8485 88.606C81.8485 88.106 81.4394 87.697 80.9394 87.697H79.0151C78.5151 87.697 78.106 88.106 78.106 88.606C78.106 89.106 78.5151 89.5151 79.0151 89.5151Z"
          fill="currentColor"/>
</svg>
