<svg width="100" height="100" viewBox="0 0 100 100" fill="none" xmlns="http://www.w3.org/2000/svg">
    <path d="M98.606 71.8182C97.9697 67.3788 95.9848 63.2879 94 59.4849C93.3241 58.1853 92.2148 57.1632 90.8642 56.5959C89.5137 56.0286 88.0072 55.9518 86.606 56.3788L85.0303 56.8637C87.9545 53.8485 89.2879 49.591 88.5454 45.4697L84.5151 23.2122L94.606 17.0758C95.4545 16.5607 95.8939 15.591 95.697 14.6061C95.6515 14.3485 95.5454 14.1061 95.4242 13.8788C95.5359 13.5546 95.5759 13.21 95.5414 12.8688C95.5069 12.5276 95.3987 12.198 95.2244 11.9027C95.0501 11.6074 94.8138 11.3534 94.5317 11.1583C94.2497 10.9633 93.9287 10.8317 93.5909 10.7728L47.7879 2.59096C45.7424 2.22732 43.6515 2.62126 41.8788 3.69702L3.93937 26.7879C3.40729 27.1074 3.02186 27.6229 2.86601 28.2236C2.71016 28.8243 2.79635 29.4622 3.10604 30C2.98483 30.3788 2.95452 30.7728 3.03028 31.1819C3.2121 32.1667 3.96968 32.9091 4.93937 33.091L9.2424 33.8637C9.34846 36.8031 9.34846 38.5455 9.34846 40.2273C9.34846 42.197 9.34846 44.2425 9.51513 48.1516C7.31816 48.7576 5.57574 50.4849 4.78786 52.5455C4.49998 53.2879 4.34846 54.0758 4.34846 54.8788C4.34846 56.7576 5.22725 58.6213 7.31816 59.8637C7.2121 65.9697 5.2121 72.0758 1.60604 77.0455C1.2121 77.591 1.06058 78.3031 1.2121 78.9849C1.36361 79.6819 1.80301 80.2728 2.40907 80.6364C3.40907 81.2122 4.46968 81.894 5.48483 82.5455C6.60604 83.2728 7.77271 84.0152 8.89392 84.6516C9.27271 84.8637 9.6818 84.9697 10.0909 84.9697C10.9545 84.9697 11.803 84.5152 12.2576 83.7273C16.6363 76.2273 17.6515 67.197 15.1818 59.394C16.0303 58.7425 16.7273 57.9091 17.1515 56.9091C17.8182 55.3637 17.7879 53.5001 17.0606 51.8334C16.3636 50.197 15.0757 48.9394 13.5303 48.3637C12.9242 48.1364 12.3333 48.0152 11.7576 47.9697C11.5909 44.1819 11.5909 42.1819 11.5909 40.2425C11.5909 38.6213 11.5909 36.9697 11.5 34.2728L16.9394 35.2425L21.606 60.4394C21.9697 62.4243 22.7727 64.2273 23.8939 65.7728C22.3333 66.3637 20.9394 67.394 20.0757 68.6364C18.303 71.197 18.1515 74.3637 18.1969 76.5303C18.2879 81.4091 19.4848 86.3031 21.6363 90.6819C22.4545 92.3334 23.6363 94.4091 25.5757 95.894C27 96.9849 28.6666 97.5455 30.2576 97.5455C30.9848 97.5455 31.6818 97.4243 32.3485 97.1819C32.4394 97.1516 32.5151 97.1061 32.606 97.0758C37.4848 95.6364 42.6515 94.0758 47.6666 92.5455C50.303 91.7425 52.9848 90.9243 55.6515 90.1213C55.8333 90.2425 56.0454 90.3031 56.2727 90.3031C56.3333 90.3031 56.4091 90.3031 56.4697 90.2879L66.5454 88.4849C66.8788 88.4243 67.1515 88.2122 67.303 87.9394L77.7879 88.2576C81.9848 88.3788 86.1666 88.5152 90.3333 88.6364C92.4242 88.697 94.3939 87.7273 95.606 86.0455C98.2727 82.3182 99.3788 77.1364 98.606 71.8182ZM10.3333 82.5758C10.2576 82.697 10.106 82.7576 9.99998 82.6819C8.93937 82.0758 7.80301 81.3485 6.69695 80.6516C5.65149 79.9849 4.57574 79.2879 3.53028 78.6819C3.46493 78.6391 3.41667 78.5748 3.39392 78.5001C3.37877 78.4394 3.39392 78.3788 3.42422 78.3334C7.13634 73.2273 9.25755 67.0001 9.53028 60.7122C9.95452 60.8031 10.3939 60.8485 10.8333 60.8485C11.6212 60.8485 12.4091 60.697 13.1666 60.4243C15.303 67.5758 14.3182 75.7576 10.3333 82.5758ZM5.10604 28.697L43.0454 5.60611C44.0303 5.00005 45.1515 4.69702 46.2879 4.69702C46.6515 4.69702 47.0151 4.72732 47.3939 4.78793L93.2121 12.9546C93.2424 12.9546 93.303 12.9697 93.3333 13.0607C93.3636 13.1516 93.303 13.197 93.2727 13.2122L55.3182 36.3182C54.0151 37.1061 52.4697 37.394 50.9697 37.1364L16.0454 30.9091C19.8788 29.7576 23.6969 28.5304 27.4242 27.3182C32.5 25.6819 37.7273 24.0001 42.9091 22.5455C43.1969 23.3485 43.6969 24.091 44.4091 24.6819C45.6515 25.7122 47.4242 26.2879 49.3333 26.2879C49.5 26.2879 49.6667 26.2879 49.8182 26.2728C52.4394 26.1364 54.8485 24.9243 56.0909 23.091C57.197 21.4697 57.3182 19.7273 56.4242 18.2122C55.1212 15.9849 51.7576 14.5304 48.5909 14.8031C45.9545 15.0304 43.6515 16.8485 42.8788 19.3182C42.7727 19.6516 42.7121 19.9697 42.6818 20.3031C37.3485 21.8031 31.9697 23.5304 26.7576 25.2122C21.6212 26.8637 16.3333 28.5758 11.0909 30.0455L5.16665 28.9849C5.13634 28.9849 5.07574 28.9697 5.04543 28.8788C5.01513 28.7879 5.07574 28.7122 5.10604 28.697ZM44.9697 20.7879C44.9545 20.7122 44.9091 20.6213 44.8788 20.5607C44.9091 20.3334 44.9545 20.1364 45.0151 19.9697C45.4394 18.6213 46.7576 17.197 48.7879 17.0152C51.0757 16.8182 53.6363 17.8485 54.5 19.3334C54.9545 20.1061 54.8636 20.9243 54.2576 21.8334C53.4091 23.0758 51.6363 23.9394 49.7121 24.0455C48.197 24.1213 46.7576 23.7122 45.8485 22.9697C45.303 22.5304 45.0606 22.0152 44.9545 21.5304C45.0151 21.2879 45.0454 21.0455 44.9697 20.7879ZM50.7576 41.2576C51.2576 41.3334 51.7576 41.3788 52.2424 41.3788C53.7879 41.3788 55.3182 40.9546 56.6515 40.1364L82.4545 24.4394L84.3636 34.9849C85.0454 38.7425 83.6364 42.6364 80.6818 45.1516C75.9848 49.1516 70.0454 52.394 63.5303 54.5455C55.9545 57.0304 47.2121 58.2425 36.803 58.2576C34.2273 58.2425 31.8939 58.0455 29.8939 57.6213C25.7879 56.7425 22.606 53.4091 21.803 49.1364C21.7879 49.0304 21.7424 48.9394 21.7121 48.8637L19.2576 35.6364L50.7576 41.2576ZM23.803 60.0152L23.1212 56.3031C24.8398 58.0733 27.0431 59.2962 29.4545 59.8182C31.5909 60.2728 34.0454 60.5001 36.7576 60.5001H36.8333C47.4848 60.4849 56.4545 59.2273 64.2576 56.6667C71.0454 54.4394 77.2424 51.0455 82.1666 46.8485C83.7121 45.5304 84.8939 43.9091 85.6818 42.1213L86.3636 45.8485C87.0454 49.6061 85.6364 53.5001 82.6818 56.0152C81.6212 56.9243 80.4848 57.7879 79.303 58.6061L62.9545 63.591C62.8313 63.4519 62.6752 63.3459 62.5006 63.2824C62.326 63.2189 62.1383 63.2 61.9545 63.2273L51.4394 64.8182C51.0909 64.8637 50.803 65.0758 50.6363 65.3788C47.8485 65.3485 45.0606 65.3182 42.3333 65.3031C37.5606 65.2728 32.6212 65.2425 27.7576 65.1213C27.5793 65.1078 27.4008 65.1445 27.2424 65.2273C26.9545 65.2122 26.6515 65.197 26.3636 65.2273C25.049 63.7571 24.1633 61.9542 23.803 60.0152ZM65.3333 86.4243L57.7879 87.7728C58.4697 84.5001 58.2879 80.7728 57.2576 76.894C56.3182 73.3637 54.803 70.0304 53.2576 66.8031L61.4848 65.5607C64.77 71.9927 66.1075 79.2434 65.3333 86.4243ZM47.0151 90.394C43.3939 91.4849 39.6969 92.6213 36.0757 93.697C36.303 93.2728 36.5 92.8182 36.6666 92.3334C37.3182 90.3485 37.3636 88.2273 37.4091 86.3637C37.4848 82.6213 37.5606 78.7728 36.4848 75.0152C35.6212 72.0001 33.9242 69.3182 31.7879 67.4546C35.3182 67.5152 38.8636 67.5455 42.303 67.5607C45.2273 67.5758 48.197 67.6061 51.1818 67.6516C52.7121 70.8182 54.2121 74.091 55.106 77.4849C56.106 81.2425 56.2273 84.8031 55.4848 87.8485C52.6515 88.6819 49.8182 89.5455 47.0151 90.394ZM93.7879 84.7273C93.0151 85.8031 91.7424 86.4394 90.3939 86.394C86.2273 86.2728 82.0454 86.1364 77.8485 86.0152C74.4394 85.9091 71.0303 85.8182 67.6363 85.7122C68.2121 78.8485 66.9394 71.8485 64 65.6213L87.2576 58.5304C89.1212 57.9698 91.1212 58.8031 92.0151 60.5304C93.9091 64.1667 95.8182 68.0455 96.3939 72.1364C97.0757 76.8788 96.1212 81.4849 93.7879 84.7273Z"
          fill="currentColor"/>
    <path d="M61.8183 13.2424L74.7274 16.3334C74.8031 16.3485 74.8789 16.3637 74.9395 16.3637C75.3637 16.3637 75.7425 16.0758 75.8486 15.6515C75.8777 15.5321 75.8828 15.408 75.8634 15.2866C75.844 15.1652 75.8005 15.0489 75.7356 14.9445C75.6707 14.8401 75.5856 14.7497 75.4854 14.6786C75.3851 14.6075 75.2716 14.5571 75.1516 14.5303L62.2425 11.4394C62.0034 11.3832 61.7518 11.4242 61.5429 11.5535C61.3341 11.6828 61.1852 11.8897 61.1289 12.1288C61.0726 12.3679 61.1137 12.6196 61.243 12.8284C61.3722 13.0373 61.5792 13.1862 61.8183 13.2424ZM78.4547 17.7727L79.0304 18.0606C79.1668 18.1212 79.3031 18.1515 79.4395 18.1515C79.788 18.1515 80.1062 17.9697 80.2728 17.6364C80.5001 17.1818 80.3183 16.6212 79.8486 16.3788L79.2728 16.0909C78.8183 15.8637 78.2577 16.0455 78.0153 16.5152C77.7728 16.9849 78.0001 17.5455 78.4547 17.7727ZM29.7274 51.2424C31.091 52.0303 32.6516 52.4091 33.985 52.6515C36.4243 53.1212 38.9243 53.3485 41.4092 53.3485C41.985 53.3485 42.5759 53.3334 43.1516 53.3182C43.6668 53.3031 44.0607 52.8637 44.0456 52.3485C44.0304 51.8334 43.591 51.4546 43.0759 51.4546C40.1516 51.5909 37.2122 51.3788 34.3334 50.8334C33.091 50.5909 31.788 50.2879 30.6668 49.6364C29.5607 48.9849 28.7728 48.0455 28.5304 47.0606C28.4092 46.5606 27.894 46.2576 27.394 46.3788C26.894 46.5 26.591 47.0152 26.7122 47.5152C27.091 48.9849 28.1819 50.3485 29.7274 51.2424ZM49.1971 52.9091H50.0607C50.5759 52.9091 51.0001 52.4849 51.0001 51.9697C51.0001 51.4546 50.5759 51.0303 50.0607 51.0303H49.1971C48.6819 51.0303 48.2577 51.4546 48.2577 51.9697C48.2577 52.4849 48.6819 52.9091 49.1971 52.9091ZM88.3789 71.1364C87.9092 71.3334 87.6668 71.8788 87.8637 72.3485C88.3637 73.5909 88.894 74.8637 88.9547 76.1515C89.0001 77.1515 88.7274 78.4546 87.7577 79.1212C87.1062 79.5758 86.1971 79.697 85.3183 79.7879C83.6365 79.9546 81.9395 80.0303 80.2425 80.0152C80.1202 80.0142 79.9988 80.0373 79.8854 80.0832C79.7719 80.1291 79.6687 80.1969 79.5814 80.2827C79.4942 80.3686 79.4247 80.4707 79.377 80.5834C79.3292 80.6961 79.3041 80.817 79.3031 80.9394C79.3021 81.0618 79.3253 81.1832 79.3712 81.2966C79.4171 81.41 79.4849 81.5133 79.5707 81.6005C79.6565 81.6878 79.7587 81.7572 79.8714 81.805C79.984 81.8527 80.105 81.8778 80.2274 81.8788H80.788C82.3637 81.8788 83.9547 81.8031 85.5153 81.6364C86.591 81.5303 87.8183 81.3485 88.8334 80.6364C90.1516 79.7121 90.9092 77.9546 90.8183 76.0455C90.7425 74.4394 90.1213 72.9546 89.591 71.6364C89.4959 71.4099 89.3151 71.2302 89.088 71.1365C88.8609 71.0429 88.606 71.0428 88.3789 71.1364ZM76.1971 80L75.4547 79.8788C74.9395 79.7879 74.4698 80.1364 74.3789 80.6515C74.288 81.1667 74.6365 81.6364 75.1516 81.7273L75.894 81.8485C76.0144 81.8696 76.1378 81.8667 76.2571 81.8401C76.3764 81.8134 76.4893 81.7634 76.5892 81.6931C76.6891 81.6227 76.7742 81.5333 76.8395 81.4299C76.9048 81.3266 76.9491 81.2114 76.9698 81.0909C77.0115 80.8439 76.9536 80.5903 76.8088 80.3858C76.664 80.1814 76.444 80.0426 76.1971 80Z"
          fill="currentColor"/>
</svg>
