<svg width="100" height="100" viewBox="0 0 100 100" fill="none" xmlns="http://www.w3.org/2000/svg">
    <path d="M93.1512 8.63638C82.1663 6.75759 70.6966 6.04547 59.6208 5.3485C56.1057 5.12123 52.4845 4.89396 48.939 4.63638C48.4087 4.60608 47.8784 4.63638 47.3784 4.74244H47.3633C44.4693 4.66668 41.9542 6.87881 41.7118 9.80305C41.1511 16.5152 40.2572 25.0303 39.4087 33.2576C39.3936 33.4697 39.3633 33.6667 39.3481 33.8788C34.9542 33.0455 30.6966 32.2424 26.9996 31.5909C26.9239 31.5758 26.833 31.5758 26.7724 31.5758L26.1966 31.5152C24.2572 31.2879 22.4693 32.6061 22.1208 34.5152V34.5303C21.2724 34.3485 20.4542 34.1667 19.636 34C18.7572 33.8182 17.8784 33.6364 16.9845 33.4394C17.0451 32.5303 16.7875 31.6212 16.2269 30.894C15.9076 30.486 15.5071 30.1487 15.0506 29.9035C14.5942 29.6584 14.0919 29.5106 13.5754 29.4697C11.6663 29.2879 9.96933 30.5909 9.62084 32.4849L3.37842 67.4849C3.25721 68.0455 3.15115 68.6061 3.02993 69.1667C2.75721 70.5606 2.46933 72.0303 2.33297 73.5152C2.27236 74.2576 2.24206 75 2.28751 75.7273C2.2269 77.394 2.40872 78.8485 2.87842 80.1818C3.92387 83.1818 6.62084 85.5455 9.93903 86.3788C10.0148 86.4091 10.1057 86.4394 10.1815 86.4697C17.9693 88.0606 30.1966 90.0455 42.0299 91.9849C49.439 93.197 56.4239 94.3334 61.7572 95.2879C62.0754 95.3485 62.4087 95.3788 62.7269 95.3788C65.1966 95.3788 67.4542 93.7121 68.0905 91.2727C69.4845 85.9091 70.6208 80.4091 71.6208 74.8788L75.1208 75.197C75.6815 75.2424 76.2421 75.303 76.8178 75.3788C78.2269 75.5303 79.7118 75.697 81.2118 75.697C81.9542 75.697 82.6815 75.6515 83.4239 75.5606C85.0905 75.4849 86.5299 75.1667 87.8027 74.5909C90.6966 73.2879 92.8178 70.394 93.3784 67.0152C93.4087 66.9394 93.4239 66.8485 93.439 66.7576C94.333 58.8637 95.2572 46.5 96.1512 34.5606C96.7118 27.0758 97.2421 20.0152 97.7118 14.6212C97.9542 11.7273 95.9542 9.12123 93.1512 8.63638ZM41.5905 33.5C42.439 25.2576 43.3178 16.7273 43.8936 10C44.0451 8.18184 45.6663 6.80305 47.4693 6.93941C51.0299 7.19699 54.6663 7.43941 58.1966 7.65153C66.9693 8.21214 75.9845 8.7879 84.7875 9.92426C84.136 16.5 83.1815 24.6667 82.2572 32.5758C81.3027 40.7121 80.3178 49.1212 79.6663 55.7879L41.4693 51.0758C40.9087 51 40.3481 51.0758 39.8178 51.2576C40.3178 45.8031 40.9693 39.5758 41.5905 33.5ZM16.6511 35.6212C17.4996 35.803 18.3481 35.9849 19.1663 36.1515C19.9996 36.3334 20.8481 36.5152 21.7118 36.697C20.2118 44.8637 16.7875 63.4243 15.1815 71.7121C15.0754 72.2576 14.7724 72.7121 14.3027 73.0152C13.8481 73.3182 13.3027 73.4243 12.6966 73.303C12.1854 73.1932 11.7356 72.8918 11.4397 72.4606C11.1438 72.0295 11.0243 71.5014 11.1057 70.9849C12.0905 64.8637 13.0451 58.7121 13.9996 52.5606C14.8784 46.894 15.7572 41.2424 16.6511 35.6212ZM11.4845 83.1515C11.3178 83.1364 11.1511 83.1061 10.9845 83.0758C10.8178 83.0455 10.6663 83 10.5148 82.9546C10.2724 82.894 10.0148 82.8334 9.77236 82.7424C9.70924 82.7237 9.64829 82.6983 9.59054 82.6667C9.33297 82.5606 9.06024 82.4697 8.80266 82.3334C8.78751 82.3182 8.75721 82.3182 8.74206 82.303C6.95418 81.394 5.54509 79.894 4.93903 78.1364C4.92387 78.0909 4.90872 78.0455 4.89357 77.9849C4.81781 77.7576 4.74206 77.5152 4.6966 77.2727C4.68145 77.197 4.65115 77.1061 4.636 77.0303C4.59054 76.7727 4.54509 76.4849 4.51478 76.2273C4.51478 76.1061 4.49963 75.9697 4.49963 75.8334C4.36327 73.8334 4.77236 71.6818 5.1966 69.5909C5.31781 69.0152 5.42387 68.4394 5.52994 67.8637L11.7572 32.8788C11.8936 32.1061 12.5754 31.5909 13.4087 31.6667C13.833 31.697 14.2118 31.9091 14.4845 32.2576C14.7118 32.5606 14.833 32.9394 14.8027 33.3182C14.8027 33.3485 14.8027 33.394 14.7875 33.4243C13.7875 39.6667 12.8178 45.9394 11.833 52.2121C10.8784 58.3637 9.92387 64.5152 8.93903 70.6364C8.57539 72.8485 10.0299 74.9697 12.3027 75.4546C13.4239 75.697 14.5602 75.4697 15.5148 74.8485C16.4693 74.2121 17.1057 73.2576 17.3178 72.1212C19.0905 62.9697 23.0754 41.3334 24.2572 34.9243C24.4087 34.1364 25.136 33.6061 25.9239 33.697L26.8633 33.803C27.2875 33.8485 27.6663 34.0758 27.9087 34.4243C28.1511 34.7727 28.2421 35.197 28.1511 35.6212L19.2421 77.3485C18.4845 81.0303 15.0754 83.5758 11.4845 83.1515ZM65.9542 89.394C65.5148 91.0606 63.833 92.1212 62.1208 91.803C56.7724 90.8485 49.7572 89.7121 42.3178 88.4849C33.2875 87.0152 24.0451 85.5 16.7269 84.1667C19.0299 82.8485 20.8178 80.5758 21.4087 77.7879L21.8178 75.8485C28.3936 77.0909 36.6966 78.803 44.7421 80.4546C52.5148 82.0606 60.5451 83.7273 67.0451 84.9546C66.6966 86.4546 66.3481 87.9243 65.9542 89.394ZM67.5299 82.8333C61.0451 81.6061 52.9845 79.9394 45.1966 78.3334C37.1814 76.6818 28.8936 74.9697 22.2875 73.7273L30.3027 36.0758C30.4239 35.5303 30.4087 34.9546 30.2724 34.4243C33.0602 34.9394 36.0451 35.5 39.1208 36.0909C38.439 42.697 37.7572 49.3182 37.2875 54.7879V55.0152L37.2724 55.5909C37.2118 57.5303 38.6814 59.2121 40.6208 59.394H40.636C40.5299 60.2576 40.4239 61.0909 40.333 61.9243C40.2269 62.803 40.1208 63.697 39.9996 64.6212C39.0905 64.6364 38.2118 64.9697 37.5299 65.5909C36.9996 66.0909 36.636 66.7273 36.4693 67.4394C36.5148 67.2273 36.5754 67.0303 36.6511 66.8334L32.1511 65.6515H32.136C31.2875 65.4394 30.7421 64.5909 30.8936 63.7424L33.9087 47.0455C33.9996 46.5909 34.2572 46.197 34.6511 45.9394C35.0451 45.6818 35.4996 45.6061 35.939 45.7121L38.0905 46.2727C38.1663 45.5455 38.2421 44.8182 38.3027 44.0758L36.4693 43.5909C35.439 43.3485 34.333 43.5303 33.4542 44.1061C32.5602 44.6818 31.939 45.6212 31.7572 46.6667L28.7421 63.3637L28.6966 63.7121C28.5299 65.5758 29.7572 67.3334 31.6057 67.7879L36.4087 69.0455C36.5496 69.8393 36.9479 70.5648 37.5422 71.1097C38.1364 71.6547 38.8935 71.9888 39.6966 72.0606L69.1663 74.697C68.6663 77.394 68.1208 80.1212 67.5299 82.8333ZM36.4087 69C36.3633 68.803 36.3633 68.6061 36.3481 68.394C36.3481 68.6061 36.3784 68.803 36.4087 69ZM89.9542 66.2273C89.939 66.394 89.9087 66.5455 89.8784 66.697C89.833 66.9546 89.7875 67.2121 89.7269 67.4546C89.7118 67.5152 89.6815 67.5758 89.6663 67.6515C89.5905 67.9243 89.4996 68.197 89.4087 68.4546C89.4087 68.4849 89.3936 68.5 89.3936 68.5303C88.6512 70.394 87.2724 71.9394 85.5754 72.697C85.5299 72.7121 85.4845 72.7424 85.4239 72.7576C85.1966 72.8485 84.9693 72.9394 84.7421 73.0152C84.6663 73.0455 84.5905 73.0606 84.4996 73.0909C84.2421 73.1667 83.9693 73.2273 83.6966 73.2879C83.5754 73.3182 83.4542 73.3334 83.3178 73.3485C81.3178 73.6667 79.1511 73.4394 77.0451 73.197L75.3027 73.0152L39.8936 69.8485C39.5136 69.8127 39.1618 69.6325 38.9109 69.3449C38.66 69.0573 38.529 68.6844 38.5451 68.303C38.5439 67.8994 38.7026 67.5118 38.9866 67.225C39.2706 66.9382 39.6566 66.7755 40.0602 66.7727H40.1663C46.4693 67.2273 52.8027 67.6515 59.136 68.0758C65.3481 68.4849 71.5602 68.9091 77.7421 69.3485C79.9845 69.5152 81.9693 67.8788 82.2421 65.5909C82.3784 64.4546 82.0754 63.3333 81.3633 62.4394C80.6512 61.5455 79.636 60.9849 78.4996 60.8636C69.2421 59.894 47.333 57.8182 40.833 57.197C40.4521 57.1603 40.0994 56.9802 39.8462 56.6933C39.5931 56.4064 39.4583 56.034 39.4693 55.6515L39.4996 54.7121C39.5065 54.502 39.557 54.2957 39.648 54.1062C39.7389 53.9166 39.8683 53.7481 40.0279 53.6113C40.1875 53.4745 40.3739 53.3724 40.5751 53.3115C40.7763 53.2506 40.9879 53.2323 41.1966 53.2576L83.5451 58.4849C87.2724 58.9394 90.1208 62.1212 89.9996 65.7273C89.9845 65.894 89.9845 66.0606 89.9542 66.2273ZM42.1966 64.7273L42.5148 62.1667C42.6208 61.3182 42.7269 60.4546 42.833 59.5758C51.1057 60.3637 69.8936 62.1515 78.2724 63.0303C78.8178 63.0909 79.3178 63.3637 79.6512 63.7879C79.9996 64.2121 80.1511 64.7576 80.0754 65.3637C79.939 66.4394 78.9996 67.2121 77.9087 67.1515C71.7269 66.7121 65.5148 66.303 59.2875 65.8788C53.5754 65.5152 47.8784 65.1364 42.1966 64.7273ZM92.636 34.5455C91.9542 43.6667 91.2572 53.0152 90.5602 60.4243C89.7864 59.3027 88.7845 58.3571 87.62 57.6495C86.4555 56.942 85.1546 56.4883 83.8027 56.3182L81.833 56.0606C82.4845 49.394 83.4693 40.9697 84.4239 32.8334C85.3481 24.9394 86.3027 16.803 86.9542 10.2273C88.4693 10.4394 89.9693 10.6667 91.4542 10.9243C93.1512 11.2121 94.3481 12.803 94.1966 14.5303C93.7269 19.9394 93.1966 27.0303 92.636 34.5455Z"
          fill="currentColor"/>
    <path d="M49.1516 47.2576C49.8031 48.091 50.7879 48.6213 51.8334 48.7273L68.7273 50.2728C68.8485 50.2879 68.9697 50.2879 69.0758 50.2879C70.9546 50.2879 72.591 48.9243 72.8788 47.0303L75.8182 29.8334C75.8986 29.3128 75.8718 28.7813 75.7394 28.2715C75.6071 27.7617 75.3719 27.2843 75.0485 26.8686C74.725 26.4529 74.32 26.1077 73.8583 25.8541C73.3966 25.6005 72.888 25.444 72.3637 25.394L55.4697 23.8485C53.4546 23.6667 51.6213 25.091 51.3182 27.0758L48.3788 44.2728C48.2273 45.3485 48.5 46.4243 49.1516 47.2576ZM50.5455 44.6516L53.4849 27.4546C53.6061 26.6364 54.3182 26.0455 55.1364 26.0455H55.2879L72.1819 27.591C72.6516 27.6364 73.0606 27.8637 73.3485 28.2273C73.6364 28.591 73.7576 29.0455 73.6819 29.5L70.7425 46.6667V46.6819C70.6061 47.5455 69.8031 48.1667 68.9394 48.091L52.0455 46.5455C51.5758 46.5 51.1667 46.2728 50.8788 45.9091C50.591 45.5455 50.4849 45.091 50.5455 44.6516ZM56.5152 19.5303L73.4091 21.0758H73.5152C73.8029 21.0837 74.0822 20.9786 74.2933 20.7829C74.5043 20.5873 74.6303 20.3167 74.6442 20.0293C74.6581 19.7418 74.5587 19.4604 74.3675 19.2453C74.1763 19.0302 73.9084 18.8987 73.6213 18.8788L56.7273 17.3334C56.1213 17.2728 55.591 17.7273 55.5303 18.3182C55.4697 18.9546 55.9091 19.4849 56.5152 19.5303ZM57.7576 13.0303L74.6516 14.5758H74.7576C75.0453 14.5837 75.3246 14.4786 75.5357 14.2829C75.7468 14.0873 75.8727 13.8167 75.8866 13.5293C75.9005 13.2418 75.8012 12.9604 75.6099 12.7453C75.4187 12.5302 75.1508 12.3987 74.8637 12.3788L57.9546 10.8485C57.3485 10.7879 56.8182 11.2425 56.7576 11.8334C56.7122 12.4394 57.1516 12.9697 57.7576 13.0303ZM47.9849 21.7273C48.2296 21.7678 48.4804 21.7113 48.684 21.5699C48.8877 21.4284 49.0283 21.2131 49.0758 20.9697L50.8485 10.8182C50.9394 10.3182 50.591 9.83338 50.091 9.74247C49.591 9.65156 49.1061 10 49.0152 10.5L47.2425 20.6516C47.2185 20.7711 47.2188 20.8943 47.2433 21.0138C47.2679 21.1332 47.3163 21.2465 47.3856 21.3469C47.4548 21.4472 47.5436 21.5326 47.6466 21.598C47.7495 21.6634 47.8646 21.7073 47.9849 21.7273ZM47.4091 26.6667H47.5C47.9697 26.6667 48.3788 26.3031 48.4243 25.8334L48.5152 24.8485C48.5277 24.7271 48.5161 24.6043 48.4809 24.4873C48.4457 24.3704 48.3877 24.2616 48.3102 24.1672C48.2327 24.0728 48.1373 23.9947 48.0294 23.9374C47.9216 23.8801 47.8035 23.8447 47.6819 23.8334C47.5601 23.8194 47.4368 23.83 47.3193 23.8646C47.2017 23.8992 47.0923 23.9571 46.9976 24.0348C46.9029 24.1126 46.8248 24.2086 46.768 24.3171C46.7111 24.4257 46.6767 24.5446 46.6667 24.6667L46.5758 25.6516C46.5152 26.1516 46.894 26.6061 47.4091 26.6667ZM38.6667 82.3485L26.8031 80.394C26.2879 80.3182 25.8182 80.6516 25.7273 81.1667C25.6364 81.6819 25.9849 82.1516 26.5 82.2425L38.3637 84.197C38.4852 84.218 38.6096 84.2146 38.7298 84.1869C38.8499 84.1593 38.9634 84.108 39.0635 84.0361C39.1636 83.9642 39.2484 83.873 39.313 83.768C39.3775 83.663 39.4205 83.5461 39.4394 83.4243C39.4615 83.3027 39.4588 83.1779 39.4316 83.0573C39.4045 82.9368 39.3533 82.8229 39.2812 82.7226C39.2091 82.6222 39.1175 82.5373 39.012 82.4731C38.9064 82.4088 38.789 82.3665 38.6667 82.3485ZM43.894 83.3334L43.1364 83.1819C43.017 83.1572 42.8938 83.1565 42.7741 83.1797C42.6544 83.203 42.5404 83.2499 42.439 83.3175C42.3375 83.3852 42.2504 83.4723 42.1829 83.5739C42.1154 83.6754 42.0687 83.7894 42.0455 83.9091C41.9394 84.4091 42.2728 84.9091 42.7728 85L43.5303 85.1516C43.591 85.1667 43.6516 85.1667 43.7122 85.1667C44.1516 85.1667 44.5303 84.8637 44.6213 84.4243C44.6682 84.1833 44.6181 83.9336 44.4819 83.7293C44.3458 83.525 44.1345 83.3827 43.894 83.3334Z"
          fill="currentColor"/>
</svg>
